<svg width="54" height="40" viewBox="0 0 54 40" fill="none" xmlns="http://www.w3.org/2000/svg">
<g clip-path="url(#clip0_215_251)">
<path d="M0 0H53.75V40H0V0Z" fill="#003399"/>
<path d="M26.8746 6.36453L26.2773 8.33984L27.2727 8.53737L26.8746 6.36453Z" fill="#FFCC00"/>
<path d="M26.8754 6.36453L27.4727 8.33984L26.4773 8.53737L26.8754 6.36453Z" fill="#FFCC00"/>
<path d="M28.7696 7.73038L26.6922 7.77348L26.8123 8.77607L28.7696 7.73038Z" fill="#FFCC00"/>
<path d="M28.7695 7.73034L27.0633 8.90357L26.5649 8.02261L28.7695 7.73034Z" fill="#FFCC00"/>
<path d="M28.0468 9.93836L27.3581 7.99166L26.4369 8.41123L28.0468 9.93836Z" fill="#FFCC00"/>
<path d="M28.0469 9.93841L26.3932 8.68709L27.0802 7.94771L28.0469 9.93841Z" fill="#FFCC00"/>
<path d="M24.9804 7.73087L27.0578 7.77397L26.9377 8.77656L24.9804 7.73087Z" fill="#FFCC00"/>
<path d="M24.9805 7.73046L26.6867 8.9037L27.1851 8.02273L24.9805 7.73046Z" fill="#FFCC00"/>
<path d="M25.7032 9.93836L26.3919 7.99166L27.3131 8.41124L25.7032 9.93836Z" fill="#FFCC00"/>
<path d="M25.7031 9.93854L27.3568 8.68721L26.6698 7.94783L25.7031 9.93854Z" fill="#FFCC00"/>
<path d="M26.8746 30.0682L26.2773 32.0435L27.2727 32.2411L26.8746 30.0682Z" fill="#FFCC00"/>
<path d="M26.8754 30.0682L27.4727 32.0435L26.4773 32.2411L26.8754 30.0682Z" fill="#FFCC00"/>
<path d="M28.7676 31.4345L26.6903 31.4776L26.8104 32.4802L28.7676 31.4345Z" fill="#FFCC00"/>
<path d="M28.7676 31.434L27.0614 32.6073L26.5629 31.7263L28.7676 31.434Z" fill="#FFCC00"/>
<path d="M28.0468 33.6422L27.3581 31.6955L26.4369 32.115L28.0468 33.6422Z" fill="#FFCC00"/>
<path d="M28.0469 33.6422L26.3932 32.3909L27.0802 31.6515L28.0469 33.6422Z" fill="#FFCC00"/>
<path d="M24.9824 31.4347L27.0597 31.4778L26.9396 32.4804L24.9824 31.4347Z" fill="#FFCC00"/>
<path d="M24.9824 31.434L26.6886 32.6073L27.1871 31.7263L24.9824 31.434Z" fill="#FFCC00"/>
<path d="M25.7032 33.6422L26.3919 31.6955L27.3131 32.1151L25.7032 33.6422Z" fill="#FFCC00"/>
<path d="M25.7031 33.6422L27.3568 32.3909L26.6698 31.6515L25.7031 33.6422Z" fill="#FFCC00"/>
<path d="M14.9312 18.2164L14.334 20.1917L15.3294 20.3892L14.9312 18.2164Z" fill="#FFCC00"/>
<path d="M14.9321 18.2163L15.5293 20.1916L14.5339 20.3891L14.9321 18.2163Z" fill="#FFCC00"/>
<path d="M16.8242 19.583L14.7469 19.6261L14.867 20.6287L16.8242 19.583Z" fill="#FFCC00"/>
<path d="M16.8242 19.5825L15.118 20.7557L14.6195 19.8747L16.8242 19.5825Z" fill="#FFCC00"/>
<path d="M16.1035 21.7902L15.4147 19.8435L14.4935 20.2631L16.1035 21.7902Z" fill="#FFCC00"/>
<path d="M16.1035 21.7903L14.4499 20.539L15.1368 19.7996L16.1035 21.7903Z" fill="#FFCC00"/>
<path d="M13.039 19.5829L15.1164 19.626L14.9963 20.6286L13.039 19.5829Z" fill="#FFCC00"/>
<path d="M13.0391 19.5823L14.7453 20.7556L15.2437 19.8746L13.0391 19.5823Z" fill="#FFCC00"/>
<path d="M13.7598 21.7902L14.4486 19.8435L15.3698 20.2631L13.7598 21.7902Z" fill="#FFCC00"/>
<path d="M13.7597 21.7903L15.4134 20.5389L14.7264 19.7995L13.7597 21.7903Z" fill="#FFCC00"/>
<path d="M19.8809 11.616L21.5345 10.3646L20.8476 9.62527L19.8809 11.616Z" fill="#FFCC00"/>
<path d="M19.8809 11.616L20.5697 9.66929L21.4909 10.0888L19.8809 11.616Z" fill="#FFCC00"/>
<path d="M19.1577 9.4074L20.8652 10.581L21.3629 9.70131L19.1577 9.4074Z" fill="#FFCC00"/>
<path d="M19.1587 9.40754L21.2363 9.4524L21.117 10.4539L19.1587 9.40754Z" fill="#FFCC00"/>
<path d="M21.0527 8.04263L20.4546 10.0176L21.4472 10.2138L21.0527 8.04263Z" fill="#FFCC00"/>
<path d="M21.0528 8.04261L21.6461 10.0161L20.6531 10.2147L21.0528 8.04261Z" fill="#FFCC00"/>
<path d="M22.2202 11.6149L20.5673 10.3667L21.2567 9.62542L22.2202 11.6149Z" fill="#FFCC00"/>
<path d="M22.2193 11.6152L21.534 9.66911L20.6107 10.0909L22.2193 11.6152Z" fill="#FFCC00"/>
<path d="M22.9448 9.40691L21.235 10.5812L20.7387 9.70408L22.9448 9.40691Z" fill="#FFCC00"/>
<path d="M22.9439 9.40653L20.8658 9.45491L20.9833 10.4543L22.9439 9.40653Z" fill="#FFCC00"/>
<path d="M17.793 16.01L17.1041 14.0633L16.183 14.4829L17.793 16.01Z" fill="#FFCC00"/>
<path d="M17.793 16.0101L16.1393 14.7587L16.8262 14.0194L17.793 16.0101Z" fill="#FFCC00"/>
<path d="M15.4517 16.0087L17.1046 14.7605L16.4151 14.0192L15.4517 16.0087Z" fill="#FFCC00"/>
<path d="M15.4526 16.0091L16.1379 14.063L17.0612 14.4848L15.4526 16.0091Z" fill="#FFCC00"/>
<path d="M14.7271 13.8003L16.4369 14.9747L16.9332 14.0975L14.7271 13.8003Z" fill="#FFCC00"/>
<path d="M14.728 13.8L16.8061 13.8483L16.6886 14.8478L14.728 13.8Z" fill="#FFCC00"/>
<path d="M18.5141 13.8013L16.8067 14.9749L16.309 14.0952L18.5141 13.8013Z" fill="#FFCC00"/>
<path d="M18.5132 13.8014L16.4356 13.8462L16.5548 14.8478L18.5132 13.8014Z" fill="#FFCC00"/>
<path d="M16.6192 12.4363L17.2172 14.4112L16.2247 14.6075L16.6192 12.4363Z" fill="#FFCC00"/>
<path d="M16.6191 12.4363L16.0258 14.4099L17.0188 14.6085L16.6191 12.4363Z" fill="#FFCC00"/>
<path d="M18.516 25.683L16.4389 25.7246L16.5597 26.7281L18.516 25.683Z" fill="#FFCC00"/>
<path d="M18.5152 25.6823L16.81 26.8553L16.3109 25.9733L18.5152 25.6823Z" fill="#FFCC00"/>
<path d="M17.7961 27.8905L17.1044 25.9432L16.185 26.3609L17.7961 27.8905Z" fill="#FFCC00"/>
<path d="M17.7957 27.8911L16.1414 26.6371L16.8262 25.8993L17.7957 27.8911Z" fill="#FFCC00"/>
<path d="M15.4551 27.8883L17.1078 26.6412L16.4174 25.8993L15.4551 27.8883Z" fill="#FFCC00"/>
<path d="M15.4551 27.8886L16.139 25.9428L17.0631 26.3654L15.4551 27.8886Z" fill="#FFCC00"/>
<path d="M16.621 24.3172L17.22 26.2917L16.2309 26.4864L16.621 24.3172Z" fill="#FFCC00"/>
<path d="M16.6211 24.3177L16.0325 26.2891L17.0227 26.489L16.6211 24.3177Z" fill="#FFCC00"/>
<path d="M14.73 25.6803L16.8082 25.729L16.6909 26.7282L14.73 25.6803Z" fill="#FFCC00"/>
<path d="M14.7309 25.6806L16.441 26.855L16.9371 25.9781L14.7309 25.6806Z" fill="#FFCC00"/>
<path d="M22.8363 29.6584L20.7592 29.7L20.88 30.7035L22.8363 29.6584Z" fill="#FFCC00"/>
<path d="M22.8355 29.6579L21.1303 30.8308L20.6313 29.9488L22.8355 29.6579Z" fill="#FFCC00"/>
<path d="M22.1164 31.866L21.4247 29.9187L20.5053 30.3364L22.1164 31.866Z" fill="#FFCC00"/>
<path d="M22.116 31.8668L20.4617 30.6128L21.1465 29.875L22.116 31.8668Z" fill="#FFCC00"/>
<path d="M19.7754 31.8639L21.4281 30.6168L20.7377 29.8749L19.7754 31.8639Z" fill="#FFCC00"/>
<path d="M19.7754 31.8642L20.4593 29.9183L21.3834 30.3409L19.7754 31.8642Z" fill="#FFCC00"/>
<path d="M20.9414 28.2925L21.5403 30.267L20.5512 30.4618L20.9414 28.2925Z" fill="#FFCC00"/>
<path d="M20.9415 28.2933L20.3528 30.2647L21.343 30.4646L20.9415 28.2933Z" fill="#FFCC00"/>
<path d="M19.0504 29.6558L21.1285 29.7045L21.0112 30.7037L19.0504 29.6558Z" fill="#FFCC00"/>
<path d="M19.0512 29.6559L20.7613 30.8303L21.2574 29.9534L19.0512 29.6559Z" fill="#FFCC00"/>
<path d="M38.8207 18.2164L39.418 20.1917L38.4226 20.3892L38.8207 18.2164Z" fill="#FFCC00"/>
<path d="M38.8199 18.2162L38.2227 20.1916L39.218 20.3891L38.8199 18.2162Z" fill="#FFCC00"/>
<path d="M36.9277 19.5829L39.0051 19.626L38.885 20.6286L36.9277 19.5829Z" fill="#FFCC00"/>
<path d="M36.9278 19.5823L38.634 20.7555L39.1324 19.8745L36.9278 19.5823Z" fill="#FFCC00"/>
<path d="M37.6485 21.7902L38.3372 19.8435L39.2584 20.263L37.6485 21.7902Z" fill="#FFCC00"/>
<path d="M37.6484 21.7902L39.3021 20.5389L38.6151 19.7995L37.6484 21.7902Z" fill="#FFCC00"/>
<path d="M40.7129 19.5828L38.6356 19.6259L38.7557 20.6285L40.7129 19.5828Z" fill="#FFCC00"/>
<path d="M40.7129 19.5824L39.0067 20.7557L38.5082 19.8747L40.7129 19.5824Z" fill="#FFCC00"/>
<path d="M39.9922 21.7902L39.3034 19.8435L38.3822 20.2631L39.9922 21.7902Z" fill="#FFCC00"/>
<path d="M39.9922 21.7903L38.3386 20.5389L39.0255 19.7995L39.9922 21.7903Z" fill="#FFCC00"/>
<path d="M33.8711 11.616L32.2174 10.3646L32.9043 9.62527L33.8711 11.616Z" fill="#FFCC00"/>
<path d="M33.8711 11.616L33.1823 9.66929L32.2611 10.0888L33.8711 11.616Z" fill="#FFCC00"/>
<path d="M34.5942 9.4075L32.8868 10.5811L32.3891 9.7014L34.5942 9.4075Z" fill="#FFCC00"/>
<path d="M34.5933 9.40757L32.5157 9.45243L32.6349 10.454L34.5933 9.40757Z" fill="#FFCC00"/>
<path d="M32.6993 8.04266L33.2973 10.0176L32.3048 10.2138L32.6993 8.04266Z" fill="#FFCC00"/>
<path d="M32.6992 8.04264L32.1059 10.0162L33.0989 10.2148L32.6992 8.04264Z" fill="#FFCC00"/>
<path d="M31.5318 11.6149L33.1847 10.3667L32.4952 9.62542L31.5318 11.6149Z" fill="#FFCC00"/>
<path d="M31.5327 11.6152L32.2179 9.66911L33.1412 10.0909L31.5327 11.6152Z" fill="#FFCC00"/>
<path d="M30.8072 9.4067L32.517 10.581L33.0133 9.70387L30.8072 9.4067Z" fill="#FFCC00"/>
<path d="M30.8081 9.40653L32.8861 9.45491L32.7687 10.4543L30.8081 9.40653Z" fill="#FFCC00"/>
<path d="M35.9609 16.0099L36.6498 14.0632L37.5709 14.4827L35.9609 16.0099Z" fill="#FFCC00"/>
<path d="M35.9609 16.0101L37.6146 14.7587L36.9277 14.0194L35.9609 16.0101Z" fill="#FFCC00"/>
<path d="M38.3002 16.0086L36.6473 14.7604L37.3368 14.0191L38.3002 16.0086Z" fill="#FFCC00"/>
<path d="M38.2994 16.009L37.6141 14.0629L36.6908 14.4847L38.2994 16.009Z" fill="#FFCC00"/>
<path d="M39.0249 13.8006L37.315 14.9749L36.8188 14.0977L39.0249 13.8006Z" fill="#FFCC00"/>
<path d="M39.024 13.8002L36.9459 13.8486L37.0634 14.848L39.024 13.8002Z" fill="#FFCC00"/>
<path d="M35.2378 13.8014L36.9452 14.975L37.443 14.0954L35.2378 13.8014Z" fill="#FFCC00"/>
<path d="M35.2387 13.8016L37.3163 13.8465L37.1971 14.848L35.2387 13.8016Z" fill="#FFCC00"/>
<path d="M37.1328 12.4367L36.5347 14.4116L37.5272 14.6079L37.1328 12.4367Z" fill="#FFCC00"/>
<path d="M37.1329 12.4368L37.7261 14.4103L36.7331 14.6089L37.1329 12.4368Z" fill="#FFCC00"/>
<path d="M35.2359 25.683L37.313 25.7246L37.1922 26.7281L35.2359 25.683Z" fill="#FFCC00"/>
<path d="M35.2367 25.6823L36.942 26.8553L37.441 25.9733L35.2367 25.6823Z" fill="#FFCC00"/>
<path d="M35.9558 27.8905L36.6476 25.9432L37.5669 26.3609L35.9558 27.8905Z" fill="#FFCC00"/>
<path d="M35.9563 27.8911L37.6105 26.6371L36.9258 25.8993L35.9563 27.8911Z" fill="#FFCC00"/>
<path d="M38.2969 27.8884L36.6442 26.6413L37.3346 25.8994L38.2969 27.8884Z" fill="#FFCC00"/>
<path d="M38.2969 27.8888L37.6129 25.9429L36.6888 26.3655L38.2969 27.8888Z" fill="#FFCC00"/>
<path d="M37.1309 24.3171L36.5319 26.2916L37.5211 26.4863L37.1309 24.3171Z" fill="#FFCC00"/>
<path d="M37.1328 24.3176L37.7214 26.289L36.7312 26.4889L37.1328 24.3176Z" fill="#FFCC00"/>
<path d="M39.0219 25.68L36.9438 25.7287L37.0611 26.7279L39.0219 25.68Z" fill="#FFCC00"/>
<path d="M39.0211 25.6802L37.311 26.8546L36.8149 25.9777L39.0211 25.6802Z" fill="#FFCC00"/>
<path d="M30.9156 29.6591L32.9927 29.7007L32.8719 30.7042L30.9156 29.6591Z" fill="#FFCC00"/>
<path d="M30.9164 29.6584L32.6216 30.8313L33.1207 29.9493L30.9164 29.6584Z" fill="#FFCC00"/>
<path d="M31.6355 31.8665L32.3273 29.9192L33.2466 30.3369L31.6355 31.8665Z" fill="#FFCC00"/>
<path d="M31.6359 31.8673L33.2902 30.6133L32.6054 29.8755L31.6359 31.8673Z" fill="#FFCC00"/>
<path d="M33.9765 31.8645L32.3239 30.6173L33.0143 29.8754L33.9765 31.8645Z" fill="#FFCC00"/>
<path d="M33.9766 31.8647L33.2926 29.9188L32.3685 30.3414L33.9766 31.8647Z" fill="#FFCC00"/>
<path d="M32.8106 28.2932L32.2116 30.2677L33.2008 30.4625L32.8106 28.2932Z" fill="#FFCC00"/>
<path d="M32.8105 28.2937L33.3991 30.2652L32.4089 30.465L32.8105 28.2937Z" fill="#FFCC00"/>
<path d="M34.7016 29.6563L32.6235 29.7051L32.7407 30.7043L34.7016 29.6563Z" fill="#FFCC00"/>
<path d="M34.7007 29.6566L32.9906 30.831L32.4945 29.9541L34.7007 29.6566Z" fill="#FFCC00"/>
</g>
<defs>
<clipPath id="clip0_215_251">
<rect width="53.75" height="40" fill="white"/>
</clipPath>
</defs>
</svg>
