<svg width="54" height="40" viewBox="0 0 54 40" fill="none" xmlns="http://www.w3.org/2000/svg">
<g clip-path="url(#clip0_215_244)">
<path fill-rule="evenodd" clip-rule="evenodd" d="M0 0H76V3.08333H0V0ZM0 6.15833H76V9.24167H0V6.15833ZM0 12.3083H76V15.3917H0V12.3083ZM0 18.4583H76V21.5417H0V18.4583ZM0 24.625H76V27.6917H0V24.625ZM0 30.7667H76V33.85H0V30.7667ZM0 36.9167H76V40H0V36.9167Z" fill="#BD3D44"/>
<path fill-rule="evenodd" clip-rule="evenodd" d="M0 3.08331H76V6.15831H0V3.08331ZM0 9.23331H76V12.3083H0V9.23331ZM0 15.3833H76V18.4666H0V15.3833ZM0 21.5416H76V24.625H0V21.5416ZM0 27.6916H76V30.775H0V27.6916ZM0 33.8416H76V36.925H0V33.8416Z" fill="white"/>
<path fill-rule="evenodd" clip-rule="evenodd" d="M0 0H30.4V21.5417H0V0Z" fill="#192F5D"/>
<path fill-rule="evenodd" clip-rule="evenodd" d="M2.53242 0.916748L2.81575 1.77508H3.69909L2.98242 2.30008L3.25742 3.15842L2.53242 2.62508L1.81576 3.15008L2.08242 2.30008L1.35742 1.77508H2.26576L2.53242 0.916748ZM7.59909 0.916748L7.87409 1.77508H8.77409L8.04909 2.30008L8.31575 3.15842L7.59909 2.62508L6.87409 3.15008L7.14909 2.30008L6.43242 1.77508H7.31575L7.59909 0.916748ZM12.6658 0.916748L12.9408 1.77508H13.8324L13.1158 2.30008L13.3908 3.15842L12.6658 2.62508L11.9408 3.15008L12.2158 2.30008L11.4908 1.77508H12.3908L12.6658 0.916748ZM17.7324 0.916748L18.0074 1.77508H18.9074L18.1824 2.30008L18.4574 3.15842L17.7324 2.62508L17.0074 3.15008L17.2908 2.30008L16.5574 1.77508H17.4491L17.7324 0.916748ZM22.7991 0.916748L23.0741 1.77508H23.9658L23.2491 2.30008L23.5241 3.15842L22.7991 2.62508L22.0741 3.15008L22.3491 2.30008L21.6324 1.77508H22.5241L22.7991 0.916748ZM27.8658 0.916748L28.1408 1.77508H29.0408L28.3074 2.30008L28.5908 3.15842L27.8658 2.62508L27.1408 3.15008L27.4241 2.30008L26.6908 1.77508H27.5908L27.8658 0.916748ZM5.06575 3.08341L5.34075 3.93342H6.24909L5.52409 4.45008L5.79075 5.30842L5.08242 4.78342L4.35742 5.30842L4.61575 4.45008L3.91575 3.93342H4.80742L5.06575 3.08341ZM10.1324 3.08341L10.4158 3.93342H11.3074L10.5741 4.45008L10.8574 5.30842L10.1324 4.78342L9.40742 5.30842L9.68242 4.45008L8.95742 3.93342H9.85742L10.1324 3.08341ZM15.1991 3.08341L15.4741 3.93342H16.3741L15.6491 4.45008L15.9241 5.30842L15.1991 4.78342L14.4741 5.30842L14.7491 4.45008L14.0324 3.93342H14.9158L15.1991 3.08341ZM20.2658 3.08341L20.5491 3.93342H21.4408L20.7074 4.45008L20.9908 5.30842L20.2658 4.78342L19.5491 5.30842L19.8158 4.45008L19.0908 3.93342H19.9991L20.2658 3.08341ZM25.3324 3.08341L25.6074 3.93342H26.5074L25.7824 4.45008L26.0574 5.30842L25.3324 4.78342L24.6074 5.30842L24.8824 4.45008L24.1658 3.93342H25.0574L25.3324 3.08341ZM2.53242 5.21675L2.81575 6.08342H3.69909L2.98242 6.60842L3.25742 7.45842L2.53242 6.93342L1.81576 7.45842L2.08242 6.60842L1.35742 6.08342H2.26576L2.53242 5.21675ZM7.59909 5.21675L7.87409 6.08342H8.77409L8.04909 6.60842L8.31575 7.45842L7.59909 6.93342L6.87409 7.45842L7.14909 6.60008L6.43242 6.07508H7.31575L7.59909 5.21675ZM12.6658 5.21675L12.9408 6.07508H13.8324L13.1158 6.60008L13.3908 7.45008L12.6658 6.92508L11.9408 7.45008L12.2158 6.59175L11.4908 6.06675H12.3908L12.6658 5.21675ZM17.7324 5.21675L18.0074 6.07508H18.9074L18.1824 6.60008L18.4574 7.45008L17.7324 6.92508L17.0074 7.45008L17.2908 6.59175L16.5574 6.06675H17.4491L17.7324 5.21675ZM22.7991 5.21675L23.0741 6.07508H23.9658L23.2491 6.60008L23.5241 7.45008L22.7991 6.92508L22.0741 7.45008L22.3491 6.59175L21.6324 6.06675H22.5241L22.7991 5.21675ZM27.8658 5.21675L28.1408 6.07508H29.0408L28.3074 6.60008L28.5908 7.45008L27.8658 6.92508L27.1408 7.45008L27.4241 6.59175L26.6908 6.06675H27.5908L27.8658 5.21675ZM5.06575 7.38342L5.34075 8.23342H6.24909L5.52409 8.75842L5.79909 9.61675L5.07409 9.08342L4.34909 9.60842L4.62409 8.75842L3.90742 8.23342H4.79909L5.06575 7.38342ZM10.1324 7.38342L10.4158 8.23342H11.3074L10.5741 8.75842L10.8574 9.61675L10.1324 9.08342L9.40742 9.60842L9.68242 8.75842L8.95742 8.23342H9.85742L10.1324 7.38342ZM15.1991 7.38342L15.4741 8.23342H16.3741L15.6491 8.75842L15.9241 9.61675L15.1991 9.08342L14.4741 9.60842L14.7491 8.75842L14.0324 8.23342H14.9158L15.1991 7.38342ZM20.2658 7.38342L20.5491 8.23342H21.4408L20.7158 8.75842L20.9908 9.61675L20.2658 9.08342L19.5491 9.60842L19.8158 8.75842L19.0908 8.23342H19.9991L20.2658 7.38342ZM25.3324 7.38342L25.6074 8.23342H26.5074L25.7824 8.75842L26.0574 9.61675L25.3324 9.08342L24.6074 9.60842L24.8824 8.75842L24.1658 8.23342H25.0574L25.3324 7.38342ZM2.53242 9.54175L2.81575 10.3917H3.69909L2.98242 10.9167L3.25742 11.7751L2.53242 11.2417L1.81576 11.7667L2.08242 10.9167L1.35742 10.3917H2.26576L2.53242 9.54175ZM7.59909 9.54175L7.87409 10.3917H8.77409L8.04909 10.9167L8.31575 11.7667L7.59909 11.2417L6.87409 11.7667L7.14909 10.9167L6.43242 10.3917H7.31575L7.59909 9.54175ZM12.6658 9.54175L12.9408 10.3917H13.8324L13.1158 10.9167L13.3908 11.7751L12.6658 11.2417L11.9408 11.7667L12.2158 10.9167L11.4908 10.3917H12.3908L12.6658 9.54175ZM17.7324 9.54175L18.0074 10.3917H18.9074L18.1824 10.9167L18.4574 11.7751L17.7324 11.2417L17.0074 11.7667L17.2908 10.9167L16.5574 10.3917H17.4491L17.7324 9.54175ZM22.7991 9.54175L23.0741 10.3917H23.9658L23.2491 10.9167L23.5241 11.7751L22.7991 11.2417L22.0741 11.7667L22.3491 10.9167L21.6324 10.3917H22.5241L22.7991 9.54175ZM27.8658 9.54175L28.1408 10.3917H29.0408L28.3074 10.9167L28.5908 11.7751L27.8658 11.2417L27.1408 11.7667L27.4158 10.9167L26.6824 10.3917H27.5824L27.8658 9.54175ZM5.06575 11.6917L5.34075 12.5501H6.24909L5.52409 13.0667L5.79909 13.9251L5.07409 13.3917L4.34909 13.9251L4.62409 13.0667L3.90742 12.5417H4.79909L5.06575 11.6917ZM10.1324 11.6917L10.4158 12.5501H11.3074L10.5741 13.0667L10.8574 13.9251L10.1324 13.3917L9.40742 13.9251L9.68242 13.0667L8.95742 12.5417H9.85742L10.1324 11.6917ZM15.1991 11.6917L15.4741 12.5501H16.3741L15.6491 13.0667L15.9241 13.9251L15.1991 13.3917L14.4741 13.9251L14.7491 13.0667L14.0324 12.5417H14.9158L15.1991 11.6917ZM20.2658 11.6917L20.5491 12.5501H21.4408L20.7158 13.0667L20.9908 13.9251L20.2658 13.3917L19.5491 13.9251L19.8158 13.0667L19.0908 12.5417H19.9991L20.2658 11.6917ZM25.3324 11.6917L25.6074 12.5501H26.5074L25.7824 13.0667L26.0574 13.9251L25.3324 13.3917L24.6074 13.9251L24.8824 13.0667L24.1658 12.5417H25.0574L25.3324 11.6917ZM2.53242 13.8418L2.81575 14.7001H3.69909L2.98242 15.2251L3.25742 16.0668L2.53242 15.5501L1.81576 16.0668L2.08242 15.2168L1.35742 14.6917H2.26576L2.53242 13.8418ZM7.59909 13.8418L7.87409 14.7001H8.77409L8.04909 15.2251L8.32409 16.0668L7.59909 15.5501L6.87409 16.0668L7.15742 15.2168L6.43242 14.6917H7.31575L7.59909 13.8418ZM12.6658 13.8418L12.9408 14.7001H13.8324L13.1158 15.2251L13.3908 16.0668L12.6658 15.5501L11.9408 16.0668L12.2158 15.2168L11.4908 14.6917H12.3908L12.6658 13.8418ZM17.7324 13.8418L18.0074 14.7001H18.9074L18.1824 15.2251L18.4574 16.0668L17.7324 15.5501L17.0074 16.0668L17.2908 15.2168L16.5574 14.6917H17.4491L17.7324 13.8418ZM22.7991 13.8418L23.0741 14.7001H23.9658L23.2491 15.2251L23.5241 16.0668L22.7991 15.5501L22.0741 16.0668L22.3491 15.2168L21.6324 14.6917H22.5241L22.7991 13.8418ZM27.8658 13.8418L28.1408 14.7001H29.0408L28.3074 15.2251L28.5908 16.0668L27.8658 15.5501L27.1408 16.0668L27.4241 15.2168L26.6908 14.6917H27.5908L27.8658 13.8418ZM5.06575 16.0001L5.34075 16.8501H6.24909L5.52409 17.3751L5.79909 18.2334L5.07409 17.7001L4.34909 18.2251L4.62409 17.3751L3.90742 16.8501H4.79909L5.06575 16.0001ZM10.1324 16.0001L10.4158 16.8501H11.3074L10.5741 17.3751L10.8574 18.2334L10.1324 17.7001L9.40742 18.2251L9.68242 17.3751L8.95742 16.8501H9.85742L10.1324 16.0001ZM15.1991 16.0001L15.4741 16.8501H16.3741L15.6491 17.3751L15.9241 18.2334L15.1991 17.7001L14.4741 18.2251L14.7491 17.3751L14.0324 16.8501H14.9158L15.1991 16.0001ZM20.2658 16.0001L20.5491 16.8501H21.4408L20.7158 17.3751L20.9908 18.2334L20.2658 17.7001L19.5491 18.2251L19.8158 17.3751L19.0908 16.8501H19.9991L20.2658 16.0001ZM25.3324 16.0001L25.6074 16.8501H26.5074L25.7824 17.3751L26.0574 18.2334L25.3324 17.7001L24.6074 18.2251L24.8824 17.3751L24.1658 16.8501H25.0574L25.3324 16.0001ZM2.53242 18.1584L2.81575 19.0084H3.69909L2.98242 19.5334L3.25742 20.3834L2.53242 19.8584L1.81576 20.3834L2.08242 19.5251L1.35742 19.0001H2.26576L2.53242 18.1584ZM7.59909 18.1584L7.87409 19.0084H8.77409L8.04909 19.5334L8.32409 20.3834L7.59909 19.8584L6.87409 20.3834L7.15742 19.5251L6.43242 19.0001H7.31575L7.59909 18.1584ZM12.6658 18.1584L12.9408 19.0084H13.8324L13.1324 19.5334L13.4074 20.3834L12.6824 19.8584L11.9574 20.3834L12.2324 19.5251L11.5074 19.0001H12.4074L12.6658 18.1584ZM17.7324 18.1584L18.0074 19.0084H18.9074L18.1824 19.5334L18.4574 20.3834L17.7324 19.8584L17.0074 20.3834L17.2908 19.5251L16.5574 19.0001H17.4491L17.7324 18.1584ZM22.7991 18.1584L23.0741 19.0084H23.9658L23.2491 19.5334L23.5241 20.3834L22.7991 19.8584L22.0741 20.3834L22.3491 19.5251L21.6324 19.0001H22.5241L22.7991 18.1584ZM27.8658 18.1584L28.1408 19.0084H29.0408L28.3074 19.5334L28.5908 20.3834L27.8658 19.8584L27.1408 20.3834L27.4241 19.5251L26.6908 19.0001H27.5908L27.8658 18.1584Z" fill="white"/>
</g>
<defs>
<clipPath id="clip0_215_244">
<rect width="53.3333" height="40" fill="white"/>
</clipPath>
</defs>
</svg>
