<svg width="20" height="20" viewBox="0 0 20 20" fill="none" xmlns="http://www.w3.org/2000/svg">
<mask id="path-1-inside-1_107_129" fill="white">
<path fill-rule="evenodd" clip-rule="evenodd" d="M1 10C1 2.5885 2.5885 1 10 1C17.4115 1 19 2.5885 19 10C19 17.4115 17.4115 19 10 19C2.5885 19 1 17.4115 1 10ZM1.74483 10C1.74483 8.16413 1.84417 6.73968 2.0911 5.62861C2.33614 4.526 2.71652 3.7782 3.24736 3.24736C3.7782 2.71652 4.526 2.33614 5.62861 2.0911C6.73968 1.84417 8.16413 1.74483 10 1.74483C11.8359 1.74483 13.2603 1.84417 14.3714 2.0911C15.474 2.33614 16.2218 2.71652 16.7526 3.24736C17.2835 3.7782 17.6639 4.526 17.9089 5.62861C18.1558 6.73968 18.2552 8.16413 18.2552 10C18.2552 11.8359 18.1558 13.2603 17.9089 14.3714C17.7541 15.0678 17.5454 15.6227 17.2788 16.0707L16.4604 15.5452L16.4594 15.5464C16.0661 15.3755 15.4848 15.2421 14.8728 15.1017C13.9752 14.8958 13.0116 14.6747 12.4789 14.2977C12.474 14.2892 12.4674 14.2817 12.4596 14.2757C12.2554 14.0621 12.0709 13.8305 11.9083 13.5838L11.798 13.4266C12.1882 13.0092 12.5269 12.5465 12.8069 12.0483L13.6339 10.6948V10.67C13.8025 10.3713 13.872 10.0267 13.8324 9.68593C13.8122 9.59197 13.7661 9.50552 13.6994 9.43635C13.6326 9.36718 13.5479 9.31805 13.4547 9.29449L13.4988 7.42277C13.4763 6.76962 13.2268 6.14476 12.7931 5.65579C11.9937 4.79298 10.1413 3.74823 8.99732 3.86401C8.87885 3.87916 8.9256 4.06916 8.97346 4.26373C9.02139 4.45852 9.07043 4.65789 8.95597 4.69099C8.59519 4.78953 8.25135 4.94194 7.93604 5.14307C7.35233 5.49234 6.91837 6.0451 6.71762 6.69503C6.67629 6.84782 6.6468 7.00357 6.62941 7.16089C6.60107 7.84831 6.61304 8.5368 6.66525 9.22282C6.4865 9.29023 6.34111 9.42474 6.26003 9.59772C6.20723 9.71539 6.18269 9.84377 6.18836 9.97262C6.22828 10.3524 6.3702 10.7144 6.59909 11.0201L7.31856 12.1669C7.53186 12.5211 7.7695 12.86 8.02976 13.1813C7.9636 13.366 7.86161 13.6389 7.7541 13.8897C7.69187 14.0354 7.61909 14.1764 7.53633 14.3115C7.00888 14.6781 6.07243 14.8919 5.19213 15.0928C4.60739 15.2262 4.04743 15.354 3.64856 15.5173L2.75593 16.128C2.4727 15.6702 2.25253 15.0978 2.0911 14.3714C1.84417 13.2603 1.74483 11.8359 1.74483 10ZM11.6269 18.2236C11.2518 18.2397 10.8555 18.2493 10.4365 18.2532C9.22133 18.2483 7.9565 18.1461 6.68479 18.0125C5.22497 17.7584 4.53941 17.5482 4.11057 17.2864C3.80714 17.1013 3.60932 16.8789 3.33542 16.4836L3.94171 16.0688C4.28034 15.9393 4.75974 15.8281 5.33024 15.6979L5.34152 15.6953C5.7739 15.5967 6.24573 15.489 6.6767 15.3583C7.10368 15.2287 7.54522 15.0612 7.8906 14.8211L7.99757 14.7468L8.06561 14.6357C8.16415 14.4748 8.25081 14.307 8.3249 14.1335C8.4393 13.8665 8.54594 13.5808 8.61409 13.3906L8.73184 13.0619L8.51205 12.7906C8.26988 12.4916 8.04875 12.1762 7.85028 11.8467L7.84735 11.8418L7.11128 10.6686L7.09596 10.6481C6.93891 10.4384 6.83979 10.1911 6.80831 9.93127C6.80893 9.90581 6.81425 9.88066 6.82404 9.8571C6.8368 9.83249 6.85822 9.81341 6.88425 9.80359L7.31944 9.63948L7.28415 9.17572C7.23435 8.52132 7.2225 7.86459 7.24867 7.20883C7.26235 7.09376 7.28415 6.9798 7.31391 6.86779C7.47086 6.36871 7.80558 5.94445 8.25474 5.67569L8.26235 5.67113L8.26983 5.66636C8.53251 5.49881 8.81896 5.37184 9.11952 5.28974L9.12396 5.28853L9.12838 5.28725C9.36065 5.22009 9.5149 5.05265 9.58856 4.87181C9.64252 4.73936 9.64857 4.61423 9.64658 4.5348C9.97011 4.60791 10.3479 4.74776 10.7459 4.9476C11.4013 5.27674 11.9957 5.71027 12.3332 6.07265C12.6645 6.4486 12.8567 6.9268 12.8779 7.42728L12.8225 9.77491L13.2225 9.87602C13.2221 10.0467 13.1779 10.2151 13.0934 10.3649L13.0132 10.507V10.5202L12.2714 11.7344L12.2658 11.7442C12.0102 12.1991 11.7009 12.6216 11.3446 13.0028L11.0006 13.3708L11.3951 13.933C11.5673 14.1935 11.7613 14.4388 11.9749 14.6665L12.0086 14.7253L12.1203 14.8044C12.47 15.0518 12.9216 15.2243 13.3577 15.3575C13.7985 15.4921 14.2815 15.6029 14.7226 15.7041L14.7358 15.7071C15.3482 15.8476 15.8482 15.9647 16.1771 16.1009L16.8066 16.5051C16.6062 16.7687 16.3781 16.9813 16.0629 17.1717C15.5456 17.4841 14.7525 17.7609 13.3844 18.0175C12.8192 18.1236 12.2315 18.1893 11.6269 18.2236Z"/>
</mask>
<path fill-rule="evenodd" clip-rule="evenodd" d="M1 10C1 2.5885 2.5885 1 10 1C17.4115 1 19 2.5885 19 10C19 17.4115 17.4115 19 10 19C2.5885 19 1 17.4115 1 10ZM1.74483 10C1.74483 8.16413 1.84417 6.73968 2.0911 5.62861C2.33614 4.526 2.71652 3.7782 3.24736 3.24736C3.7782 2.71652 4.526 2.33614 5.62861 2.0911C6.73968 1.84417 8.16413 1.74483 10 1.74483C11.8359 1.74483 13.2603 1.84417 14.3714 2.0911C15.474 2.33614 16.2218 2.71652 16.7526 3.24736C17.2835 3.7782 17.6639 4.526 17.9089 5.62861C18.1558 6.73968 18.2552 8.16413 18.2552 10C18.2552 11.8359 18.1558 13.2603 17.9089 14.3714C17.7541 15.0678 17.5454 15.6227 17.2788 16.0707L16.4604 15.5452L16.4594 15.5464C16.0661 15.3755 15.4848 15.2421 14.8728 15.1017C13.9752 14.8958 13.0116 14.6747 12.4789 14.2977C12.474 14.2892 12.4674 14.2817 12.4596 14.2757C12.2554 14.0621 12.0709 13.8305 11.9083 13.5838L11.798 13.4266C12.1882 13.0092 12.5269 12.5465 12.8069 12.0483L13.6339 10.6948V10.67C13.8025 10.3713 13.872 10.0267 13.8324 9.68593C13.8122 9.59197 13.7661 9.50552 13.6994 9.43635C13.6326 9.36718 13.5479 9.31805 13.4547 9.29449L13.4988 7.42277C13.4763 6.76962 13.2268 6.14476 12.7931 5.65579C11.9937 4.79298 10.1413 3.74823 8.99732 3.86401C8.87885 3.87916 8.9256 4.06916 8.97346 4.26373C9.02139 4.45852 9.07043 4.65789 8.95597 4.69099C8.59519 4.78953 8.25135 4.94194 7.93604 5.14307C7.35233 5.49234 6.91837 6.0451 6.71762 6.69503C6.67629 6.84782 6.6468 7.00357 6.62941 7.16089C6.60107 7.84831 6.61304 8.5368 6.66525 9.22282C6.4865 9.29023 6.34111 9.42474 6.26003 9.59772C6.20723 9.71539 6.18269 9.84377 6.18836 9.97262C6.22828 10.3524 6.3702 10.7144 6.59909 11.0201L7.31856 12.1669C7.53186 12.5211 7.7695 12.86 8.02976 13.1813C7.9636 13.366 7.86161 13.6389 7.7541 13.8897C7.69187 14.0354 7.61909 14.1764 7.53633 14.3115C7.00888 14.6781 6.07243 14.8919 5.19213 15.0928C4.60739 15.2262 4.04743 15.354 3.64856 15.5173L2.75593 16.128C2.4727 15.6702 2.25253 15.0978 2.0911 14.3714C1.84417 13.2603 1.74483 11.8359 1.74483 10ZM11.6269 18.2236C11.2518 18.2397 10.8555 18.2493 10.4365 18.2532C9.22133 18.2483 7.9565 18.1461 6.68479 18.0125C5.22497 17.7584 4.53941 17.5482 4.11057 17.2864C3.80714 17.1013 3.60932 16.8789 3.33542 16.4836L3.94171 16.0688C4.28034 15.9393 4.75974 15.8281 5.33024 15.6979L5.34152 15.6953C5.7739 15.5967 6.24573 15.489 6.6767 15.3583C7.10368 15.2287 7.54522 15.0612 7.8906 14.8211L7.99757 14.7468L8.06561 14.6357C8.16415 14.4748 8.25081 14.307 8.3249 14.1335C8.4393 13.8665 8.54594 13.5808 8.61409 13.3906L8.73184 13.0619L8.51205 12.7906C8.26988 12.4916 8.04875 12.1762 7.85028 11.8467L7.84735 11.8418L7.11128 10.6686L7.09596 10.6481C6.93891 10.4384 6.83979 10.1911 6.80831 9.93127C6.80893 9.90581 6.81425 9.88066 6.82404 9.8571C6.8368 9.83249 6.85822 9.81341 6.88425 9.80359L7.31944 9.63948L7.28415 9.17572C7.23435 8.52132 7.2225 7.86459 7.24867 7.20883C7.26235 7.09376 7.28415 6.9798 7.31391 6.86779C7.47086 6.36871 7.80558 5.94445 8.25474 5.67569L8.26235 5.67113L8.26983 5.66636C8.53251 5.49881 8.81896 5.37184 9.11952 5.28974L9.12396 5.28853L9.12838 5.28725C9.36065 5.22009 9.5149 5.05265 9.58856 4.87181C9.64252 4.73936 9.64857 4.61423 9.64658 4.5348C9.97011 4.60791 10.3479 4.74776 10.7459 4.9476C11.4013 5.27674 11.9957 5.71027 12.3332 6.07265C12.6645 6.4486 12.8567 6.9268 12.8779 7.42728L12.8225 9.77491L13.2225 9.87602C13.2221 10.0467 13.1779 10.2151 13.0934 10.3649L13.0132 10.507V10.5202L12.2714 11.7344L12.2658 11.7442C12.0102 12.1991 11.7009 12.6216 11.3446 13.0028L11.0006 13.3708L11.3951 13.933C11.5673 14.1935 11.7613 14.4388 11.9749 14.6665L12.0086 14.7253L12.1203 14.8044C12.47 15.0518 12.9216 15.2243 13.3577 15.3575C13.7985 15.4921 14.2815 15.6029 14.7226 15.7041L14.7358 15.7071C15.3482 15.8476 15.8482 15.9647 16.1771 16.1009L16.8066 16.5051C16.6062 16.7687 16.3781 16.9813 16.0629 17.1717C15.5456 17.4841 14.7525 17.7609 13.3844 18.0175C12.8192 18.1236 12.2315 18.1893 11.6269 18.2236Z" fill="currentColor" stroke="currentColor" stroke-width="2" mask="url(#path-1-inside-1_107_129)"/>
</svg>
