<svg width="20" height="21" viewBox="0 0 20 21" fill="none" xmlns="http://www.w3.org/2000/svg">
<path fill-rule="evenodd" clip-rule="evenodd" d="M1 11C1 3.5885 2.5885 2 10 2C17.4115 2 19 3.5885 19 11C19 18.4115 17.4115 20 10 20C2.5885 20 1 18.4115 1 11ZM1.74483 11C1.74483 9.16412 1.84417 7.73968 2.0911 6.62861C2.33614 5.526 2.71652 4.7782 3.24736 4.24736C3.7782 3.71652 4.526 3.33614 5.62861 3.0911C6.73968 2.84417 8.16413 2.74483 10 2.74483C11.8359 2.74483 13.2603 2.84417 14.3714 3.0911C15.474 3.33614 16.2218 3.71652 16.7526 4.24736C17.2835 4.7782 17.6639 5.526 17.9089 6.62861C18.1558 7.73968 18.2552 9.16412 18.2552 11C18.2552 12.8359 18.1558 14.2603 17.9089 15.3714C17.7541 16.0678 17.5454 16.6227 17.2788 17.0707L16.4604 16.5452L16.4594 16.5464C16.0661 16.3755 15.4848 16.2421 14.8728 16.1017C13.9752 15.8958 13.0116 15.6747 12.4789 15.2977C12.474 15.2892 12.4674 15.2817 12.4596 15.2757C12.2554 15.0621 12.0709 14.8305 11.9083 14.5838L11.798 14.4266C12.1882 14.0092 12.5269 13.5464 12.8069 13.0483L13.6339 11.6948V11.67C13.8025 11.3713 13.872 11.0267 13.8324 10.6859C13.8122 10.592 13.7661 10.5055 13.6994 10.4363C13.6326 10.3672 13.5479 10.318 13.4547 10.2945L13.4988 8.42277C13.4763 7.76962 13.2268 7.14476 12.7931 6.65579C11.9937 5.79298 10.1413 4.74823 8.99732 4.86401C8.87885 4.87916 8.9256 5.06916 8.97346 5.26373C9.02139 5.45852 9.07043 5.65789 8.95597 5.69099C8.59519 5.78953 8.25135 5.94194 7.93604 6.14307C7.35233 6.49234 6.91837 7.0451 6.71762 7.69503C6.67629 7.84782 6.6468 8.00357 6.62941 8.16089C6.60107 8.84831 6.61304 9.5368 6.66525 10.2228C6.4865 10.2902 6.34111 10.4247 6.26003 10.5977C6.20723 10.7154 6.18269 10.8438 6.18836 10.9726C6.22828 11.3524 6.3702 11.7144 6.59909 12.0201L7.31856 13.1669C7.53186 13.5211 7.7695 13.86 8.02976 14.1813C7.9636 14.366 7.86161 14.6389 7.7541 14.8897C7.69187 15.0354 7.61909 15.1764 7.53633 15.3115C7.00888 15.6781 6.07243 15.8919 5.19213 16.0928C4.60739 16.2262 4.04743 16.354 3.64856 16.5173L2.75593 17.128C2.4727 16.6702 2.25253 16.0978 2.0911 15.3714C1.84417 14.2603 1.74483 12.8359 1.74483 11ZM11.6269 19.2236C11.2518 19.2397 10.8555 19.2493 10.4365 19.2532C9.22133 19.2483 7.9565 19.1461 6.68479 19.0125C5.22497 18.7584 4.53941 18.5482 4.11057 18.2864C3.80714 18.1013 3.60932 17.8789 3.33542 17.4836L3.94171 17.0688C4.28034 16.9393 4.75974 16.8281 5.33024 16.6979L5.34152 16.6953C5.7739 16.5967 6.24573 16.489 6.6767 16.3583C7.10368 16.2287 7.54522 16.0612 7.8906 15.8211L7.99757 15.7468L8.06561 15.6357C8.16415 15.4748 8.25081 15.307 8.3249 15.1335C8.4393 14.8665 8.54594 14.5808 8.61409 14.3906L8.73184 14.0619L8.51205 13.7906C8.26988 13.4916 8.04875 13.1762 7.85028 12.8467L7.84735 12.8418L7.11128 11.6686L7.09596 11.6481C6.93891 11.4384 6.83979 11.1911 6.80831 10.9313C6.80893 10.9058 6.81425 10.8807 6.82404 10.8571C6.8368 10.8325 6.85822 10.8134 6.88425 10.8036L7.31944 10.6395L7.28415 10.1757C7.23435 9.52132 7.2225 8.86459 7.24867 8.20883C7.26235 8.09376 7.28415 7.9798 7.31391 7.86779C7.47086 7.36871 7.80558 6.94445 8.25474 6.67569L8.26235 6.67113L8.26983 6.66636C8.53251 6.49881 8.81896 6.37184 9.11952 6.28974L9.12396 6.28853L9.12838 6.28725C9.36065 6.22009 9.5149 6.05265 9.58856 5.87181C9.64252 5.73936 9.64857 5.61422 9.64658 5.5348C9.97011 5.60791 10.3479 5.74775 10.7459 5.9476C11.4013 6.27673 11.9957 6.71027 12.3332 7.07265C12.6645 7.4486 12.8567 7.9268 12.8779 8.42727L12.8225 10.7749L13.2225 10.876C13.2221 11.0467 13.1779 11.2151 13.0934 11.3649L13.0132 11.507V11.5202L12.2714 12.7344L12.2658 12.7442C12.0102 13.1991 11.7009 13.6216 11.3446 14.0028L11.0006 14.3708L11.3951 14.933C11.5673 15.1935 11.7613 15.4388 11.9749 15.6665L12.0086 15.7253L12.1203 15.8044C12.47 16.0518 12.9216 16.2243 13.3577 16.3575C13.7985 16.4921 14.2815 16.6029 14.7226 16.7041L14.7358 16.7071C15.3482 16.8476 15.8482 16.9647 16.1771 17.1009L16.8066 17.5051C16.6062 17.7687 16.3781 17.9813 16.0629 18.1717C15.5456 18.4841 14.7525 18.7608 13.3844 19.0175C12.8192 19.1236 12.2315 19.1893 11.6269 19.2236Z" fill="currentColor"/>
</svg>
