<svg width="20" height="20" viewBox="0 0 20 20" fill="none" xmlns="http://www.w3.org/2000/svg">
<path fill-rule="evenodd" clip-rule="evenodd" d="M10.0085 1C7.43973 1 5.35408 3.08547 5.35408 5.65407C5.35408 8.22286 7.43955 10.3085 10.0085 10.3085C12.5771 10.3085 14.6626 8.22304 14.6626 5.65407C14.6626 3.08554 12.5771 1 10.0085 1ZM10.0085 2.27409C11.874 2.27409 13.3884 3.78851 13.3884 5.654C13.3884 7.51949 11.874 9.03417 10.0085 9.03417C8.14303 9.03417 6.62836 7.51949 6.62836 5.654C6.62836 3.78851 8.14303 2.27409 10.0085 2.27409Z" fill="currentColor"/>
<path fill-rule="evenodd" clip-rule="evenodd" d="M2.93439 19C6.10499 19 13.9149 19 17.0852 18.9836C17.6396 18.9836 18.169 18.7381 18.5291 18.3122C18.8891 17.8862 19.0432 17.3234 18.9504 16.7734C18.9504 16.7734 18.9498 16.7699 18.9494 16.7681C18.1945 12.5155 14.4759 9.28153 10.0082 9.28153C5.54121 9.28153 1.82341 12.5141 1.05095 16.7626C1.05052 16.7653 1.05009 16.7679 1.04967 16.7706C0.955958 17.3253 1.11138 17.893 1.4747 18.3227C1.83773 18.7523 2.37172 19.0003 2.93439 19ZM2.93439 17.7259C2.74712 17.7259 2.5688 17.6433 2.44766 17.5002C2.32778 17.3583 2.27574 17.1712 2.30517 16.9882C2.97152 13.3341 6.16786 10.5559 10.0083 10.5559C13.8481 10.5559 17.0446 13.3336 17.6947 16.9878C17.7243 17.1674 17.6737 17.3509 17.5564 17.4899C17.4384 17.6296 17.265 17.7099 17.0822 17.7099H17.0789C13.91 17.7263 6.10324 17.7259 2.93439 17.7259Z" fill="currentColor"/>
</svg>
