<svg width="20" height="20" viewBox="0 0 20 20" fill="none" xmlns="http://www.w3.org/2000/svg">
<path fill-rule="evenodd" clip-rule="evenodd" d="M2.0911 5.62861C1.84417 6.73968 1.74483 8.16412 1.74483 10C1.74483 11.8359 1.84417 13.2603 2.0911 14.3714C2.33614 15.474 2.71652 16.2218 3.24736 16.7526C3.7782 17.2835 4.526 17.6639 5.62861 17.9089C6.73968 18.1558 8.16412 18.2552 10 18.2552C11.8359 18.2552 13.2603 18.1558 14.3714 17.9089C15.474 17.6639 16.2218 17.2835 16.7526 16.7526C17.1234 16.3819 17.4208 15.9053 17.6499 15.2759H9.45517C7.32572 15.2759 5.5931 13.5545 5.5931 11.4389V8.56113C5.5931 6.44551 7.32572 4.72414 9.45517 4.72414H10.4207C12.5501 4.72414 14.2828 6.44551 14.2828 8.56113V11.9185C14.2828 12.7118 13.633 13.3574 12.8345 13.3574C12.3184 13.3574 11.8679 13.0858 11.6116 12.681C11.1771 13.0978 10.5882 13.3574 9.93793 13.3574C8.60697 13.3574 7.52414 12.2816 7.52414 10.9592V9.04075C7.52414 7.71843 8.60697 6.64263 9.93793 6.64263C11.2689 6.64263 12.3517 7.71843 12.3517 9.04075V11.9185C12.3517 12.1828 12.568 12.3981 12.8345 12.3981C13.101 12.3981 13.3172 12.1828 13.3172 11.9185V8.56113C13.3172 6.97405 12.0181 5.68339 10.4207 5.68339H9.45517C7.85772 5.68339 6.55862 6.97405 6.55862 8.56113V11.4389C6.55862 13.0259 7.85772 14.3166 9.45517 14.3166H17.9209C17.9233 14.3054 17.9257 14.2941 17.9281 14.2828H18.6883C17.9449 18.065 15.6862 19 10 19C2.5885 19 1 17.4115 1 10C1 2.5885 2.5885 1 10 1C17.4115 1 19 2.5885 19 10C19 11.0423 18.9686 11.9694 18.894 12.7931H18.146C18.2219 11.9872 18.2552 11.0625 18.2552 10C18.2552 8.16412 18.1558 6.73968 17.9089 5.62861C17.6639 4.526 17.2835 3.7782 16.7526 3.24736C16.2218 2.71652 15.474 2.33614 14.3714 2.0911C13.2603 1.84417 11.8359 1.74483 10 1.74483C8.16412 1.74483 6.73968 1.84417 5.62861 2.0911C4.526 2.33614 3.7782 2.71652 3.24736 3.24736C2.71652 3.7782 2.33614 4.526 2.0911 5.62861ZM9.93793 7.60188C10.7364 7.60188 11.3862 8.24745 11.3862 9.04075V10.9592C11.3862 11.7525 10.7364 12.3981 9.93793 12.3981C9.13945 12.3981 8.48966 11.7525 8.48966 10.9592V9.04075C8.48966 8.24745 9.13945 7.60188 9.93793 7.60188Z" fill="currentColor"/>
</svg>
