<svg width="20" height="20" viewBox="0 0 20 20" fill="none" xmlns="http://www.w3.org/2000/svg">
<path d="M17.2293 18.7435H2.77058C1.74467 18.7435 1 18.0528 1 17.1009V14.0565C1 13.5095 1.25858 12.9841 1.69139 12.6522L6.6358 8.58727C7.39638 8.00166 8.44334 8.10303 9.05975 8.79656L11.139 10.8304C11.1607 10.8559 11.1896 10.8659 11.2256 10.8636L14.8995 7.1159L16.0946 8.28825L12.1887 12.2453C11.4529 12.7314 10.4726 12.6015 9.88977 11.9456L7.81128 9.91121C7.77741 9.87197 7.71924 9.86566 7.67767 9.89696L2.73284 13.9623C2.68822 13.9974 2.67444 14.0259 2.67444 14.0565V17.059C2.6971 17.0639 2.72933 17.0691 2.77068 17.0691H17.2294C17.2706 17.0691 17.3255 17.0644 17.3255 17.059V3.68441C17.3255 3.67904 17.2706 3.67437 17.2297 3.67437H2.77092C2.72957 3.67437 2.67467 3.67904 2.67467 3.68441V8.69747H1.00031V3.64261C1.00031 2.69074 1.74498 2 2.77089 2H17.2297C18.2558 2 19 2.69074 19 3.64261V17.1009C19 18.0528 18.2558 18.7436 17.2298 18.7436L17.2293 18.7435Z" fill="currentColor"/>
</svg>
