<svg width="20" height="20" viewBox="0 0 20 20" fill="none" xmlns="http://www.w3.org/2000/svg">
<path d="M1.74483 10C1.74483 8.16412 1.84417 6.73968 2.0911 5.62861C2.33614 4.526 2.71652 3.7782 3.24736 3.24736C3.7782 2.71652 4.526 2.33614 5.62861 2.0911C6.73968 1.84417 8.16412 1.74483 10 1.74483C11.8359 1.74483 13.2603 1.84417 14.3714 2.0911C15.474 2.33614 16.2218 2.71652 16.7526 3.24736C17.2835 3.7782 17.6639 4.526 17.9089 5.62861C18.1558 6.73968 18.2552 8.16412 18.2552 10C18.2552 10.2783 18.2529 10.5472 18.2482 10.8069H18.9931C18.9978 10.5459 19 10.277 19 10C19 2.5885 17.4115 1 10 1C2.5885 1 1 2.5885 1 10C1 17.4115 2.5885 19 10 19C14.8502 19 17.2066 18.3197 18.2561 15.7724H17.4399C17.2474 16.1654 17.019 16.4863 16.7526 16.7526C16.2218 17.2835 15.474 17.6639 14.3714 17.9089C13.2603 18.1558 11.8359 18.2552 10 18.2552C8.16412 18.2552 6.73968 18.1558 5.62861 17.9089C4.526 17.6639 3.7782 17.2835 3.24736 16.7526C2.71652 16.2218 2.33614 15.474 2.0911 14.3714C1.84417 13.2603 1.74483 11.8359 1.74483 10Z" fill="currentColor"/>
<path fill-rule="evenodd" clip-rule="evenodd" d="M5.84138 5.84138C5.84138 6.03674 5.79625 6.22157 5.71585 6.38599L7.03464 7.45891C7.21113 7.26105 7.40927 7.08146 7.62643 6.92386C8.29524 6.43849 9.10648 6.18936 9.93243 6.21568C10.3497 6.22898 10.7587 6.31219 11.1434 6.45922L12.228 4.01877C12.042 3.8594 11.9241 3.62277 11.9241 3.35862C11.9241 2.8787 12.3132 2.48966 12.7931 2.48966C13.273 2.48966 13.6621 2.8787 13.6621 3.35862C13.6621 3.83854 13.273 4.22759 12.7931 4.22759C12.7554 4.22759 12.7182 4.22518 12.6817 4.22052L11.5944 6.66704C11.8038 6.78103 12.0029 6.9155 12.1887 7.06927C12.8252 7.59623 13.2684 8.31995 13.4484 9.12646C13.5949 9.78253 13.5605 10.4631 13.3531 11.0966L15.7772 12.0435C16.0348 11.6714 16.4648 11.4276 16.9517 11.4276C17.7402 11.4276 18.3793 12.0667 18.3793 12.8552C18.3793 13.6436 17.7402 14.2828 16.9517 14.2828C16.1633 14.2828 15.5241 13.6436 15.5241 12.8552C15.5241 12.731 15.54 12.6105 15.5698 12.4956L12.951 11.4726C12.8916 11.4494 12.8461 11.4058 12.8196 11.3529L12.734 11.3126C13.039 10.6647 13.1199 9.93363 12.9638 9.23466C12.8078 8.53568 12.4237 7.90846 11.872 7.45175C11.3203 6.99505 10.6324 6.7348 9.91661 6.71198C9.20079 6.68917 8.49771 6.90508 7.91808 7.32573C7.73603 7.45785 7.56941 7.6078 7.42028 7.77265L8.4054 8.5741C8.77768 8.19027 9.29891 7.95172 9.87586 7.95172C11.0071 7.95172 11.9241 8.86877 11.9241 10C11.9241 10.9926 11.218 11.8203 10.2807 12.0083L10.5308 14.6589C11.1714 14.708 11.6759 15.2434 11.6759 15.8966C11.6759 16.5821 11.1201 17.1379 10.4345 17.1379C9.74889 17.1379 9.1931 16.5821 9.1931 15.8966C9.1931 15.3497 9.54673 14.8854 10.0378 14.7199L9.93781 13.66C9.23043 13.6836 8.52835 13.5051 7.91541 13.1419C7.44667 12.8642 7.04761 12.4888 6.74309 12.0451L5.18705 12.9787C5.20897 13.0579 5.22069 13.1414 5.22069 13.2276C5.22069 13.7418 4.80385 14.1586 4.28966 14.1586C3.77546 14.1586 3.35862 13.7418 3.35862 13.2276C3.35862 12.7134 3.77546 12.2966 4.28966 12.2966C4.5384 12.2966 4.76436 12.3941 4.93137 12.553L6.49005 11.6178C6.43886 11.5165 6.39216 11.4126 6.35018 11.3063C6.04653 10.5378 6.00713 9.69007 6.23819 8.89666C6.34728 8.52204 6.51375 8.16957 6.72948 7.85077L5.41287 6.77963C5.19509 6.96848 4.91089 7.08276 4.6 7.08276C3.91441 7.08276 3.35862 6.52697 3.35862 5.84138C3.35862 5.15578 3.91441 4.6 4.6 4.6C5.28559 4.6 5.84138 5.15578 5.84138 5.84138ZM7.82759 10C7.82759 11.101 8.69623 11.9991 9.78557 12.0463L9.89107 13.1646C9.28825 13.179 8.69102 13.0243 8.16853 12.7147C7.55238 12.3496 7.07515 11.79 6.81199 11.1239C6.54883 10.4578 6.51469 9.72311 6.71494 9.03549C6.80534 8.72505 6.94121 8.43216 7.11639 8.16554L8.10507 8.96989C7.92865 9.27251 7.82759 9.62445 7.82759 10ZM10.931 10C10.931 10.5828 10.4586 11.0552 9.87586 11.0552C9.29311 11.0552 8.82069 10.5828 8.82069 10C8.82069 9.41724 9.29311 8.94483 9.87586 8.94483C10.4586 8.94483 10.931 9.41724 10.931 10Z" fill="currentColor"/>
</svg>
