<svg width="20" height="20" viewBox="0 0 20 20" fill="none" xmlns="http://www.w3.org/2000/svg">
<path d="M17.5077 12.0779H15.0787V9.52094H17.5077C17.8125 9.52094 18.0597 9.27373 18.0597 8.96892C18.0597 8.66395 17.8125 8.4169 17.5077 8.4169H15.0787V8.15182C15.0809 6.50764 14.353 4.94724 13.0915 3.89261L14.6371 1.89217C14.82 1.6482 14.7707 1.30226 14.5267 1.11926C14.2829 0.936439 13.9368 0.98588 13.7538 1.2297L12.1817 3.27004C10.5293 2.37194 8.53474 2.37194 6.88231 3.27004L5.30575 1.22091C5.12277 0.976934 4.77683 0.927492 4.53284 1.11047C4.28902 1.29345 4.23958 1.63938 4.4224 1.88338L5.96802 3.88381H5.96817C4.70673 4.93856 3.97866 6.4988 3.98083 8.14303V8.40795H1.55186H1.55202C1.24705 8.40795 1 8.65516 1 8.95997C1 9.26494 1.24705 9.51199 1.55202 9.51199H3.98098L3.98083 12.0779H1.55186H1.55202C1.24705 12.0779 1 12.3249 1 12.6299C1 12.9347 1.24705 13.1819 1.55202 13.1819H3.98098V13.4468H3.98083C3.98083 15.4308 5.03928 17.2641 6.75756 18.2561C8.47568 19.248 10.5926 19.248 12.3109 18.2561C14.029 17.264 15.0874 15.4307 15.0874 13.4468V13.1819H17.5164C17.8212 13.1819 18.0684 12.9347 18.0684 12.6299C18.0684 12.3249 17.8212 12.0779 17.5164 12.0779L17.5077 12.0779ZM13.9747 13.4469C13.9747 15.0365 13.1266 16.5053 11.7501 17.3001C10.3735 18.0948 8.67735 18.0948 7.30085 17.3001C5.92435 16.5053 5.07629 15.0365 5.07629 13.4469V8.14747C5.07629 6.55782 5.92435 5.08905 7.30085 4.29427C8.67751 3.49952 10.3736 3.49952 11.7501 4.29427C13.1266 5.08901 13.9747 6.55778 13.9747 8.14747V13.4469Z" fill="currentColor"/>
<path d="M8.35538 5.49121H7.57155C7.26658 5.49121 7.01953 5.73826 7.01953 6.04323C7.01953 6.34804 7.26658 6.59525 7.57155 6.59525H8.35538C8.66019 6.59525 8.9074 6.34804 8.9074 6.04323C8.9074 5.73826 8.66019 5.49121 8.35538 5.49121Z" fill="currentColor"/>
<path d="M11.4931 5.49121H10.7092C10.4044 5.49121 10.1572 5.73826 10.1572 6.04323C10.1572 6.34804 10.4044 6.59525 10.7092 6.59525H11.4931C11.798 6.59525 12.0451 6.34804 12.0451 6.04323C12.0451 5.73826 11.798 5.49121 11.4931 5.49121Z" fill="currentColor"/>
</svg>
