<svg width="20" height="20" viewBox="0 0 20 20" fill="none" xmlns="http://www.w3.org/2000/svg">
<g clip-path="url(#clip0_104_65)">
<path d="M6.99993 6.99993V4.20016C6.99993 3.08007 6.99993 2.5196 7.21791 2.09178C7.40966 1.71546 7.71539 1.40973 8.09171 1.21798C8.51953 1 9.07999 1 10.2001 1H15.8C16.9201 1 17.4799 1 17.9077 1.21798C18.284 1.40973 18.5903 1.71546 18.782 2.09178C19 2.5196 19 3.07965 19 4.19974V9.7997C19 10.9198 19 11.4798 18.782 11.9077C18.5903 12.284 18.2837 12.5903 17.9074 12.7821C17.48 12.9999 16.9208 12.9999 15.8029 12.9999H12.9999M6.99993 6.99993H4.20016C3.08007 6.99993 2.5196 6.99993 2.09178 7.21791C1.71546 7.40966 1.40973 7.71539 1.21798 8.09171C1 8.51953 1 9.07999 1 10.2001V15.8C1 16.9201 1 17.4799 1.21798 17.9077C1.40973 18.284 1.71546 18.5903 2.09178 18.782C2.51918 18.9998 3.07897 18.9998 4.19687 18.9998H9.80345C10.9213 18.9998 11.4804 18.9998 11.9078 18.782C12.2841 18.5903 12.5903 18.2837 12.7821 17.9074C12.9999 17.48 12.9999 16.9208 12.9999 15.8029V12.9999M6.99993 6.99993H9.80009C10.9202 6.99993 11.4799 6.99993 11.9078 7.21791C12.2841 7.40966 12.5903 7.71539 12.7821 8.09171C12.9999 8.51912 12.9999 9.07891 12.9999 10.1968L12.9999 12.9999" stroke="currentColor" stroke-width="2" stroke-linecap="round" stroke-linejoin="round"/>
</g>
<defs>
<clipPath id="clip0_104_65">
<rect width="20" height="20" fill="white"/>
</clipPath>
</defs>
</svg>
