<svg width="20" height="20" viewBox="0 0 20 20" fill="none" xmlns="http://www.w3.org/2000/svg">
<path d="M1 18H7.94328M7.94328 18H8.05672M7.94328 18C7.96217 18.0002 7.98107 18.0002 8 18.0002C8.01893 18.0002 8.03783 18.0002 8.05672 18M7.94328 18C4.1034 17.9695 1 14.8468 1 10.9998V6.92285C1 6.41305 1.41305 6 1.92285 6H14.0767C14.5865 6 15 6.41305 15 6.92285V7M8.05672 18H15M8.05672 18C11.8966 17.9695 15 14.8468 15 10.9998M15 7H16.5C17.8807 7 19 8.11929 19 9.5C19 10.8807 17.8807 12 16.5 12H15V10.9998M15 7V10.9998M12 1L11 3M9 1L8 3M6 1L5 3" stroke="currentColor" stroke-width="2" stroke-linecap="round" stroke-linejoin="round"/>
</svg>
