<svg width="30" height="31" viewBox="0 0 30 31" fill="none" xmlns="http://www.w3.org/2000/svg">
<path d="M0.5 15.7124C0.5 12.6357 0.66551 10.1974 1.09477 8.26593C1.52277 6.3401 2.2063 4.94885 3.22137 3.93378C4.23644 2.91871 5.62769 2.23519 7.55351 1.80719C9.48502 1.37793 11.9233 1.21242 15 1.21242C18.0767 1.21242 20.515 1.37793 22.4465 1.80719C24.3723 2.23519 25.7636 2.91871 26.7786 3.93378C27.7937 4.94885 28.4772 6.3401 28.9052 8.26593C29.3345 10.1974 29.5 12.6357 29.5 15.7124C29.5 18.7891 29.3345 21.2274 28.9052 23.1589C28.4772 25.0847 27.7937 26.476 26.7786 27.4911C25.7636 28.5061 24.3723 29.1896 22.4465 29.6176C20.515 30.0469 18.0767 30.2124 15 30.2124C11.9233 30.2124 9.48502 30.0469 7.55351 29.6176C5.62769 29.1896 4.23644 28.5061 3.22137 27.4911C2.2063 26.476 1.52277 25.0847 1.09477 23.1589C0.66551 21.2274 0.5 18.7891 0.5 15.7124Z" fill="#191919" stroke="white"/>
<path fill-rule="evenodd" clip-rule="evenodd" d="M5.01939 10.2313C4.70532 11.6445 4.57896 13.4563 4.57896 15.7914C4.57896 18.1265 4.70532 19.9383 5.01939 21.3515C5.33107 22.7539 5.81488 23.7051 6.49008 24.3803C7.16527 25.0554 8.11642 25.5393 9.51886 25.8509C10.9321 26.165 12.7439 26.2914 15.079 26.2914C17.4141 26.2914 19.2259 26.165 20.6391 25.8509C22.0415 25.5393 22.9927 25.0554 23.6678 24.3803C24.1394 23.9087 24.5177 23.3025 24.8091 22.5019H14.386C11.6775 22.5019 9.4737 20.3124 9.4737 17.6215V13.9612C9.4737 11.2703 11.6775 9.08084 14.386 9.08084H15.614C18.3226 9.08084 20.5263 11.2703 20.5263 13.9612V18.2316C20.5263 19.2406 19.6998 20.0617 18.6842 20.0617C18.0278 20.0617 17.4548 19.7163 17.1287 19.2014C16.5761 19.7316 15.8271 20.0617 15 20.0617C13.3071 20.0617 11.9298 18.6934 11.9298 17.0115V14.5713C11.9298 12.8894 13.3071 11.521 15 11.521C16.6929 11.521 18.0702 12.8894 18.0702 14.5713V18.2316C18.0702 18.5677 18.3453 18.8416 18.6842 18.8416C19.0232 18.8416 19.2983 18.5677 19.2983 18.2316V13.9612C19.2983 11.9426 17.6459 10.3009 15.614 10.3009H14.386C12.3541 10.3009 10.7018 11.9426 10.7018 13.9612V17.6215C10.7018 19.6402 12.3541 21.2818 14.386 21.2818H25.1538C25.1569 21.2675 25.16 21.2531 25.163 21.2387H26.1299C25.1843 26.0495 22.3114 27.2387 15.079 27.2387C5.65205 27.2387 3.63159 25.2183 3.63159 15.7914C3.63159 6.36446 5.65205 4.344 15.079 4.344C24.5059 4.344 26.5263 6.36446 26.5263 15.7914C26.5263 17.1171 26.4864 18.2963 26.3915 19.344H25.4401C25.5366 18.319 25.579 17.1428 25.579 15.7914C25.579 13.4563 25.4526 11.6445 25.1385 10.2313C24.8269 8.82883 24.343 7.87768 23.6678 7.20248C22.9927 6.52729 22.0415 6.04348 20.6391 5.7318C19.2259 5.41772 17.4141 5.29137 15.079 5.29137C12.7439 5.29137 10.9321 5.41772 9.51886 5.7318C8.11642 6.04348 7.16527 6.52729 6.49008 7.20248C5.81488 7.87768 5.33107 8.82883 5.01939 10.2313ZM15 12.7411C16.0156 12.7411 16.8421 13.5623 16.8421 14.5713V17.0115C16.8421 18.0205 16.0156 18.8416 15 18.8416C13.9844 18.8416 13.1579 18.0205 13.1579 17.0115V14.5713C13.1579 13.5623 13.9844 12.7411 15 12.7411Z" fill="#EDEDED"/>
</svg>
