<svg width="17" height="20" viewBox="0 0 17 20" fill="none" xmlns="http://www.w3.org/2000/svg">
<path d="M16.1566 7.47807C16.0437 5.73037 15.2728 4.09026 13.9993 2.8885C12.7257 1.68648 11.044 1.01164 9.29265 1H9.2724C8.06114 1 6.87115 1.31902 5.82227 1.9249C4.77346 2.5308 3.90264 3.40227 3.2975 4.45157C2.69252 5.50088 2.37437 6.69112 2.37542 7.90236C2.37863 8.27584 2.30291 8.64572 2.15313 8.98794L1.08959 11.3757C0.971978 11.637 0.970056 11.9358 1.08447 12.1984C1.19888 12.4611 1.41885 12.6632 1.69023 12.7551L2.37721 12.9829V15.0988C2.37772 15.5265 2.54774 15.9366 2.84997 16.2393C3.15221 16.5419 3.5622 16.7123 3.98987 16.7133H6.13706L6.56128 18.1975C6.62624 18.4274 6.76423 18.6301 6.95435 18.7749C7.14448 18.9197 7.37663 18.9987 7.61557 19C7.71807 19.0001 7.82006 18.9859 7.91871 18.9578L14.5917 17.0495C14.8709 16.9686 15.1067 16.7809 15.2482 16.527C15.3895 16.2732 15.425 15.9738 15.3466 15.6939L14.4282 12.4833V12.4832C15.0322 11.8049 15.4956 11.0137 15.7919 10.1552C16.0883 9.29683 16.2117 8.3882 16.1547 7.48173L16.1566 7.47807ZM13.5852 12.0424H13.5851C13.4729 12.1594 13.431 12.3271 13.4749 12.4831L14.4594 15.9398C14.4741 15.9875 14.4686 16.0392 14.4444 16.0828C14.4202 16.1265 14.3792 16.1584 14.3309 16.1712L7.66351 18.0814C7.61572 18.0961 7.56409 18.0906 7.5204 18.0664C7.47671 18.0422 7.44481 18.0012 7.43212 17.9529L6.92885 16.1308C6.87235 15.9352 6.69337 15.8004 6.48977 15.8002H3.99C3.80396 15.8002 3.6255 15.7262 3.49391 15.5947C3.36232 15.4631 3.28841 15.2846 3.28841 15.0986V12.6484C3.28802 12.4512 3.16144 12.2766 2.97425 12.2148L1.96952 11.8843C1.94261 11.8748 1.92083 11.8547 1.9093 11.8285C1.89777 11.8024 1.89765 11.7727 1.90892 11.7465L2.97246 9.35873C3.17771 8.89994 3.28354 8.40294 3.2829 7.90032C3.28315 6.84948 3.56015 5.81719 4.08608 4.90741C4.61201 3.99763 5.36819 3.24234 6.27863 2.71755C7.18907 2.19277 8.22158 1.91706 9.27243 1.91808H9.28896C10.8591 1.92243 12.3646 2.54382 13.4807 3.64836C14.5966 4.7529 15.2336 6.25178 15.2542 7.82171C15.2749 9.3917 14.6773 10.9068 13.5907 12.0403L13.5852 12.0424Z" fill="currentColor"/>
<path d="M12.0311 4.83512C11.0246 3.93174 9.63783 3.58171 8.32321 3.89946C7.00856 4.21708 5.93465 5.16157 5.45162 6.42486C4.96872 7.68828 5.13862 9.10835 5.90605 10.222C6.67349 11.3357 7.94012 12.0001 9.29255 11.9985H9.41927C9.67295 11.9985 9.87845 11.7929 9.87845 11.5393C9.87845 11.2857 9.67295 11.0802 9.41927 11.0802H9.29255C8.44477 11.0805 7.63158 10.744 7.03211 10.1446C6.43277 9.54516 6.09619 8.73198 6.09658 7.88419C6.0971 7.0364 6.43458 6.2236 7.0348 5.62489C7.63492 5.02605 8.4485 4.69051 9.29626 4.69192C10.144 4.69333 10.9564 5.03182 11.5545 5.6326C12.1526 6.23348 12.4873 7.04745 12.4848 7.89521V8.73644C12.4848 8.94707 12.3725 9.14167 12.19 9.24699C12.0076 9.3523 11.7828 9.3523 11.6004 9.24699C11.4179 9.14167 11.3056 8.94706 11.3056 8.73644V7.89521C11.307 7.27806 11.0264 6.6942 10.5435 6.30983C10.0608 5.92546 9.42888 5.78288 8.82774 5.92264C8.22673 6.06229 7.72244 6.46907 7.45864 7.02692C7.19497 7.58476 7.20061 8.23268 7.47402 8.7859C7.74743 9.33899 8.25877 9.73694 8.86207 9.86623C9.46551 9.99538 10.0949 9.84176 10.571 9.44906C10.7835 9.84573 11.1626 10.1262 11.6041 10.2134C12.0456 10.3006 12.5029 10.1853 12.8504 9.89929C13.1977 9.61319 13.3986 9.18644 13.3977 8.73647V7.89524C13.3973 6.72743 12.9005 5.61495 12.0312 4.83519L12.0311 4.83512ZM9.29255 8.99535C9.00031 8.99535 8.71998 8.87927 8.51331 8.67262C8.30665 8.46596 8.19045 8.18562 8.19045 7.89338C8.19045 7.601 8.30665 7.32067 8.51331 7.11401C8.71997 6.90735 9.00031 6.79127 9.29255 6.79127C9.58479 6.79127 9.86513 6.90735 10.0718 7.11401C10.2785 7.32067 10.3947 7.60101 10.3947 7.89338C10.3947 8.18562 10.2785 8.46595 10.0718 8.67262C9.86513 8.87928 9.58479 8.99535 9.29255 8.99535Z" fill="currentColor"/>
</svg>
