<svg width="20" height="20" viewBox="0 0 20 20" fill="none" xmlns="http://www.w3.org/2000/svg">
<path d="M16.8461 3.76923C16.8461 5.29863 13.7465 6.53846 9.92307 6.53846C6.09964 6.53846 3 5.29863 3 3.76923C3 2.23982 6.09964 1 9.92307 1C13.7465 1 16.8461 2.23982 16.8461 3.76923Z" fill="currentColor"/>
<path d="M16.0747 6.6769C14.4533 7.5216 12.1425 7.92306 9.92305 7.92306C7.70363 7.92306 5.39259 7.5216 3.77141 6.6769C3.29498 7.0535 3.00014 7.47306 3.00014 7.92306C3.00014 9.4531 6.10021 10.6923 9.92321 10.6923C13.7462 10.6923 16.8463 9.4531 16.8463 7.92306C16.8463 7.47306 16.5511 7.05352 16.0747 6.6769Z" fill="currentColor"/>
<path d="M16.0747 10.8308C14.4533 11.6755 12.1425 12.077 9.92305 12.077C7.70363 12.077 5.39259 11.6755 3.77141 10.8308C3.29498 11.2074 3.00014 11.627 3.00014 12.077C3.00014 13.607 6.10021 14.8462 9.92321 14.8462C13.7462 14.8462 16.8463 13.607 16.8463 12.077C16.8463 11.627 16.5511 11.2074 16.0747 10.8308Z" fill="currentColor"/>
<path d="M16.0747 14.9846C14.4533 15.8293 12.1425 16.2308 9.92305 16.2308C7.70363 16.2308 5.39259 15.8293 3.77141 14.9846C3.29498 15.3612 3.00014 15.7808 3.00014 16.2308C3.00014 17.7608 6.10021 19 9.92321 19C13.7462 19 16.8463 17.7608 16.8463 16.2308C16.8463 15.7808 16.5511 15.3612 16.0747 14.9846Z" fill="currentColor"/>
</svg>
