<svg width="20" height="20" viewBox="0 0 20 20" fill="none" xmlns="http://www.w3.org/2000/svg">
<path d="M12.7069 3.15385C12.7069 2.52467 13.2237 2 13.8793 2H16.8276C17.4832 2 18 2.52467 18 3.15385V5.92308C18 6.55225 17.4832 7.07692 16.8276 7.07692H13.8793C13.2237 7.07692 12.7069 6.55225 12.7069 5.92308V3.15385ZM2 3.15385C2 2.52467 2.5168 2 3.17241 2H6.12069C6.77631 2 7.2931 2.52467 7.2931 3.15385V5.92308C7.2931 6.55225 6.77631 7.07692 6.12069 7.07692H3.17241C2.5168 7.07692 2 6.55225 2 5.92308V3.15385ZM2 13.9231C2 13.2939 2.5168 12.7692 3.17241 12.7692H6.12069C6.77631 12.7692 7.2931 13.2939 7.2931 13.9231V16.8462C7.2931 17.4753 6.77631 18 6.12069 18H3.17241C2.5168 18 2 17.4753 2 16.8462V13.9231ZM12.7069 15.3846C12.7069 13.9483 13.8837 12.7692 15.3534 12.7692C16.8232 12.7692 18 13.9483 18 15.3846C18 16.821 16.8232 18 15.3534 18C13.8837 18 12.7069 16.821 12.7069 15.3846Z" stroke="currentColor" stroke-width="2"/>
</svg>
