<svg width="73" height="80" viewBox="0 0 73 80" fill="none" xmlns="http://www.w3.org/2000/svg">
<path d="M39.1851 30.981C40.6165 30.981 41.7768 32.1369 41.7768 33.5627V37.5675C41.7768 43.7356 40.8121 49.8659 38.9173 55.7383L32.0174 77.1214C31.5794 78.4789 30.1196 79.2255 28.7569 78.7892C27.3942 78.3529 26.6445 76.8988 27.0825 75.5414L33.9824 54.1583C35.7125 48.7966 36.5933 43.1992 36.5933 37.5675V33.5627C36.5933 32.1369 37.7537 30.981 39.1851 30.981Z" fill="currentColor"/>
<path d="M28.8181 33.5628C28.8181 27.8594 33.4596 23.2358 39.1851 23.2358C44.9106 23.2358 49.5519 27.8594 49.5519 33.5628C49.5519 34.9887 48.3918 36.1446 46.9603 36.1446C45.529 36.1446 44.3686 34.9887 44.3686 33.5628C44.3686 30.7111 42.0479 28.3993 39.1851 28.3993C36.3223 28.3993 34.0016 30.7111 34.0016 33.5628V35.2789C34.0016 37.3871 33.8889 39.4911 33.6648 41.5821C33.5128 42.9999 32.2359 44.0266 30.8126 43.8752C29.3893 43.7238 28.3586 42.4518 28.5106 41.034C28.7152 39.1249 28.8181 37.2038 28.8181 35.2789V33.5628ZM47.0083 38.7272C48.4392 38.7641 49.569 39.9496 49.5322 41.375C49.3798 47.2364 48.3563 53.0457 46.4931 58.614L39.9276 78.2342C39.475 79.5871 38.0072 80.3177 36.6493 79.8669C35.2914 79.4162 34.5575 77.9539 35.0101 76.6016L41.5756 56.9808C43.2767 51.8973 44.2111 46.5929 44.3503 41.2411C44.3874 39.8158 45.5774 38.6902 47.0083 38.7272ZM29.6159 49.6481C30.9829 50.0705 31.7472 51.5173 31.323 52.8789L24.5692 74.5573C24.145 75.9189 22.6928 76.6806 21.3257 76.2577C19.9587 75.8353 19.1944 74.3885 19.6186 73.0269L26.3724 51.3485C26.7966 49.9869 28.2488 49.2252 29.6159 49.6481Z" fill="currentColor"/>
<path d="M22.0769 27.5386C24.5663 20.5229 31.2829 15.4902 39.1862 15.4902C49.2059 15.4902 57.3286 23.5814 57.3286 33.5624C57.3286 34.9883 56.168 36.1442 54.7369 36.1442C53.3052 36.1442 52.1451 34.9883 52.1451 33.5624C52.1451 26.4332 46.3432 20.6537 39.1862 20.6537C33.5479 20.6537 28.7444 24.2421 26.9641 29.2593C26.4872 30.6037 25.0064 31.3083 23.6569 30.8331C22.3073 30.358 21.5999 28.8829 22.0769 27.5386ZM23.6351 36.1566C25.0596 36.2961 26.1008 37.5596 25.9608 38.9785C25.6103 42.5294 24.9156 46.0425 23.884 49.4681L17.5518 70.4938C17.1405 71.8595 15.6957 72.6346 14.3246 72.2246C12.9536 71.8151 12.1756 70.3755 12.5869 69.0098L18.919 47.9844C19.8545 44.8783 20.4844 41.693 20.8021 38.4733C20.9422 37.0543 22.2106 36.0171 23.6351 36.1566ZM54.7369 39.5005C56.168 39.5005 57.3286 40.6564 57.3286 42.0822C57.3286 48.6935 56.2199 55.2584 54.049 61.5062L48.4047 77.749C47.9365 79.0962 46.4604 79.8108 45.1078 79.344C43.7551 78.8777 43.0382 77.4072 43.5064 76.06L49.1507 59.8172C51.1328 54.1126 52.1451 48.1186 52.1451 42.0822C52.1451 40.6564 53.3052 39.5005 54.7369 39.5005Z" fill="currentColor"/>
<path d="M17.6342 19.2177C22.2792 12.3053 30.1974 7.74512 39.1858 7.74512C41.0401 7.74512 42.8518 7.93952 44.6004 8.3099C46.0004 8.60649 46.8941 9.97755 46.5963 11.3722C46.2986 12.7669 44.9223 13.6571 43.5222 13.3605C42.1259 13.0647 40.6756 12.9086 39.1858 12.9086C31.9995 12.9086 25.6656 16.5482 21.9417 22.09C21.1455 23.2749 19.5357 23.5924 18.3462 22.7993C17.1568 22.0062 16.8379 20.4026 17.6342 19.2177ZM52.4673 14.2857C53.4029 13.2067 55.0394 13.0878 56.1227 14.02C61.6188 18.7503 65.1032 25.7525 65.1032 33.5626V41.3078C65.1032 42.7336 63.9431 43.8895 62.5114 43.8895C61.0802 43.8895 59.9196 42.7336 59.9196 41.3078V33.5626C59.9196 27.3155 57.1387 21.7184 52.7338 17.9271C51.6509 16.9949 51.5312 15.3646 52.4673 14.2857ZM16.4899 27.5855C17.9059 27.7937 18.8844 29.1061 18.6753 30.5166C18.5282 31.5092 18.4518 32.5262 18.4518 33.5626C18.4518 37.2312 17.9306 40.8814 16.9038 44.4046L11 64.6612C10.6009 66.0306 9.16307 66.8185 7.7884 66.4209C6.41379 66.0233 5.62294 64.591 6.02202 63.2216L11.9258 42.965C12.8163 39.9096 13.2683 36.7441 13.2683 33.5626C13.2683 32.273 13.3634 31.0039 13.5474 29.7624C13.7565 28.3518 15.0739 27.3772 16.4899 27.5855ZM62.5285 46.4803C63.955 46.5995 65.0145 47.848 64.8948 49.2689C64.4594 54.4339 63.347 59.5272 61.5794 64.4175L57.7187 75.1002C57.2341 76.4417 55.749 77.1378 54.4023 76.655C53.0557 76.1717 52.3569 74.6928 52.8416 73.3514L56.7022 62.6686C58.3159 58.2032 59.3318 53.553 59.7294 48.8372C59.8492 47.4163 61.102 46.3611 62.5285 46.4803Z" fill="currentColor"/>
<path d="M22.3368 4.49162C27.2952 1.63446 33.0525 0 39.1851 0C57.7931 0 72.8776 15.0265 72.8776 33.5627C72.8776 34.9885 71.7175 36.1444 70.2858 36.1444C68.8547 36.1444 67.6941 34.9885 67.6941 33.5627C67.6941 17.8782 54.9302 5.16349 39.1851 5.16349C33.988 5.16349 29.123 6.54638 24.9324 8.96119C23.6933 9.67514 22.1079 9.25339 21.3911 8.01916C20.6744 6.78493 21.0978 5.20562 22.3368 4.49162ZM17.7318 10.985C18.7984 11.9359 18.8891 13.5681 17.9345 14.6305C13.4187 19.6566 10.6758 26.2875 10.6758 33.5627C10.6758 34.9885 9.51542 36.1444 8.08405 36.1444C6.65262 36.1444 5.4923 34.9885 5.4923 33.5627C5.4923 24.9683 8.73852 17.1231 14.0721 11.1869C15.0267 10.1245 16.6652 10.0341 17.7318 10.985ZM7.32788 38.8226C8.70581 39.2087 9.50868 40.6343 9.12111 42.0069L5.08736 56.2939C4.69984 57.6664 3.26863 58.4662 1.89071 58.08C0.512784 57.6943 -0.290079 56.2686 0.0974607 54.8956L4.13121 40.6089C4.51873 39.2363 5.94995 38.4366 7.32788 38.8226ZM70.3071 41.3084C71.7383 41.3363 72.8755 42.5146 72.8475 43.9402C72.6951 51.6809 72.0145 59.5593 69.0822 67.3484L68.7199 68.3114C68.2176 69.6462 66.7237 70.3226 65.3833 69.8223C64.0428 69.3214 63.3638 67.8333 63.8666 66.498L64.2289 65.5355C66.8523 58.5669 67.5168 51.3824 67.6651 43.8391C67.6931 42.4135 68.8759 41.2805 70.3071 41.3084Z" fill="currentColor"/>
</svg>
