<svg width="20" height="20" viewBox="0 0 20 20" fill="none" xmlns="http://www.w3.org/2000/svg">
<path d="M6.76747 8.32527V13.3486C6.76747 14.913 7.6097 16.372 8.96599 17.1562C9.26607 17.3299 9.36825 17.7142 9.19487 18.0143C9.07798 18.2154 8.86704 18.3278 8.65034 18.3278C8.54397 18.3278 8.43604 18.3009 8.33639 18.2436C6.59406 17.2356 5.51161 15.36 5.51161 13.3487V8.32544C5.51161 7.97868 5.79277 7.69752 6.13952 7.69752C6.48627 7.69752 6.76743 7.97868 6.76743 8.32544L6.76747 8.32527ZM10.7965 3.53376C9.09749 3.37146 7.48932 4.08446 6.47468 5.4367C6.26627 5.71393 6.32261 6.10749 6.59971 6.31563C6.87694 6.52489 7.27093 6.46728 7.47864 6.19061C8.22919 5.19072 9.43106 4.66819 10.6771 4.78397C12.475 4.95567 13.8836 6.59007 13.8836 8.50516V12.0928C13.8836 12.4396 14.1648 12.7207 14.5115 12.7207C14.8583 12.7207 15.1395 12.4396 15.1395 12.0928V8.50516C15.1395 5.94977 13.232 3.76604 10.7965 3.53389L10.7965 3.53376ZM3.62791 11.9424C3.97466 11.9424 4.25582 11.6612 4.25582 11.3145V8.55477C4.25582 5.23566 6.74379 2.47442 9.91995 2.26846C11.1342 2.1925 12.322 2.46595 13.3596 3.06681C13.6605 3.24215 14.0448 3.13829 14.2181 2.83835C14.3913 2.53785 14.2893 2.15396 13.9892 1.9803C12.735 1.25429 11.3026 0.922643 9.83922 1.01518C6.00465 1.26354 3 4.57537 3 8.55443V11.3142C3 11.6609 3.28116 11.9421 3.62791 11.9421L3.62791 11.9424ZM16.3953 8.32527V12.5115C16.3953 13.5502 15.5499 14.3952 14.5116 14.3952C13.4733 14.3952 12.6279 13.5502 12.6279 12.5115V8.41497C12.6279 7.24663 11.8022 6.23199 10.7074 6.05413C10.0296 5.94341 9.34941 6.13304 8.83434 6.57132C8.31928 7.00989 8.02326 7.64928 8.02326 8.32542V11.6742C8.02326 15.7137 11.3091 19 15.349 19C15.6958 19 15.9769 18.7188 15.9769 18.3721C15.9769 18.0253 15.6958 17.7442 15.349 17.7442C12.0019 17.7442 9.27909 15.0212 9.27909 11.6742V8.32542C9.27909 8.01805 9.41392 7.72736 9.64783 7.52789C9.88498 7.32593 10.1825 7.24169 10.5063 7.29369C11.0001 7.37386 11.3722 7.85573 11.3722 8.41511V12.5116C11.3722 14.2429 12.781 15.6512 14.5118 15.6512C16.2426 15.6512 17.6513 14.2429 17.6513 12.5116V8.3254C17.6513 7.03761 17.312 5.77127 16.6711 4.66234C16.4962 4.36226 16.1151 4.25883 15.8126 4.43304C15.5125 4.6067 15.4103 4.99102 15.5837 5.29109C16.1152 6.20928 16.3955 7.25865 16.3955 8.32553L16.3953 8.32527Z" fill="currentColor"/>
</svg>
