<svg width="20" height="20" viewBox="0 0 20 20" fill="none" xmlns="http://www.w3.org/2000/svg">
<path d="M3.32246 17.2581H3.90311V17.8388H3.32246V17.2581Z" fill="currentColor"/>
<path d="M2.16116 17.2581H2.7418V17.8388H2.16116V17.2581Z" fill="currentColor"/>
<path d="M7.38698 13.1936H7.96763V13.7742H7.38698V13.1936Z" fill="currentColor"/>
<path d="M8.54829 13.1936H9.12893V13.7742H8.54829V13.1936Z" fill="currentColor"/>
<path d="M3.32246 9.12906H3.90311V9.70971H3.32246V9.12906Z" fill="currentColor"/>
<path d="M2.16116 9.12906H2.7418V9.70971H2.16116V9.12906Z" fill="currentColor"/>
<path d="M18.9999 8.54841V5.64518H17.258V3.28138C17.7576 3.15164 18.129 2.70073 18.129 2.16129C18.129 1.52089 17.6081 1 16.9677 1C16.428 1 15.9773 1.37158 15.8476 1.87097H11.1201C10.9904 1.37158 10.5397 1 10 1C9.46033 1 9.00968 1.37158 8.87995 1.87097H5.89429C5.76455 1.37158 5.31391 1 4.77421 1C4.1338 1 3.61291 1.52089 3.61291 2.16129C3.61291 2.70073 3.98423 3.15165 4.48388 3.28138V7.9677H1.87097C1.39076 7.9677 1 8.35846 1 8.83867V9.99997C1 10.4802 1.39076 10.8709 1.87097 10.8709V12.0322C1.39076 12.0322 1 12.423 1 12.9032V14.0645C1 14.5447 1.39076 14.9355 1.87097 14.9355V16.0968C1.39076 16.0968 1 16.4875 1 16.9677V18.129C1 18.6092 1.39076 19 1.87097 19H9.41939C9.8996 19 10.2904 18.6092 10.2904 18.129V16.9677C10.2904 16.4875 9.8996 16.0968 9.41939 16.0968V14.9355C9.8996 14.9355 10.2904 14.5447 10.2904 14.0645V12.9032C10.2904 12.8011 10.2695 12.704 10.237 12.6129H11.0969L11.3039 11.7994C11.3962 11.7648 11.4891 11.7263 11.5814 11.6833L12.304 12.113L13.8548 10.5621L13.4255 9.83951C13.4681 9.74749 13.507 9.65456 13.5416 9.56202L14.3549 9.35451V7.16116L13.5415 6.95417C13.5069 6.8615 13.468 6.7687 13.4253 6.67629L13.8547 5.95373L12.3038 4.40284L11.5813 4.83249C11.4892 4.78984 11.3961 4.75097 11.3038 4.71636L11.0965 3.90319H8.90317L8.69618 4.71662C8.6039 4.75123 8.51071 4.78972 8.41869 4.83275L7.69613 4.40311L6.14524 5.954L6.57462 6.67656C6.53198 6.76884 6.4931 6.86151 6.45849 6.95444L5.64519 7.16155V7.96772H5.06454V3.2814C5.47073 3.17577 5.78866 2.85783 5.8943 2.45164H8.87995C9.0097 2.95103 9.46034 3.32261 10 3.32261C10.5397 3.32261 10.9904 2.95103 11.1201 2.45164H15.8476C15.9532 2.85783 16.2712 3.17576 16.6774 3.2814V5.6452H14.9354V8.54844H16.6774V9.70973H14.9354V12.613H16.6774V13.7743H14.9354V16.6775H18.9999V13.7743H17.258V12.613H18.9999V9.70973H17.258V8.54844L18.9999 8.54841ZM1.58051 10V8.83874C1.58051 8.6788 1.71064 8.54841 1.87084 8.54841H9.41925C9.57945 8.54841 9.70958 8.6788 9.70958 8.83874V10C9.70958 10.16 9.57945 10.2904 9.41925 10.2904H1.87084C1.71064 10.2904 1.58051 10.16 1.58051 10ZM9.41925 7.96777H9.18233C9.30248 7.63066 9.62183 7.38712 9.99992 7.38712C10.4801 7.38712 10.8709 7.77788 10.8709 8.25809C10.8709 8.63604 10.6274 8.9554 10.2902 9.07568V8.83875C10.2902 8.35854 9.89947 7.96777 9.41925 7.96777ZM10.2902 10V9.68042C10.9519 9.54537 11.4515 8.95929 11.4515 8.2581C11.4515 7.45763 10.8004 6.80648 9.9999 6.80648C9.29911 6.80648 8.71262 7.30613 8.57758 7.96777H7.99083C8.13249 6.98442 8.97819 6.22583 9.9999 6.22583C11.1203 6.22583 12.0322 7.13751 12.0322 8.2581C12.0322 9.29693 11.2483 10.1545 10.2417 10.2747C10.2708 10.1878 10.2902 10.0965 10.2902 10ZM2.45149 10.871H8.83861V12.0323H2.45149V10.871ZM9.70958 16.9678V18.1291C9.70958 18.289 9.57945 18.4194 9.41925 18.4194H1.87084C1.71064 18.4194 1.58051 18.289 1.58051 18.1291V16.9678C1.58051 16.8079 1.71064 16.6775 1.87084 16.6775H9.41925C9.57945 16.6775 9.70958 16.8079 9.70958 16.9678ZM8.83861 16.0968H2.45149V14.9355H8.83861V16.0968ZM9.70958 12.9033V14.0646C9.70958 14.2245 9.57945 14.3549 9.41925 14.3549H1.87084C1.71064 14.3549 1.58051 14.2245 1.58051 14.0646V12.9033C1.58051 12.7433 1.71064 12.6129 1.87084 12.6129H9.41925C9.57945 12.6129 9.70958 12.7433 9.70958 12.9033ZM6.22569 7.61274L6.90913 7.43881L6.95787 7.28548C7.00984 7.12347 7.07866 6.95886 7.16252 6.79684L7.23653 6.65375L6.8748 6.0455L7.78725 5.13305L8.3955 5.49478L8.53833 5.42103C8.70086 5.33718 8.8652 5.26861 9.02787 5.21664L9.18119 5.16751L9.35448 4.48394H10.645L10.8187 5.16738L10.972 5.21651C11.1345 5.26848 11.2989 5.33704 11.4616 5.4209L11.6044 5.49465L12.2126 5.13292L13.1251 6.04537L12.7634 6.65362L12.8374 6.79671C12.9212 6.95898 12.99 7.12332 13.042 7.28535L13.0907 7.43867L13.7742 7.61274V8.90327L13.0907 9.07721L13.042 9.23053C12.99 9.3928 12.9212 9.55715 12.8376 9.71917L12.7634 9.86226L13.1251 10.4708L12.2126 11.3832L11.6046 11.0217L11.4616 11.0952C11.2984 11.1795 11.1338 11.2479 10.972 11.2996L10.8187 11.3487L10.6454 12.0324H9.41931V10.8711H9.99996C11.4408 10.8711 12.6129 9.6988 12.6129 8.2582C12.6129 6.8176 11.4408 5.64528 9.99996 5.64528C8.6572 5.64528 7.54906 6.66351 7.40417 7.96787H6.22575L6.22569 7.61274ZM4.77408 2.74194C4.45381 2.74194 4.19343 2.48156 4.19343 2.16129C4.19343 1.84103 4.45381 1.58065 4.77408 1.58065C5.09434 1.58065 5.35472 1.84103 5.35472 2.16129C5.35472 2.48156 5.09434 2.74194 4.77408 2.74194ZM9.9999 2.74194C9.67964 2.74194 9.41925 2.48156 9.41925 2.16129C9.41925 1.84103 9.67964 1.58065 9.9999 1.58065C10.3202 1.58065 10.5805 1.84103 10.5805 2.16129C10.5805 2.48156 10.3202 2.74194 9.9999 2.74194ZM16.387 2.16129C16.387 1.84103 16.6474 1.58065 16.9677 1.58065C17.2879 1.58065 17.5483 1.84103 17.5483 2.16129C17.5483 2.48156 17.2879 2.74194 16.9677 2.74194C16.6474 2.74194 16.387 2.48156 16.387 2.16129ZM18.4193 16.0968H15.5161V14.3549H18.4193V16.0968ZM18.4193 12.0323H15.5161V10.2904H18.4193V12.0323ZM15.5161 6.22583H18.4193V7.96777H15.5161V6.22583Z" fill="currentColor"/>
<path d="M17.258 6.80648H17.8386V7.38712H17.258V6.80648Z" fill="currentColor"/>
<path d="M16.0967 6.80648H16.6774V7.38712H16.0967V6.80648Z" fill="currentColor"/>
<path d="M16.0967 10.871H16.6774V11.4516H16.0967V10.871Z" fill="currentColor"/>
<path d="M17.258 10.871H17.8386V11.4516H17.258V10.871Z" fill="currentColor"/>
<path d="M17.258 14.9355H17.8386V15.5162H17.258V14.9355Z" fill="currentColor"/>
<path d="M16.0967 14.9355H16.6774V15.5162H16.0967V14.9355Z" fill="currentColor"/>
</svg>
