<svg width="30" height="31" viewBox="0 0 30 31" fill="none" xmlns="http://www.w3.org/2000/svg">
<path d="M0.5 15.7124C0.5 12.6357 0.66551 10.1974 1.09477 8.26593C1.52277 6.3401 2.2063 4.94885 3.22137 3.93378C4.23644 2.91871 5.62769 2.23519 7.55351 1.80719C9.48502 1.37793 11.9233 1.21242 15 1.21242C18.0767 1.21242 20.515 1.37793 22.4465 1.80719C24.3723 2.23519 25.7636 2.91871 26.7786 3.93378C27.7937 4.94885 28.4772 6.3401 28.9052 8.26593C29.3345 10.1974 29.5 12.6357 29.5 15.7124C29.5 18.7891 29.3345 21.2274 28.9052 23.1589C28.4772 25.0847 27.7937 26.476 26.7786 27.4911C25.7636 28.5061 24.3723 29.1896 22.4465 29.6176C20.515 30.0469 18.0767 30.2124 15 30.2124C11.9233 30.2124 9.48502 30.0469 7.55351 29.6176C5.62769 29.1896 4.23644 28.5061 3.22137 27.4911C2.2063 26.476 1.52277 25.0847 1.09477 23.1589C0.66551 21.2274 0.5 18.7891 0.5 15.7124Z" fill="#191919" stroke="white"/>
<path fill-rule="evenodd" clip-rule="evenodd" d="M5.01939 10.0734C4.70532 11.4866 4.57896 13.2984 4.57896 15.6335C4.57896 17.9686 4.70532 19.7804 5.01939 21.1936C5.33107 22.596 5.81488 23.5472 6.49008 24.2224C7.16527 24.8976 8.11642 25.3814 9.51886 25.693C10.9321 26.0071 12.7439 26.1335 15.079 26.1335C17.4141 26.1335 19.2259 26.0071 20.6391 25.693C22.0415 25.3814 22.9927 24.8976 23.6678 24.2224C24.343 23.5472 24.8269 22.596 25.1385 21.1936C25.2273 20.7941 25.3011 20.3627 25.3613 19.8966H20.4157C20.227 21.0606 19.2173 21.9493 18 21.9493H15.0628C14.7936 22.8181 13.9837 23.4493 13.0263 23.4493C11.8491 23.4493 10.8948 22.4949 10.8948 21.3177C10.8948 20.1404 11.8491 19.1861 13.0263 19.1861C14.0408 19.1861 14.8897 19.8947 15.1051 20.844H18C18.7412 20.844 19.3421 20.2431 19.3421 19.5019V19.344C19.3421 19.0388 19.5895 18.7914 19.8948 18.7914H25.7369C25.8583 18.7914 25.9706 18.8306 26.0618 18.897C26.2587 18.9663 26.3946 19.1624 26.3729 19.3825C25.7568 25.6193 23.0967 27.0808 15.079 27.0808C5.65205 27.0808 3.63159 25.0604 3.63159 15.6335C3.63159 6.20656 5.65205 4.1861 15.079 4.1861C24.5059 4.1861 26.5263 6.20656 26.5263 15.6335C26.5263 15.8235 26.5255 16.0105 26.5238 16.1946C26.522 16.3899 26.401 16.5559 26.2304 16.6252C26.1373 16.6964 26.021 16.7387 25.8948 16.7387H15.0628C14.7936 17.6076 13.9837 18.2387 13.0263 18.2387C11.8491 18.2387 10.8948 17.2844 10.8948 16.1072C10.8948 14.9299 11.8491 13.9756 13.0263 13.9756C14.0408 13.9756 14.8897 14.6842 15.1051 15.6335H17.2895V12.2387C17.2895 11.5847 16.7593 11.0545 16.1053 11.0545H12.6316C12.6113 11.0545 12.5914 11.0534 12.5717 11.0513C12.3208 12.1824 11.3118 13.0282 10.1053 13.0282C8.71003 13.0282 7.57896 11.8971 7.57896 10.5019C7.57896 9.10665 8.71003 7.97558 10.1053 7.97558C11.3118 7.97558 12.3208 8.82141 12.5717 9.95247C12.5914 9.95035 12.6113 9.94926 12.6316 9.94926H16.1053C17.3697 9.94926 18.3948 10.9743 18.3948 12.2387V15.6335H25.579C25.579 13.2984 25.4526 11.4866 25.1385 10.0734C24.8269 8.67093 24.343 7.71978 23.6678 7.04459C22.9927 6.36939 22.0415 5.88558 20.6391 5.5739C19.2259 5.25983 17.4141 5.13347 15.079 5.13347C12.7439 5.13347 10.9321 5.25983 9.51886 5.5739C8.11642 5.88558 7.16527 6.36939 6.49008 7.04459C5.81488 7.71978 5.33107 8.67093 5.01939 10.0734ZM11.8421 10.5019C11.8421 11.4611 11.0645 12.2387 10.1053 12.2387C9.14604 12.2387 8.36843 11.4611 8.36843 10.5019C8.36843 9.54266 9.14604 8.76505 10.1053 8.76505C11.0645 8.76505 11.8421 9.54266 11.8421 10.5019ZM14.3684 16.1072C14.3684 16.8484 13.7676 17.4493 13.0263 17.4493C12.2851 17.4493 11.6842 16.8484 11.6842 16.1072C11.6842 15.3659 12.2851 14.7651 13.0263 14.7651C13.7676 14.7651 14.3684 15.3659 14.3684 16.1072ZM13.0263 22.6598C13.7676 22.6598 14.3684 22.0589 14.3684 21.3177C14.3684 20.5765 13.7676 19.9756 13.0263 19.9756C12.2851 19.9756 11.6842 20.5765 11.6842 21.3177C11.6842 22.0589 12.2851 22.6598 13.0263 22.6598Z" fill="#EDEDED"/>
</svg>
