<svg width="20" height="20" viewBox="0 0 20 20" fill="none" xmlns="http://www.w3.org/2000/svg">
<path d="M10 1C5.03643 1 1 5.03643 1 10C1 14.9636 5.03643 19 10 19C14.9636 19 19 14.9636 19 10C19 5.03643 14.9636 1 10 1ZM10 2.20007C14.315 2.20007 17.8 5.68514 17.8 10.0001C17.8 14.315 14.3149 17.8001 10 17.8001C5.68507 17.8001 2.2 14.315 2.2 10.0001C2.2 5.68514 5.68507 2.20007 10 2.20007ZM10 5C8.35032 5 7 6.35032 7 8C6.99777 8.16058 7.05999 8.31543 7.17271 8.42982C7.28543 8.54408 7.43945 8.60853 7.60003 8.60853C7.76061 8.60853 7.91449 8.54408 8.02735 8.42982C8.14008 8.31543 8.2023 8.16057 8.20006 8C8.20006 6.99875 8.99874 6.20007 9.99999 6.20007C11.0012 6.20007 11.7999 6.99875 11.7999 8C11.8072 8.82157 11.3839 9.24204 10.7938 9.79993C10.4986 10.0789 10.171 10.3691 9.89367 10.75C9.61647 11.1309 9.39996 11.6257 9.39996 12.2001C9.39773 12.3606 9.45995 12.5154 9.57267 12.6298C9.68539 12.7441 9.83941 12.8086 9.99999 12.8086C10.1606 12.8086 10.3146 12.7441 10.4273 12.6298C10.54 12.5154 10.6023 12.3606 10.6 12.2001C10.6 11.9035 10.6869 11.6976 10.8624 11.4562C11.0381 11.215 11.3115 10.9591 11.6187 10.6688C12.232 10.089 13.0084 9.27807 13 8V7.99372C12.9965 6.34683 11.6476 5 10 5ZM10 13.4C9.55818 13.4 9.20007 13.7581 9.20007 14.2001C9.20007 14.6419 9.55818 15 10 15C10.4418 15 10.7999 14.6419 10.7999 14.2001C10.7999 13.7581 10.4418 13.4 10 13.4Z" fill="currentColor"/>
</svg>
