<svg width="20" height="20" viewBox="0 0 20 20" fill="none" xmlns="http://www.w3.org/2000/svg">
<path d="M2.29702 3L17.7027 16.3333M14.3327 13.6299C13.0303 14.2371 11.5583 14.6665 9.99984 14.6665C6.60034 14.6665 3.61261 12.6232 1.89928 11.149C1.44702 10.7599 1.22093 10.5653 1.077 10.1834C0.97435 9.91107 0.974318 9.42214 1.077 9.14978C1.22098 8.76789 1.44754 8.57288 1.90069 8.18306C2.76426 7.44017 3.95132 6.553 5.35148 5.85563M17.2212 11.8612C17.5419 11.6171 17.8356 11.3769 18.0992 11.1502L18.102 11.1477C18.5532 10.7595 18.7794 10.5649 18.9231 10.1838C19.0258 9.91148 19.0256 9.42236 18.9229 9.15C18.779 8.76822 18.5526 8.57312 18.1007 8.18426C16.3874 6.71007 13.3993 4.66667 9.99984 4.66667C9.67488 4.66667 9.35368 4.68534 9.03699 4.7204M11.2736 10.9167C10.9341 11.176 10.4882 11.3333 9.99984 11.3333C8.93631 11.3333 8.07414 10.5871 8.07414 9.66667C8.07414 9.21708 8.27982 8.80923 8.61418 8.50944" stroke="currentColor" stroke-width="2" stroke-linecap="round" stroke-linejoin="round"/>
</svg>
