<svg width="30" height="30" viewBox="0 0 30 30" fill="none" xmlns="http://www.w3.org/2000/svg">
<path d="M0.5 15C0.5 11.9233 0.66551 9.48502 1.09477 7.55351C1.52277 5.62769 2.2063 4.23644 3.22137 3.22137C4.23644 2.2063 5.62769 1.52277 7.55351 1.09477C9.48502 0.66551 11.9233 0.5 15 0.5C18.0767 0.5 20.515 0.66551 22.4465 1.09477C24.3723 1.52277 25.7636 2.2063 26.7786 3.22137C27.7937 4.23644 28.4772 5.62769 28.9052 7.55351C29.3345 9.48502 29.5 11.9233 29.5 15C29.5 18.0767 29.3345 20.515 28.9052 22.4465C28.4772 24.3723 27.7937 25.7636 26.7786 26.7786C25.7636 27.7937 24.3723 28.4772 22.4465 28.9052C20.515 29.3345 18.0767 29.5 15 29.5C11.9233 29.5 9.48502 29.3345 7.55351 28.9052C5.62769 28.4772 4.23644 27.7937 3.22137 26.7786C2.2063 25.7636 1.52277 24.3723 1.09477 22.4465C0.66551 20.515 0.5 18.0767 0.5 15Z" fill="#191919" stroke="white"/>
<path fill-rule="evenodd" clip-rule="evenodd" d="M18.3371 21.4564C18.3756 21.4376 18.4171 21.4235 18.4612 21.4149C18.8787 21.333 19.3664 21.2369 19.8292 21.0858C20.2049 20.9631 20.5298 20.8146 20.7729 20.6343C20.5228 19.3148 19.8282 18.1184 18.8026 17.2422C17.8259 16.4078 16.6071 15.9133 15.331 15.8251V21.8423C16.5971 22.0369 17.5655 23.1104 17.5655 24.4054C17.5655 25.8384 16.3798 27 14.9172 27C13.4546 27 12.269 25.8384 12.269 24.4054C12.269 23.1104 13.2374 22.0369 14.5034 21.8423V15.8251C13.2406 15.9124 12.0332 16.3976 11.0609 17.2176C10.0346 18.083 9.33413 19.2678 9.0725 20.5781C9.32174 20.7841 9.67407 20.9506 10.0881 21.0858C10.5509 21.2369 11.0385 21.333 11.456 21.4149C11.6135 21.4457 11.7386 21.5464 11.8044 21.6775C11.91 21.8392 11.9117 22.054 11.7918 22.2205C11.4407 22.7079 11.2169 23.2722 11.1401 23.864C11.0633 24.4559 11.1358 25.0571 11.3512 25.6151C11.4419 25.8502 11.3346 26.1112 11.1103 26.2216V26.3598C4.53841 25.7344 3 23.0081 3 14.7568C3 5.07507 5.118 3 15 3C24.882 3 27 5.07507 27 14.7568C27 23.1449 25.4102 25.8232 18.5586 26.3892V26.2216C18.3343 26.1112 18.227 25.8502 18.3178 25.6151C18.5332 25.0571 18.6057 24.4559 18.5289 23.864C18.452 23.2722 18.2283 22.7079 17.8772 22.2205C17.719 22.0009 17.7725 21.6974 17.9965 21.5425C18.0996 21.4712 18.2209 21.4438 18.3371 21.4564ZM3.9931 14.7568C3.9931 12.3585 4.12556 10.4978 4.45479 9.04639C4.78152 7.60604 5.28869 6.62918 5.99648 5.93574C6.70427 5.2423 7.70134 4.74541 9.17148 4.42531C10.6529 4.10274 12.5522 3.97297 15 3.97297C17.4478 3.97297 19.3471 4.10274 20.8285 4.42531C22.2987 4.74541 23.2957 5.2423 24.0035 5.93574C24.7113 6.62918 25.2185 7.60604 25.5452 9.04639C25.8744 10.4978 26.0069 12.3585 26.0069 14.7568C26.0069 17.155 25.8744 19.0157 25.5452 20.4671C25.2185 21.9075 24.7113 22.8843 24.0035 23.5778C23.2957 24.2712 22.2987 24.7681 20.8285 25.0882C20.4017 25.1811 19.9402 25.2581 19.4408 25.3205C19.5573 24.8037 19.5826 24.2696 19.514 23.7413C19.4482 23.2339 19.297 22.7424 19.0683 22.2863C19.4006 22.2168 19.7759 22.1288 20.1432 22.0088C20.6673 21.8377 21.2292 21.5851 21.6408 21.1818C21.7331 21.0914 21.7815 20.9742 21.7859 20.8557C21.7965 20.8025 21.7981 20.7466 21.7894 20.6899C21.5392 19.0649 20.7114 17.582 19.4553 16.5089C18.6047 15.7822 17.5957 15.2759 16.5179 15.023C18.102 14.4008 19.2207 12.8824 19.2207 11.1081C19.2207 8.77956 17.294 6.89189 14.9172 6.89189C12.5405 6.89189 10.6138 8.77956 10.6138 11.1081C10.6138 12.8824 11.7325 14.4008 13.3165 15.023C12.2535 15.2724 11.2568 15.7686 10.413 16.4802C9.15002 17.5453 8.31263 19.0229 8.05196 20.6463C8.02675 20.8033 8.0812 20.9545 8.18597 21.0605C8.20893 21.1042 8.2391 21.1452 8.27647 21.1818C8.68805 21.5851 9.2499 21.8377 9.77401 22.0088C10.061 22.1026 10.3529 22.1768 10.6253 22.2379C10.3828 22.7075 10.2231 23.2159 10.1549 23.7413C10.0884 24.254 10.1103 24.7722 10.2181 25.2747C9.84779 25.2216 9.4994 25.1596 9.17148 25.0882C7.70134 24.7681 6.70427 24.2712 5.99648 23.5778C5.28869 22.8843 4.78152 21.9075 4.45479 20.4671C4.12556 19.0157 3.9931 17.155 3.9931 14.7568ZM14.9172 14.3514C16.7455 14.3514 18.2276 12.8993 18.2276 11.1081C18.2276 9.31691 16.7455 7.86486 14.9172 7.86486C13.089 7.86486 11.6069 9.31691 11.6069 11.1081C11.6069 12.8993 13.089 14.3514 14.9172 14.3514ZM13.0966 24.4054C13.0966 25.3906 13.9117 26.1892 14.9172 26.1892C15.9228 26.1892 16.7379 25.3906 16.7379 24.4054C16.7379 23.4202 15.9228 22.6216 14.9172 22.6216C13.9117 22.6216 13.0966 23.4202 13.0966 24.4054Z" fill="white" stroke="white" stroke-width="0.25"/>
</svg>
