<svg width="20" height="20" viewBox="0 0 20 20" fill="none" xmlns="http://www.w3.org/2000/svg">
<path d="M14.374 9.06312C14.375 7.55173 13.5848 6.15043 12.2911 5.36909C10.9976 4.58775 9.38908 4.54067 8.05214 5.24484C6.71492 5.94904 5.84385 7.30192 5.75626 8.8107C5.66889 10.3195 6.37725 11.764 7.62423 12.6182V13.7433C7.62476 14.0878 7.74404 14.4213 7.96167 14.6881C7.74273 14.9515 7.62267 15.2832 7.62267 15.6256C7.62267 15.968 7.74273 16.2997 7.96167 16.5631C7.74561 16.8281 7.62659 17.1587 7.62423 17.5006C7.62423 17.8985 7.78223 18.2799 8.06343 18.5613C8.34489 18.8425 8.72627 19.0005 9.12414 19.0005H10.9991C11.397 19.0005 11.7784 18.8425 12.0599 18.5613C12.3411 18.2799 12.4991 17.8985 12.4991 17.5006C12.4967 17.1587 12.3777 16.8281 12.1616 16.5631C12.3806 16.2997 12.5006 15.968 12.5006 15.6256C12.5006 15.2832 12.3806 14.9515 12.1616 14.6881C12.3769 14.4242 12.4959 14.0948 12.4991 13.7543V12.6292C13.6733 11.8215 14.3743 10.488 14.374 9.06312ZM11.3739 15.6256C11.3739 15.725 11.3347 15.8205 11.2643 15.8909C11.1939 15.9612 11.0985 16.0007 10.9991 16.0007H9.12406C8.91689 16.0007 8.74896 15.8328 8.74896 15.6256C8.74896 15.4185 8.91689 15.2505 9.12406 15.2505H10.9991C11.0985 15.2505 11.194 15.29 11.2643 15.3604C11.3347 15.4308 11.3739 15.5262 11.3739 15.6256ZM10.9988 17.8758H9.1238C8.91662 17.8758 8.74895 17.7078 8.74895 17.5007C8.74895 17.2935 8.91688 17.1256 9.12406 17.1256H10.9991C11.2062 17.1256 11.3742 17.2935 11.3742 17.5007C11.3742 17.7078 11.206 17.8758 10.9988 17.8758ZM11.6551 11.8194C11.4809 11.9199 11.3739 12.1059 11.3742 12.307V13.7546C11.3742 13.8543 11.3347 13.9492 11.2643 14.0196C11.1939 14.0899 11.0985 14.1294 10.9991 14.1294H9.12406C8.91689 14.1294 8.74896 13.9615 8.74896 13.7543V12.307C8.74922 12.1059 8.64197 11.9199 8.46776 11.8194C7.65186 11.3483 7.08608 10.5403 6.92262 9.61249C6.75887 8.6847 7.01418 7.73173 7.61972 7.01005C8.22554 6.28838 9.11939 5.87139 10.0616 5.87139C11.0038 5.87139 11.8976 6.28835 12.5034 7.01005C13.109 7.73173 13.3643 8.6847 13.2005 9.61249C13.0371 10.5403 12.4709 11.3483 11.6551 11.8194Z" fill="currentColor"/>
<path d="M10.0629 3.99979C10.3736 3.99979 10.6253 3.74816 10.6253 3.4374V1.56239C10.6253 1.25164 10.3736 1 10.0629 1C9.75213 1 9.50049 1.25164 9.50049 1.56239V3.4374C9.50049 3.74816 9.75213 3.99979 10.0629 3.99979Z" fill="currentColor"/>
<path d="M13.8125 5.87456C13.9616 5.87456 14.1047 5.81519 14.2101 5.70977L16.0851 3.83477C16.2915 3.61295 16.2855 3.26766 16.0712 3.05343C15.857 2.83919 15.5117 2.83317 15.2899 3.03956L13.4149 4.91457C13.2543 5.07544 13.2064 5.3174 13.2932 5.52745C13.3804 5.73749 13.5852 5.87456 13.8125 5.87456Z" fill="currentColor"/>
<path d="M17.5629 8.50049H15.6879C15.3771 8.50049 15.1255 8.75213 15.1255 9.06288C15.1255 9.37364 15.3771 9.62528 15.6879 9.62528H17.5629C17.8736 9.62528 18.1253 9.37364 18.1253 9.06288C18.1253 8.75213 17.8736 8.50049 17.5629 8.50049Z" fill="currentColor"/>
<path d="M5.91408 5.70977C6.1359 5.91615 6.48119 5.91014 6.69542 5.69591C6.90965 5.48167 6.91567 5.13638 6.70928 4.91457L4.83428 3.03956C4.61246 2.83318 4.26717 2.83919 4.05294 3.05342C3.8387 3.26766 3.83268 3.61295 4.03907 3.83477L5.91408 5.70977Z" fill="currentColor"/>
<path d="M4.99979 9.06288C4.99979 8.75213 4.74815 8.50049 4.4374 8.50049H2.56239C2.25164 8.50049 2 8.75213 2 9.06288C2 9.37364 2.25164 9.62528 2.56239 9.62528H4.4374C4.74815 9.62528 4.99979 9.37364 4.99979 9.06288Z" fill="currentColor"/>
<path d="M14.2093 12.4141C13.9875 12.2077 13.6422 12.2137 13.4279 12.4279C13.2137 12.6422 13.2077 12.9875 13.4141 13.2093L15.2891 15.0843C15.5109 15.2907 15.8562 15.2847 16.0704 15.0704C16.2847 14.8562 16.2907 14.5109 16.0843 14.2891L14.2093 12.4141Z" fill="currentColor"/>
<path d="M5.91387 12.4141L4.03887 14.2891C3.92743 14.3932 3.86283 14.5381 3.85995 14.6909C3.85733 14.8434 3.91671 14.9906 4.02474 15.0984C4.13251 15.2064 4.27978 15.2658 4.43228 15.2632C4.58504 15.2603 4.72996 15.1957 4.83407 15.0843L6.70907 13.2093C6.91546 12.9875 6.90944 12.6422 6.69521 12.4279C6.48097 12.2137 6.13569 12.2077 5.91387 12.4141Z" fill="currentColor"/>
</svg>
