<svg width="20" height="20" viewBox="0 0 20 20" fill="none" xmlns="http://www.w3.org/2000/svg">
<path d="M17.802 7.76418C17.802 4.03157 14.7704 1 11.0378 1C7.30521 1 4.27364 4.03163 4.27364 7.76418C4.27364 8.23786 4.33048 8.69263 4.40634 9.12839C3.08006 9.12839 2 10.2085 2 11.5347V14.3389C2 15.6652 3.08006 16.7452 4.40634 16.7452H4.82318C4.80428 17.0673 4.72842 17.4273 4.57682 17.8253C4.44413 18.1663 4.53889 18.5642 4.82318 18.7916C4.99367 18.9243 5.18321 19 5.39163 19C5.54323 19 5.67579 18.9621 5.82739 18.8863C6.79366 18.3369 7.60846 17.4464 8.15787 16.7263H9.12415C10.3936 16.7263 11.4357 15.7411 11.5305 14.4906C15.0357 14.2441 17.802 11.3262 17.802 7.76435L17.802 7.76418ZM15.9451 10.7768C15.4903 10.5872 15.0166 10.4167 14.5429 10.2842C14.6756 9.64 14.7703 8.9579 14.7893 8.23786H16.7788C16.7031 9.18523 16.3999 10.0378 15.9451 10.7768ZM15.9451 4.73258C16.3998 5.49041 16.7029 6.34317 16.7788 7.27149H14.7894C14.7515 6.55145 14.6758 5.86935 14.5431 5.22518C15.0167 5.07358 15.4904 4.92212 15.9451 4.73258ZM15.3199 3.89887C14.9789 4.03156 14.6378 4.14522 14.2589 4.23985C14.0505 3.57663 13.7663 2.9893 13.4442 2.51561C14.1641 2.85673 14.8083 3.33042 15.3199 3.89887H15.3199ZM11.5494 2.09891C12.2126 2.38306 12.8757 3.21677 13.2926 4.46732C12.7241 4.56208 12.1556 4.61892 11.5494 4.65685V2.09891ZM11.5494 5.661C12.2315 5.6421 12.9136 5.56624 13.5578 5.45257C13.6714 6.00198 13.7662 6.60836 13.7851 7.27158L11.5494 7.27145L11.5494 5.661ZM11.5494 8.25674H13.7851C13.7662 8.91997 13.6715 9.52621 13.5578 10.0758C12.9136 9.96209 12.2315 9.88622 11.5494 9.86732L11.5494 8.25674ZM8.38521 9.10934C8.34727 8.82518 8.32837 8.54089 8.30947 8.2377H10.5452V9.54509C10.1472 9.26094 9.67354 9.09032 9.14305 9.09032L8.38523 9.09046L8.38521 9.10934ZM10.5452 7.25254H8.30935C8.32825 6.58932 8.42301 5.98307 8.53668 5.43353C9.18085 5.54719 9.86295 5.62306 10.5451 5.64196L10.5452 7.25254ZM10.5452 2.09888V4.65683C9.93882 4.63793 9.3705 4.56206 8.80205 4.4673C9.2378 3.23566 9.88197 2.38302 10.5452 2.09888ZM8.65047 2.51572C8.32838 3.00831 8.04409 3.59578 7.8358 4.23995C7.47577 4.14519 7.11577 4.03153 6.77479 3.89897C7.28626 3.33038 7.9304 2.8567 8.65047 2.51572ZM6.14936 4.73255C6.60413 4.92208 7.07781 5.09258 7.57041 5.22514C7.41881 5.86932 7.34308 6.55142 7.32405 7.27145H5.31581C5.39154 6.3431 5.69469 5.47149 6.14936 4.73255ZM7.30514 8.25674C7.32404 8.55993 7.34307 8.84408 7.36197 9.12839L5.46725 9.12826C5.39151 8.8441 5.33455 8.5598 5.31565 8.25661L7.30514 8.25674ZM10.5452 14.3199C10.5452 15.0968 9.91994 15.722 9.14306 15.722H7.93044C7.77884 15.722 7.62725 15.7977 7.53248 15.9304C7.17244 16.423 6.49034 17.2567 5.67568 17.8252C5.8652 17.181 5.8841 16.6125 5.8652 16.2146C5.8463 15.9493 5.63788 15.7409 5.37261 15.7409H4.44416C3.66728 15.7409 3.04202 15.1156 3.04202 14.3388V11.5157C3.04202 10.7388 3.66728 10.1136 4.44416 10.1136H9.14308C9.91996 10.1136 10.5452 10.7388 10.5452 11.5157L10.5452 14.3199ZM11.5494 13.4104V11.5157V11.4968V10.8526C12.1558 10.8715 12.7241 10.9284 13.2926 11.0422C12.8757 12.2736 12.2126 13.1262 11.5494 13.4104ZM13.4441 12.9936C13.7662 12.501 14.0505 11.9326 14.2588 11.2694C14.6188 11.3641 14.9788 11.4778 15.3198 11.6103C14.8083 12.1788 14.1642 12.6525 13.4441 12.9936H13.4441Z" fill="currentColor"/>
</svg>
