<svg width="20" height="20" viewBox="0 0 20 20" fill="none" xmlns="http://www.w3.org/2000/svg">
<path d="M11.0002 1H4.89327C3.9933 1 3.28627 1.70708 3.28627 2.607V8.07129C3.28627 8.42482 3.57563 8.71416 3.92914 8.71416C4.28265 8.71416 4.57201 8.4248 4.57201 8.07129L4.57181 2.60752C4.57181 2.41461 4.70035 2.28607 4.89326 2.28607H10.3575C11.0646 2.28607 11.6433 2.86458 11.6433 3.57187V6.14321C11.6433 6.49674 11.9327 6.78608 12.2862 6.78608H14.8576C15.5646 6.78608 16.1434 7.36459 16.1434 8.07188V17.3934C16.1434 17.5863 16.0148 17.7148 15.8219 17.7148L4.89333 17.7144C4.70042 17.7144 4.57188 17.5859 4.57188 17.393V17.0716C4.57188 16.718 4.28252 16.4287 3.92901 16.4287C3.5755 16.4287 3.28613 16.718 3.28613 17.0716V17.393C3.28613 18.293 3.99322 19 4.89313 19H15.8212C16.7212 19 17.4282 18.2929 17.4282 17.393L17.4286 7.42886C17.4286 3.89319 14.5361 1 11.0002 1ZM14.8571 5.50001H12.9286V3.57154C12.9286 3.21801 12.8643 2.89659 12.7357 2.60721C14.1821 3.12156 15.3071 4.27857 15.8214 5.69289C15.5323 5.56415 15.2108 5.50001 14.8571 5.50001Z" fill="currentColor"/>
<path d="M2.64308 15.1422H4.25008C4.60361 15.1422 4.89295 14.8528 4.89295 14.4993C4.89295 14.1458 4.60359 13.8564 4.25008 13.8564H3.28575V10.6424C3.28575 10.2888 2.99638 9.9995 2.64287 9.9995C2.28936 9.9995 2 10.2889 2 10.6424V14.4995C2.0002 14.853 2.28936 15.1422 2.64308 15.1422Z" fill="currentColor"/>
<path d="M9.0713 12.5712C9.0713 11.1248 8.23549 9.99986 7.14284 9.99986C6.04998 9.99986 5.21437 11.1248 5.21437 12.5712C5.21437 14.0176 6.05018 15.1425 7.14284 15.1425C8.23569 15.1425 9.0713 14.0176 9.0713 12.5712ZM6.49996 12.5712C6.49996 11.7998 6.88557 11.2854 7.14284 11.2854C7.39991 11.2854 7.78571 11.7998 7.78571 12.5712C7.78571 13.3426 7.4001 13.857 7.14284 13.857C6.88576 13.857 6.49996 13.3426 6.49996 12.5712Z" fill="currentColor"/>
<path d="M13.3785 11.7354C13.6355 11.4783 13.6355 11.0925 13.3785 10.8354C13.3785 10.8354 12.6714 9.9996 11.6427 9.9996C10.6783 9.9996 9.71421 10.6102 9.71421 11.9281V13.2139C9.71421 14.5317 10.6785 15.1423 11.6427 15.1423C12.607 15.1423 13.5711 14.5317 13.5711 13.2139V12.8924C13.5711 12.5389 13.2818 12.2495 12.9283 12.2495H12.2854C11.9319 12.2495 11.6425 12.5389 11.6425 12.8924C11.6425 13.2459 11.8996 13.503 12.2531 13.5353C12.1887 13.6959 12.0281 13.8567 11.6425 13.8567C10.9996 13.8567 10.9996 13.4068 10.9996 13.2139V11.9281C10.9996 11.7352 10.9996 11.2852 11.6425 11.2852C12.0604 11.2852 12.4783 11.7352 12.4783 11.7352C12.7356 11.9924 13.1214 11.9925 13.3785 11.7354Z" fill="currentColor"/>
</svg>
