<svg width="20" height="20" viewBox="0 0 20 20" fill="none" xmlns="http://www.w3.org/2000/svg">
<path d="M17.2198 8.19997C16.2704 8.19997 15.4791 8.96002 15.4397 9.92H13.2637C13.244 9.19999 13.0065 8.52001 12.611 7.97997L16.2704 4.31991C16.5473 4.49988 16.8638 4.59991 17.2198 4.59991C18.2088 4.59991 19 3.79997 19 2.79996C19 1.79994 18.2088 1 17.2198 1C16.2308 1 15.4396 1.79994 15.4396 2.79996C15.4396 3.13994 15.5386 3.47993 15.7165 3.75993L12.0572 7.39999C11.4637 6.89998 10.7122 6.60005 9.90112 6.60005C9.10997 6.60005 8.39783 6.88005 7.82413 7.34002L4.28342 3.75997C4.46142 3.47997 4.56034 3.15993 4.56034 2.79999C4.56034 1.79998 3.7692 1.00004 2.78017 1.00004C1.79115 1.00004 1 1.79998 1 2.79999C1 3.80001 1.79115 4.59995 2.78017 4.59995C3.13615 4.59995 3.45267 4.49992 3.7296 4.31995L7.2703 7.9C6.81539 8.47994 6.53846 9.19995 6.53846 10.0001C6.53846 10.7801 6.79565 11.5001 7.25056 12.08L3.72964 15.6801C3.45272 15.5001 3.13619 15.4001 2.78021 15.4001C1.79118 15.4001 1.00004 16.2 1.00004 17.2C1.00004 18.2001 1.79118 19 2.78021 19C3.76923 19 4.56038 18.2001 4.56038 17.2C4.56038 16.8401 4.46145 16.5201 4.28346 16.2401L7.80439 12.66C8.18025 12.96 8.61542 13.18 9.09005 13.3001L9.24831 15.3402C8.59555 15.6002 8.14064 16.2602 8.14064 17.0002C8.14064 18.0002 8.93178 18.8001 9.92081 18.8001C10.9098 18.8001 11.701 18.0002 11.701 17.0002C11.701 16.0402 10.9691 15.2602 10.0395 15.2002L9.90093 13.4003H9.92066C11.5427 13.4003 12.8877 12.2602 13.2043 10.7203H15.5978C15.8747 11.3603 16.5077 11.8002 17.2198 11.8002C18.2089 11.8002 19 11.0003 19 10.0003C19.0001 8.99996 18.2089 8.20002 17.2198 8.20002L17.2198 8.19997ZM10.8901 17.0001C10.8901 17.5601 10.4549 18.0001 9.90105 18.0001C9.3472 18.0001 8.91203 17.5601 8.91203 17.0001C8.91203 16.4401 9.3472 16.0001 9.90105 16.0001C10.4549 16.0001 10.8901 16.4401 10.8901 17.0001ZM17.2198 1.79988C17.7737 1.79988 18.2089 2.23988 18.2089 2.79989C18.2089 3.3599 17.7737 3.79991 17.2198 3.79991C16.666 3.79991 16.2308 3.3599 16.2308 2.79989C16.2308 2.23988 16.666 1.79988 17.2198 1.79988ZM1.79106 2.79989C1.79106 2.23988 2.22623 1.79988 2.78008 1.79988C3.33393 1.79988 3.7691 2.23988 3.7691 2.79989C3.7691 3.3599 3.33393 3.79991 2.78008 3.79991C2.22623 3.79991 1.79106 3.3599 1.79106 2.79989ZM2.78008 18.2001C2.22623 18.2001 1.79106 17.7601 1.79106 17.2001C1.79106 16.6401 2.22623 16.2001 2.78008 16.2001C3.33393 16.2001 3.7691 16.6401 3.7691 17.2001C3.7691 17.7601 3.33393 18.2001 2.78008 18.2001ZM9.90105 12.6C8.47686 12.6 7.32955 11.44 7.32955 9.99996C7.32955 8.55991 8.47682 7.39989 9.90105 7.39989C11.3252 7.39989 12.4725 8.55991 12.4725 9.99996C12.4725 11.44 11.3253 12.6 9.90105 12.6ZM17.2198 11C16.666 11 16.2308 10.56 16.2308 9.99996C16.2308 9.43996 16.666 8.99995 17.2198 8.99995C17.7737 8.99995 18.2089 9.43996 18.2089 9.99996C18.2089 10.56 17.7737 11 17.2198 11Z" fill="currentColor"/>
</svg>
