<svg width="20" height="20" viewBox="0 0 20 20" fill="none" xmlns="http://www.w3.org/2000/svg">
<path d="M12.4211 15.2105V16.1579C12.4211 17.7275 11.1486 19 9.57895 19C8.0093 19 6.73684 17.7275 6.73684 16.1579V15.2106M12.4211 15.2105L6.73684 15.2106M12.4211 15.2105H16.2105C16.7338 15.2105 17.1579 14.7864 17.1579 14.2632V13.7081C17.1579 13.4568 17.058 13.216 16.8803 13.0382L16.3965 12.5544C16.2774 12.4353 16.2105 12.2737 16.2105 12.1052V8.57895C16.2105 8.4118 16.2045 8.24599 16.192 8.08262M6.73684 15.2106L2.94737 15.2107C2.42416 15.2107 2 14.7862 2 14.263V13.7081C2 13.4568 2.09989 13.2162 2.27755 13.0385L2.76141 12.554C2.88048 12.4349 2.94737 12.2739 2.94737 12.1055V8.57893C2.94737 4.91643 5.91642 1.94737 9.57895 1.94737C10.2531 1.94737 10.9038 2.04796 11.5167 2.23496M16.192 8.08262C17.3349 7.43007 18.1053 6.19974 18.1053 4.78947C18.1053 2.69661 16.4087 1 14.3158 1C13.2071 1 12.2097 1.47608 11.5167 2.23496M16.192 8.08262C15.6388 8.39847 14.9984 8.57895 14.3158 8.57895C12.2229 8.57895 10.5263 6.88234 10.5263 4.78947C10.5263 3.80525 10.9015 2.90867 11.5167 2.23496M16.192 8.08262C16.192 8.08261 16.192 8.08262 16.192 8.08262ZM11.5167 2.23496C11.5172 2.2351 11.5176 2.23523 11.5181 2.23536" stroke="currentColor" stroke-width="2" stroke-linecap="round" stroke-linejoin="round"/>
</svg>
