<svg width="20" height="20" viewBox="0 0 20 20" fill="none" xmlns="http://www.w3.org/2000/svg">
<path fill-rule="evenodd" clip-rule="evenodd" d="M9.50168 1.07789C9.8651 0.974035 10.2504 0.974035 10.6138 1.07789L16.6471 2.80166C17.5524 3.06037 18.1598 3.90886 18.1127 4.84903L17.9129 8.84537C17.7296 12.5093 15.7532 15.8481 12.6287 17.7704L11.1184 18.6997C10.468 19.1001 9.64726 19.1001 8.99683 18.6997L7.48655 17.7704C4.36212 15.8477 2.38535 12.5092 2.20232 8.84537L2.00256 4.84903C1.95546 3.90886 2.56286 3.06038 3.46794 2.80166L9.50168 1.07789ZM4.024 4.74788L4.22392 8.74422C4.37387 11.7419 5.99089 14.4735 8.54725 16.0466L10.0575 16.9761L11.5678 16.0466C14.124 14.4736 15.7412 11.742 15.8911 8.74422L16.0911 4.74788L10.0573 3.02412L4.024 4.74788ZM8.03339 8.04377C8.03339 6.9259 8.93968 6.01978 10.0576 6.01978C11.1754 6.01978 12.0817 6.9259 12.0817 8.04377C12.0817 8.79297 11.6746 9.44713 11.0696 9.7972V11.0799C11.0696 11.6389 10.6165 12.0921 10.0576 12.0921C9.4986 12.0921 9.04556 11.6389 9.04556 11.0799V9.7972C8.44054 9.44717 8.03339 8.79301 8.03339 8.04377Z" fill="currentColor"/>
</svg>
