<svg width="20" height="20" viewBox="0 0 20 20" fill="none" xmlns="http://www.w3.org/2000/svg">
<path d="M10.0261 12.2779C9.72026 12.2779 9.4707 12.5276 9.4707 12.8334V13.3818C9.4707 13.6877 9.72027 13.9373 10.0296 13.9373C10.3354 13.9373 10.585 13.6877 10.585 13.3818V12.8334C10.5814 12.5275 10.3319 12.2779 10.0261 12.2779Z" fill="currentColor"/>
<path d="M7.03079 5.29978C7.21005 5.54939 7.55803 5.60564 7.80761 5.42283C8.05717 5.24353 8.11341 4.89549 7.93063 4.64587L7.59319 4.17828C7.41744 3.92516 7.06945 3.86539 6.81637 4.04118C6.56329 4.21696 6.50354 4.56501 6.67929 4.81813C6.68281 4.82165 6.68632 4.82868 6.68984 4.8322L7.03079 5.29978Z" fill="currentColor"/>
<path d="M12.2447 5.42624C12.3396 5.49655 12.4556 5.5317 12.5716 5.5317C12.7508 5.5317 12.916 5.44733 13.0215 5.30319L13.3589 4.8356C13.5382 4.58599 13.4819 4.24147 13.2359 4.05864C13.141 3.98833 13.025 3.95318 12.909 3.95318C12.7297 3.95318 12.5645 4.03755 12.4591 4.18169L12.1216 4.64577C11.9424 4.89538 11.9951 5.24344 12.2447 5.42624Z" fill="currentColor"/>
<path d="M9.99809 1C6.55332 1 4.73629 1.40079 4.73629 1.40079C3.20373 1.6961 1.72395 3.09884 1.38664 4.62473C1.19332 5.55286 1.0035 6.81498 1 8.54102C1.00352 10.2637 1.19332 11.5258 1.38664 12.4538C1.72408 13.9831 3.2074 15.3823 4.73982 15.6813C5.24248 15.7832 6.23368 15.8957 7.31278 15.9766C7.4358 16.1664 7.56586 16.3703 7.70996 16.5883C8.2794 17.4531 8.71878 18.0578 9.04918 18.4762C9.32335 18.8242 9.66078 19 10.0018 19C10.3427 19 10.6766 18.8242 10.9543 18.4762C11.2847 18.0543 11.7241 17.4531 12.2935 16.5883C12.4377 16.3738 12.5677 16.1699 12.6907 15.9766C13.7663 15.8957 14.7575 15.7832 15.2637 15.6813C16.7962 15.3824 18.2796 13.9832 18.6169 12.4538C18.8102 11.5257 19 10.2635 19 8.54102C18.9965 6.81836 18.8067 5.55626 18.6134 4.62826C18.2759 3.09897 16.7926 1.69975 15.2602 1.40079C15.2602 1.40079 13.4426 1 9.99809 1ZM14.9964 2.70859H15.0034C16.0298 2.90898 17.0808 3.91093 17.3057 4.90585C17.5447 6.06248 17.6572 7.21915 17.6607 8.53736C17.6642 9.85557 17.5448 11.0124 17.3057 12.1724C17.0808 13.1638 16.0298 14.1693 15.0034 14.3697H14.9964C14.5464 14.4611 13.6009 14.5665 12.5851 14.6439C12.1633 14.6755 11.7837 14.904 11.5587 15.2591C11.4392 15.449 11.3091 15.6494 11.1721 15.8533C10.7256 16.5318 10.332 17.0908 9.99452 17.5267C9.65708 17.0908 9.2634 16.5283 8.81699 15.8533C8.68342 15.6494 8.55336 15.449 8.43035 15.2591C8.20539 14.904 7.82225 14.6755 7.40395 14.6439C6.39163 14.5701 5.4426 14.4611 4.99618 14.3697H4.98915C3.96276 14.1728 2.91178 13.1673 2.68682 12.1724C2.4478 11.0158 2.3353 9.85911 2.3318 8.5409C2.3283 7.22268 2.4478 6.06589 2.68682 4.90939C2.91178 3.91797 3.96276 2.91251 4.98915 2.71213H4.99618C4.99618 2.71213 6.13505 2.3887 9.99446 2.3887C13.8539 2.3887 14.9964 2.70859 14.9964 2.70859Z" fill="currentColor"/>
<path d="M14.0229 7.19072C13.9104 6.82159 13.6222 6.5333 13.2531 6.4208C12.8981 6.3083 12.5466 6.19931 12.1951 6.0868L11.7803 5.95321C11.4534 5.48212 11.1722 5.06728 10.9192 4.68407C10.5923 4.17432 9.91389 4.02665 9.4042 4.35361C9.27063 4.43799 9.15815 4.55049 9.0738 4.68407C8.82072 5.06728 8.53952 5.48212 8.21262 5.95321L7.80486 6.08329C7.44984 6.19579 7.09483 6.30829 6.73631 6.42079C6.37075 6.53329 6.08251 6.82158 5.97003 7.19071C5.86809 7.53171 5.93839 7.90087 6.16335 8.17859C6.43401 8.51609 6.77145 8.93093 7.10185 9.34576C7.10537 9.85201 7.11591 10.3618 7.137 10.861V10.8645C7.15809 11.2372 7.35142 11.5817 7.66074 11.7927C7.85055 11.9262 8.0755 11.9966 8.304 12.0001C8.41648 12.0001 8.52544 11.9825 8.6309 11.9473C9.04919 11.8102 9.49557 11.6591 9.99823 11.4763C10.5009 11.6591 10.9473 11.8138 11.3656 11.9473C11.696 12.0493 12.0545 11.993 12.3357 11.7927C12.645 11.5817 12.8348 11.2372 12.856 10.8645V10.861C12.877 10.3618 12.8911 9.85555 12.8911 9.34576C13.2145 8.93793 13.5414 8.53364 13.8261 8.17859C14.0511 7.90437 14.1248 7.53172 14.0229 7.19072ZM11.8049 8.56534C11.6468 8.76573 11.5589 9.01534 11.5554 9.27197C11.5554 9.71493 11.5448 10.1579 11.5308 10.5939C11.1792 10.4778 10.7961 10.3442 10.3778 10.1896C10.1318 10.1017 9.86465 10.1017 9.61861 10.1896C9.20031 10.3442 8.82071 10.4743 8.46569 10.5939C8.44812 10.1579 8.44109 9.71493 8.44109 9.27197C8.44109 9.01533 8.35321 8.76572 8.19152 8.56534C7.9279 8.23488 7.66075 7.90088 7.42174 7.60559L8.2126 7.35598L8.6766 7.20832C8.91914 7.13097 9.13002 6.97628 9.27766 6.76536C9.5448 6.38215 9.78032 6.0341 9.99824 5.71068C10.2162 6.0341 10.4517 6.38218 10.7188 6.76536C10.8629 6.97629 11.0738 7.13098 11.3199 7.20832L11.7944 7.35949L12.5747 7.6091C12.3287 7.91144 12.065 8.23838 11.8049 8.56534Z" fill="currentColor"/>
<path d="M14.5192 10.5207L13.9673 10.3379C13.6756 10.243 13.5209 9.9266 13.6158 9.63831C13.7107 9.34652 14.027 9.19181 14.3153 9.28673L14.8671 9.46955C15.1589 9.56447 15.3136 9.88088 15.2187 10.1692C15.1237 10.461 14.8074 10.6192 14.5192 10.5207Z" fill="currentColor"/>
<path d="M5.53403 10.5207L6.08589 10.3379C6.37763 10.243 6.5323 9.9266 6.4374 9.63831C6.3425 9.34652 6.02614 9.19181 5.73791 9.28673L5.18605 9.46955C4.8943 9.56447 4.73963 9.88088 4.83453 10.1692C4.92944 10.461 5.24229 10.6192 5.53403 10.5207Z" fill="currentColor"/>
</svg>
