<svg width="20" height="20" viewBox="0 0 20 20" fill="none" xmlns="http://www.w3.org/2000/svg">
<path d="M10.2165 7.95326V14.152C10.2165 14.2855 10.3987 14.3244 10.4531 14.2025L13.748 6.83101C13.7924 6.73164 13.6961 6.62748 13.5936 6.66398L10.2987 7.83671C10.2494 7.85426 10.2165 7.90093 10.2165 7.95326Z" fill="currentColor"/>
<path fill-rule="evenodd" clip-rule="evenodd" d="M2.08735 5.61271C1.84127 6.71996 1.74227 8.13951 1.74227 9.96907C1.74227 11.7986 1.84127 13.2182 2.08735 14.3254C2.33155 15.4243 2.71062 16.1695 3.23964 16.6985C3.55891 17.0178 3.95694 17.2824 4.46392 17.4958V14.0975C4.46392 13.9609 4.35314 13.8501 4.21649 13.8501C3.6699 13.8501 3.2268 13.407 3.2268 12.8604V12.1118C2.72505 11.9553 2.36082 11.4871 2.36082 10.9338C2.36082 10.2525 2.91317 9.70012 3.59452 9.70012C4.27587 9.70012 4.82822 10.2525 4.82822 10.9338C4.82822 11.4846 4.4673 11.9511 3.96907 12.1096V12.8604C3.96907 12.9971 4.07985 13.1079 4.21649 13.1079C4.76309 13.1079 5.20619 13.551 5.20619 14.0975V17.7499C5.33604 17.7858 5.47145 17.8194 5.61271 17.8508C5.89008 17.9124 6.18705 17.9649 6.50515 18.0088V16.5722C6.50515 15.9231 7.03134 15.3969 7.68041 15.3969C8.32949 15.3969 8.85567 15.9231 8.85567 16.5722V17.268C8.85567 17.5072 8.66181 17.701 8.42268 17.701C8.18355 17.701 7.98969 17.5072 7.98969 17.268V16.5722C7.98969 16.4014 7.85122 16.2629 7.68041 16.2629C7.5096 16.2629 7.37113 16.4014 7.37113 16.5722V18.3814C7.37113 18.5776 7.24071 18.7433 7.06186 18.7965V18.8209C7.03392 18.8182 7.00611 18.8154 6.97842 18.8126C6.96516 18.8138 6.95172 18.8144 6.93814 18.8144C6.89257 18.8144 6.84865 18.8074 6.8074 18.7943C2.10995 18.2696 1 16.1537 1 9.96907C1 2.58304 2.58304 1 9.96907 1C17.3551 1 18.9381 2.58304 18.9381 9.96907C18.9381 16.0755 17.8561 18.2154 13.3074 18.7736C13.2516 18.7998 13.1894 18.8144 13.1237 18.8144C12.8846 18.8144 12.6907 18.6206 12.6907 18.3814V16.5722C12.6907 16.4014 12.5523 16.2629 12.3814 16.2629C12.2106 16.2629 12.0722 16.4014 12.0722 16.5722V17.2062C12.0722 17.4453 11.8783 17.6392 11.6392 17.6392C11.4 17.6392 11.2062 17.4453 11.2062 17.2062V16.5722C11.2062 15.9231 11.7324 15.3969 12.3814 15.3969C13.0305 15.3969 13.5567 15.9231 13.5567 16.5722V17.9911C13.8284 17.951 14.0843 17.9044 14.3254 17.8508C14.4224 17.8292 14.5167 17.8066 14.6082 17.783V14.0335C14.6082 13.521 15.0237 13.1056 15.5361 13.1056C15.6386 13.1056 15.7216 13.0226 15.7216 12.9201V12.1118C15.2199 11.9553 14.8557 11.4871 14.8557 10.9338C14.8557 10.2525 15.408 9.70012 16.0894 9.70012C16.7707 9.70012 17.3231 10.2525 17.3231 10.9338C17.3231 11.4846 16.9621 11.9511 16.4639 12.1096V12.9201C16.4639 13.4325 16.0485 13.8479 15.5361 13.8479C15.4336 13.8479 15.3505 13.931 15.3505 14.0335V17.546C15.9171 17.3244 16.3537 17.0433 16.6985 16.6985C17.2275 16.1695 17.6066 15.4243 17.8508 14.3254C18.0969 13.2182 18.1959 11.7986 18.1959 9.96907C18.1959 8.13951 18.0969 6.71996 17.8508 5.61271C17.6066 4.51389 17.2275 3.76866 16.6985 3.23964C16.1695 2.71062 15.4243 2.33155 14.3254 2.08735C13.3201 1.86392 12.0573 1.76174 10.4639 1.74482V2.48454C10.4639 2.50273 10.4628 2.52065 10.4606 2.53825C11.2093 2.72937 11.7629 3.40828 11.7629 4.21649C11.7629 5.17303 10.9875 5.94845 10.0309 5.94845C9.07439 5.94845 8.29897 5.17303 8.29897 4.21649C8.29897 3.40828 8.85256 2.72937 9.60124 2.53825C9.59906 2.52065 9.59794 2.50273 9.59794 2.48454V1.74368C7.94602 1.75656 6.64392 1.85817 5.61271 2.08735C4.51389 2.33155 3.76866 2.71062 3.23964 3.23964C2.71062 3.76866 2.33155 4.51389 2.08735 5.61271ZM3.59452 11.549C3.93425 11.549 4.20966 11.2736 4.20966 10.9338C4.20966 10.5941 3.93425 10.3187 3.59452 10.3187C3.25479 10.3187 2.97938 10.5941 2.97938 10.9338C2.97938 11.2736 3.25479 11.549 3.59452 11.549ZM16.0894 11.549C15.7496 11.549 15.4742 11.2736 15.4742 10.9338C15.4742 10.5941 15.7496 10.3187 16.0894 10.3187C16.4291 10.3187 16.7045 10.5941 16.7045 10.9338C16.7045 11.2736 16.4291 11.549 16.0894 11.549ZM8.91753 4.21649C8.91753 4.83141 9.41601 5.3299 10.0309 5.3299C10.6458 5.3299 11.1443 4.83141 11.1443 4.21649C11.1443 3.60158 10.6458 3.10309 10.0309 3.10309C9.41601 3.10309 8.91753 3.60158 8.91753 4.21649Z" fill="currentColor"/>
<path d="M8.6701 18.134C8.43097 18.134 8.23711 18.3279 8.23711 18.567C8.23711 18.8061 8.43097 19 8.6701 19H11.3917C11.6309 19 11.8247 18.8061 11.8247 18.567C11.8247 18.3279 11.6309 18.134 11.3917 18.134H8.6701Z" fill="currentColor"/>
<path fill-rule="evenodd" clip-rule="evenodd" d="M10.0309 7.29731L6.51859 5.90087C5.99984 5.69462 5.49486 6.22684 5.72807 6.73405L9.24413 14.3815C9.55323 15.0538 10.5086 15.0538 10.8177 14.3815L14.3338 6.73406C14.567 6.22684 14.062 5.69462 13.5433 5.90087L10.0309 7.29731ZM10.4639 7.92394V13.3741L13.5303 6.70482L10.4639 7.92394ZM9.59794 13.3741L6.53159 6.70482L9.59794 7.92394V13.3741Z" fill="currentColor"/>
</svg>
