<svg width="20" height="20" viewBox="0 0 20 20" fill="none" xmlns="http://www.w3.org/2000/svg">
<path d="M1.89928 11.4899C3.61263 13.1932 6.60068 15.5543 10.0002 15.5543C13.3997 15.5543 16.3872 13.1932 18.1006 11.4899C18.5524 11.0407 18.7791 10.8153 18.923 10.3743C19.0257 10.0596 19.0257 9.4948 18.923 9.1801C18.7791 8.73902 18.5525 8.51361 18.1006 8.06434C16.3872 6.36102 13.3997 4 10.0002 4C6.60068 4 3.61263 6.36102 1.89928 8.06434C1.44706 8.51392 1.22093 8.73887 1.07699 9.1801C0.974335 9.49479 0.974335 10.0596 1.07699 10.3743C1.22093 10.8155 1.44706 11.0403 1.89928 11.4899Z" stroke="currentColor" stroke-width="2" stroke-linecap="round" stroke-linejoin="round"/>
<path d="M8.0743 9.77717C8.0743 10.8407 8.93648 11.7029 10 11.7029C11.0636 11.7029 11.9258 10.8407 11.9258 9.77717C11.9258 8.71362 11.0636 7.85145 10 7.85145C8.93648 7.85145 8.0743 8.71362 8.0743 9.77717Z" stroke="currentColor" stroke-width="2" stroke-linecap="round" stroke-linejoin="round"/>
</svg>
