<svg width="20" height="20" viewBox="0 0 20 20" fill="none" xmlns="http://www.w3.org/2000/svg">
<g clip-path="url(#clip0_126_716)">
<path d="M15.4998 18.5L5.49996 18.4998M15.4998 18.5L16.3029 18.4998C17.4208 18.4998 17.9798 18.4998 18.4072 18.282C18.7835 18.0903 19.0903 17.7841 19.282 17.4078C19.4998 16.9804 19.4998 16.4208 19.4998 15.3029V6.71948C19.4998 6.27066 19.4998 6.04515 19.452 5.831C19.4093 5.63994 19.3391 5.45647 19.243 5.2859C19.1364 5.09669 18.9868 4.9305 18.6927 4.60374L15.9375 1.5424C15.5967 1.16373 15.424 0.971802 15.2166 0.833981C15.0301 0.710001 14.8241 0.618583 14.6072 0.562866C14.3624 0.5 14.0997 0.5 13.5749 0.5H4.70016C3.58007 0.5 3.0196 0.5 2.59179 0.717985C2.21546 0.909729 1.90973 1.21546 1.71798 1.59179C1.5 2.0196 1.5 2.58007 1.5 3.70016V15.3C1.5 16.4201 1.5 16.9794 1.71798 17.4072C1.90973 17.7835 2.21546 18.0903 2.59179 18.282C3.01919 18.4998 3.57897 18.4998 4.69688 18.4998H5.49996M15.4998 18.5V14.6968C15.4998 13.5789 15.4998 13.0191 15.2821 12.5917C15.0903 12.2153 14.7836 11.9096 14.4073 11.7179C13.9794 11.4999 13.4202 11.4999 12.3001 11.4999H8.70012C7.58002 11.4999 7.01956 11.4999 6.59174 11.7179C6.21542 11.9096 5.90969 12.2153 5.71794 12.5917C5.49996 13.0195 5.49996 13.5799 5.49996 14.7V18.4998M13.4999 4.49996H7.49994" stroke="currentColor" stroke-width="1.5" stroke-linecap="round" stroke-linejoin="round"/>
</g>
<defs>
<clipPath id="clip0_126_716">
<rect width="20" height="20" fill="white"/>
</clipPath>
</defs>
</svg>
