<svg width="20" height="20" viewBox="0 0 20 20" fill="none" xmlns="http://www.w3.org/2000/svg">
<path fill-rule="evenodd" clip-rule="evenodd" d="M5.43245 12.5448C5.17838 12.5448 4.97241 12.7508 4.97241 13.0049C4.97241 14.1905 5.93359 15.1517 7.11927 15.1517C7.37334 15.1517 7.57931 14.9458 7.57931 14.6917V13.0414C7.57931 12.7671 7.357 12.5448 7.08276 12.5448H5.43245ZM7.08276 12.9172H5.43245C5.38406 12.9172 5.34483 12.9565 5.34483 13.0049C5.34483 13.9849 6.13927 14.7793 7.11927 14.7793C7.16766 14.7793 7.2069 14.7401 7.2069 14.6917V13.0414C7.2069 12.9728 7.15132 12.9172 7.08276 12.9172Z" fill="currentColor"/>
<path fill-rule="evenodd" clip-rule="evenodd" d="M3.48276 11.8C3.48276 11.3886 3.81623 11.0552 4.22759 11.0552H8.49619C8.77043 11.0552 8.99274 11.2775 8.99274 11.5517V15.8088C8.99274 16.2201 8.65927 16.5536 8.24791 16.5536H6.95862C5.03895 16.5536 3.48276 14.9974 3.48276 13.0777V11.8ZM4.22759 11.8H8.24791V15.8088H6.95862C5.45031 15.8088 4.22759 14.586 4.22759 13.0777V11.8Z" fill="currentColor"/>
<path fill-rule="evenodd" clip-rule="evenodd" d="M5.43245 7.57931C5.17838 7.57931 4.97241 7.37334 4.97241 7.11927C4.97241 5.93359 5.93359 4.97241 7.11927 4.97241C7.37334 4.97241 7.57931 5.17838 7.57931 5.43245V7.08276C7.57931 7.357 7.357 7.57931 7.08276 7.57931H5.43245ZM7.08276 7.2069H5.43245C5.38406 7.2069 5.34483 7.16766 5.34483 7.11927C5.34483 6.13927 6.13927 5.34483 7.11927 5.34483C7.16766 5.34483 7.2069 5.38406 7.2069 5.43245V7.08276C7.2069 7.15132 7.15132 7.2069 7.08276 7.2069Z" fill="currentColor"/>
<path fill-rule="evenodd" clip-rule="evenodd" d="M3.48276 8.23636C3.48276 8.64772 3.81623 8.98119 4.22759 8.98119H8.49619C8.77043 8.98119 8.99274 8.75887 8.99274 8.48464V4.22759C8.99274 3.81623 8.65927 3.48276 8.24791 3.48276H6.95862C5.03895 3.48276 3.48276 5.03896 3.48276 6.95862V8.23636ZM4.22759 8.23636H8.24791V4.22759L6.95862 4.22759C5.45031 4.22759 4.22759 5.45031 4.22759 6.95862V8.23636Z" fill="currentColor"/>
<path fill-rule="evenodd" clip-rule="evenodd" d="M14.6917 7.57931C14.9458 7.57931 15.1517 7.37335 15.1517 7.11927C15.1517 5.9336 14.1905 4.97242 13.0049 4.97242C12.7508 4.97242 12.5448 5.17838 12.5448 5.43246V7.08276C12.5448 7.357 12.7671 7.57931 13.0414 7.57931H14.6917ZM13.0414 7.2069H14.6917C14.7401 7.2069 14.7793 7.16767 14.7793 7.11927C14.7793 6.13928 13.9849 5.34483 13.0049 5.34483C12.9565 5.34483 12.9172 5.38406 12.9172 5.43246V7.08276C12.9172 7.15132 12.9728 7.2069 13.0414 7.2069Z" fill="currentColor"/>
<path fill-rule="evenodd" clip-rule="evenodd" d="M16.6414 8.23636C16.6414 8.64772 16.3079 8.98119 15.8966 8.98119H11.6279C11.3537 8.98119 11.1314 8.75888 11.1314 8.48464V4.22759C11.1314 3.81624 11.4649 3.48277 11.8762 3.48277H13.1655C15.0852 3.48277 16.6414 5.03896 16.6414 6.95863V8.23636ZM15.8966 8.23636H11.8762V4.22759L13.1655 4.22759C14.6738 4.22759 15.8966 5.45032 15.8966 6.95863V8.23636Z" fill="currentColor"/>
<path d="M15.4 11.0552C16.0856 11.0552 16.6414 11.611 16.6414 12.2966V14.0717C16.6414 14.3254 16.4357 14.531 16.182 14.531C15.9284 14.531 15.7227 14.7367 15.7227 14.9904V15.2469C15.7227 15.6423 15.4022 15.9628 15.0068 15.9628H14.3005C14.204 15.9628 14.1257 15.8846 14.1257 15.7881V15.7386C14.1257 15.6297 14.0042 15.5556 13.8953 15.5556H12.9588C12.6845 15.5556 12.4622 15.3333 12.4622 15.0591V14.9664C12.4622 14.9388 12.4645 14.9117 12.4688 14.8853C12.4951 14.725 12.669 14.7899 12.669 14.9524C12.669 15.0625 12.7582 15.1517 12.8683 15.1517H14.7793C15.1221 15.1517 15.4 14.8738 15.4 14.531V12.7931C15.4 12.4503 15.1221 12.1724 14.7793 12.1724H13.2897C12.9469 12.1724 12.669 12.4503 12.669 12.7931V14.0321C12.669 14.0845 12.6265 14.127 12.574 14.127C12.3844 14.127 12.2308 14.2807 12.2308 14.4703V15.5225C12.2308 15.7282 12.3975 15.8949 12.6032 15.8949H12.7338C12.8718 15.8949 12.9837 16.0068 12.9837 16.1448C12.9837 16.4191 12.7613 16.6414 12.4871 16.6414H11.8482C11.8409 16.6414 11.8336 16.6412 11.8263 16.6409C11.787 16.6392 11.7474 16.6389 11.708 16.6407C11.7036 16.6409 11.6993 16.6411 11.6949 16.6412C11.6907 16.6413 11.6865 16.6413 11.6822 16.6413C11.3793 16.6413 11.1337 16.3958 11.1337 16.0928V13.4532C11.1337 13.4525 11.1332 13.452 11.1326 13.452C11.1319 13.452 11.1314 13.4515 11.1314 13.4509V12.0281C11.1314 12.0275 11.1319 12.027 11.1326 12.027C11.1332 12.027 11.1337 12.0265 11.1337 12.0258V11.4125C11.1337 11.2285 11.2829 11.0793 11.4669 11.0793H11.7879C11.7946 11.0793 11.8 11.0739 11.8 11.0672C11.8 11.0606 11.8054 11.0552 11.8121 11.0552H15.4Z" fill="currentColor"/>
<path d="M13.4138 14.5574C13.2767 14.5574 13.1655 14.4463 13.1655 14.3092V13.0414C13.1655 12.9043 13.2767 12.7931 13.4138 12.7931H14.6853C14.8224 12.7931 14.9336 12.9043 14.9336 13.0414V13.8126C14.9336 14.224 14.6001 14.5574 14.1887 14.5574H13.4138Z" fill="currentColor"/>
<path fill-rule="evenodd" clip-rule="evenodd" d="M1 10C1 2.5885 2.5885 1 10 1C17.4115 1 19 2.5885 19 10C19 17.4115 17.4115 19 10 19C2.5885 19 1 17.4115 1 10ZM1.74483 10C1.74483 8.16413 1.84417 6.73968 2.0911 5.62861C2.33614 4.526 2.71652 3.7782 3.24736 3.24736C3.7782 2.71652 4.526 2.33614 5.62861 2.0911C6.73968 1.84417 8.16413 1.74483 10 1.74483C11.8359 1.74483 13.2603 1.84417 14.3714 2.0911C15.474 2.33614 16.2218 2.71652 16.7526 3.24736C17.2835 3.7782 17.6639 4.526 17.9089 5.62861C18.1558 6.73968 18.2552 8.16413 18.2552 10C18.2552 11.8359 18.1558 13.2603 17.9089 14.3714C17.6639 15.474 17.2835 16.2218 16.7526 16.7526C16.2218 17.2835 15.474 17.6639 14.3714 17.9089C13.2603 18.1558 11.8359 18.2552 10 18.2552C8.16413 18.2552 6.73968 18.1558 5.62861 17.9089C4.526 17.6639 3.7782 17.2835 3.24736 16.7526C2.71652 16.2218 2.33614 15.474 2.0911 14.3714C1.84417 13.2603 1.74483 11.8359 1.74483 10Z" fill="currentColor"/>
</svg>
