<svg width="20" height="20" viewBox="0 0 20 20" fill="none" xmlns="http://www.w3.org/2000/svg">
<path d="M9.76159 10.2735V4.30054C9.76159 4.17193 9.93714 4.13448 9.98962 4.2519L13.1644 11.3549C13.2072 11.4506 13.1144 11.551 13.0156 11.5158L9.84082 10.3858C9.79332 10.3689 9.76159 10.3239 9.76159 10.2735Z" fill="currentColor"/>
<path fill-rule="evenodd" clip-rule="evenodd" d="M1.71523 9.64238C1.71523 7.87946 1.81063 6.51161 2.04774 5.44469C2.28305 4.3859 2.64831 3.66781 3.15806 3.15806C3.66781 2.64831 4.3859 2.28305 5.44469 2.04774C6.51161 1.81063 7.87946 1.71523 9.64238 1.71523C11.4053 1.71523 12.7732 1.81063 13.8401 2.04774C14.8989 2.28305 15.617 2.64831 16.1267 3.15806C16.6365 3.66781 17.0017 4.3859 17.237 5.44469C17.4741 6.51161 17.5695 7.87946 17.5695 9.64238C17.5695 11.4053 17.4741 12.7732 17.237 13.8401C17.0017 14.8989 16.6365 15.617 16.1267 16.1267C15.7945 16.4589 15.3737 16.7298 14.8278 16.9433V13.5587C14.8278 13.46 14.9079 13.3799 15.0066 13.3799C15.5004 13.3799 15.9007 12.9797 15.9007 12.4859V11.705C16.3807 11.5522 16.7285 11.1027 16.7285 10.572C16.7285 9.91546 16.1963 9.38323 15.5398 9.38323C14.8832 9.38323 14.351 9.91546 14.351 10.572C14.351 11.1051 14.7019 11.5563 15.1854 11.707V12.4859C15.1854 12.5847 15.1054 12.6647 15.0066 12.6647C14.5129 12.6647 14.1126 13.065 14.1126 13.5587V17.1717C14.0243 17.1945 13.9335 17.2163 13.8401 17.237C13.5728 17.2964 13.2866 17.3469 12.9801 17.3893V15.4238C12.9801 14.7984 12.4731 14.2914 11.8477 14.2914C11.6831 14.2914 11.5497 14.158 11.5497 13.9934V12.9205C11.5497 12.6901 11.3629 12.5033 11.1324 12.5033C10.902 12.5033 10.7152 12.6901 10.7152 12.9205V13.9934C10.7152 14.6188 11.2222 15.1258 11.8477 15.1258C12.0123 15.1258 12.1457 15.2593 12.1457 15.4238V17.6887C12.1457 17.7674 12.1675 17.841 12.2053 17.9038V18.1934C17.1398 17.7773 18.2848 15.8085 18.2848 9.64238C18.2848 2.52538 16.7594 1 9.64238 1C2.52538 1 1 2.52538 1 9.64238C1 15.7079 2.10796 17.712 6.84106 18.1718V18.0312C6.94915 17.9558 7.01987 17.8305 7.01987 17.6887V15.4238C7.01987 15.2593 7.15329 15.1258 7.31788 15.1258C7.94332 15.1258 8.45033 14.6188 8.45033 13.9934V12.9205C8.45033 12.6901 8.26354 12.5033 8.03311 12.5033C7.80269 12.5033 7.61589 12.6901 7.61589 12.9205V13.9934C7.61589 14.158 7.48247 14.2914 7.31788 14.2914C6.69245 14.2914 6.18543 14.7984 6.18543 15.4238V17.3722C5.9236 17.3336 5.67701 17.2887 5.44469 17.237C5.30859 17.2068 5.17811 17.1744 5.05298 17.1398V13.6205C5.05298 13.0938 4.62602 12.6668 4.09934 12.6668C3.96767 12.6668 3.86093 12.5601 3.86093 12.4284V11.705C4.34101 11.5522 4.68878 11.1027 4.68878 10.572C4.68878 9.91546 4.15655 9.38323 3.50002 9.38323C2.84348 9.38323 2.31126 9.91546 2.31126 10.572C2.31126 11.1051 2.66221 11.5563 3.1457 11.707V12.4284C3.1457 12.9551 3.57265 13.3821 4.09934 13.3821C4.23101 13.3821 4.33775 13.4888 4.33775 13.6205V16.895C3.84924 16.6894 3.46571 16.4344 3.15806 16.1267C2.64831 15.617 2.28305 14.8989 2.04774 13.8401C1.81063 12.7732 1.71523 11.4053 1.71523 9.64238ZM3.50002 11.1647C3.82738 11.1647 4.09275 10.8993 4.09275 10.572C4.09275 10.2446 3.82738 9.97926 3.50002 9.97926C3.17266 9.97926 2.90728 10.2446 2.90728 10.572C2.90728 10.8993 3.17266 11.1647 3.50002 11.1647ZM15.5398 11.1647C15.2124 11.1647 14.947 10.8993 14.947 10.572C14.947 10.2446 15.2124 9.97926 15.5398 9.97926C15.8671 9.97926 16.1325 10.2446 16.1325 10.572C16.1325 10.8993 15.8671 11.1647 15.5398 11.1647Z" fill="currentColor"/>
<path fill-rule="evenodd" clip-rule="evenodd" d="M9.58278 12.1457C9.8132 12.1457 10 12.3325 10 12.5629V15.8213C10.7167 15.984 11.2517 16.6249 11.2517 17.3907C11.2517 18.2795 10.5312 19 9.64238 19C8.75361 19 8.03311 18.2795 8.03311 17.3907C8.03311 16.668 8.50959 16.0565 9.16556 15.8533V12.5629C9.16556 12.3325 9.35236 12.1457 9.58278 12.1457ZM8.62914 17.3907C8.62914 17.9503 9.08278 18.404 9.64238 18.404C10.202 18.404 10.6556 17.9503 10.6556 17.3907C10.6556 16.8311 10.202 16.3775 9.64238 16.3775C9.08278 16.3775 8.62914 16.8311 8.62914 17.3907Z" fill="currentColor"/>
<path fill-rule="evenodd" clip-rule="evenodd" d="M9.58278 10.6672L12.9672 12.0127C13.467 12.2115 13.9536 11.6986 13.7289 11.2099L10.3409 3.84102C10.0431 3.1932 9.12248 3.1932 8.82464 3.84102L5.43664 11.2099C5.21194 11.6986 5.69852 12.2115 6.19838 12.0127L9.58278 10.6672ZM9.16556 10.0634L6.2109 11.2381L9.16556 4.81168V10.0634ZM10 10.0634L12.9547 11.2381L10 4.81168V10.0634Z" fill="currentColor"/>
</svg>
