<svg width="30" height="31" viewBox="0 0 30 31" fill="none" xmlns="http://www.w3.org/2000/svg">
<path d="M0.5 15.7124C0.5 12.6357 0.66551 10.1974 1.09477 8.26593C1.52277 6.3401 2.2063 4.94885 3.22137 3.93378C4.23644 2.91871 5.62769 2.23519 7.55351 1.80719C9.48502 1.37793 11.9233 1.21242 15 1.21242C18.0767 1.21242 20.515 1.37793 22.4465 1.80719C24.3723 2.23519 25.7636 2.91871 26.7786 3.93378C27.7937 4.94885 28.4772 6.3401 28.9052 8.26593C29.3345 10.1974 29.5 12.6357 29.5 15.7124C29.5 18.7891 29.3345 21.2274 28.9052 23.1589C28.4772 25.0847 27.7937 26.476 26.7786 27.4911C25.7636 28.5061 24.3723 29.1896 22.4465 29.6176C20.515 30.0469 18.0767 30.2124 15 30.2124C11.9233 30.2124 9.48502 30.0469 7.55351 29.6176C5.62769 29.1896 4.23644 28.5061 3.22137 27.4911C2.2063 26.476 1.52277 25.0847 1.09477 23.1589C0.66551 21.2274 0.5 18.7891 0.5 15.7124Z" fill="#191919" stroke="white"/>
<path fill-rule="evenodd" clip-rule="evenodd" d="M15.862 7.92276V11.8133C17.7857 12.1103 19.2569 13.7429 19.2569 15.7124C19.2569 17.6819 17.7857 19.3145 15.862 19.6115V23.5029C16.8113 23.7183 17.5199 24.5673 17.5199 25.5817C17.5199 26.7589 16.5656 27.7133 15.3883 27.7133C14.2111 27.7133 13.2567 26.7589 13.2567 25.5817C13.2567 24.6244 13.8879 23.8144 14.7567 23.5452V19.6327C12.7564 19.4028 11.2043 17.7353 11.2043 15.7124C11.2043 13.6895 12.7564 12.022 14.7567 11.7921V7.88045C13.8879 7.61128 13.2567 6.80134 13.2567 5.844C13.2567 4.66676 14.2111 3.71242 15.3883 3.71242C16.5656 3.71242 17.5199 4.66676 17.5199 5.844C17.5199 6.85843 16.8113 7.70736 15.862 7.92276ZM15.3883 4.50189C14.6471 4.50189 14.0462 5.10277 14.0462 5.844C14.0462 6.58522 14.6471 7.1861 15.3883 7.1861C16.1295 7.1861 16.7304 6.58522 16.7304 5.844C16.7304 5.10277 16.1295 4.50189 15.3883 4.50189ZM15.2306 18.2387C16.6961 18.2387 17.8359 17.0813 17.8359 15.7124C17.8359 14.3436 16.6961 13.1861 15.2306 13.1861C13.7651 13.1861 12.6254 14.3436 12.6254 15.7124C12.6254 17.0813 13.7651 18.2387 15.2306 18.2387ZM14.0462 25.5817C14.0462 26.3229 14.6471 26.9238 15.3883 26.9238C16.1295 26.9238 16.7304 26.3229 16.7304 25.5817C16.7304 24.8405 16.1295 24.2396 15.3883 24.2396C14.6471 24.2396 14.0462 24.8405 14.0462 25.5817Z" fill="#EDEDED"/>
<path fill-rule="evenodd" clip-rule="evenodd" d="M11.3684 4.34386C11.5726 4.34378 11.7611 4.47672 11.8224 4.68235L13.0608 8.83645C13.2273 9.39524 12.9898 9.99545 12.4859 10.2889L11.7909 10.6936C11.4622 10.885 11.0649 10.9181 10.7091 10.7838L9.2562 10.2353C9.11149 10.1807 8.94852 10.2389 8.87118 10.3728L7.42338 12.8805C7.34328 13.0192 7.37974 13.196 7.5082 13.2917L8.66225 14.1514C9.01389 14.4133 9.20452 14.8389 9.16586 15.2757L9.05159 16.5668C9.01735 16.9537 8.80705 17.3033 8.48135 17.5148L7.2877 18.29C7.15533 18.376 7.10676 18.5465 7.17395 18.6893L8.36958 21.2305C8.43877 21.3776 8.60828 21.4481 8.76137 21.3936L10.3448 20.8291C10.6937 20.7047 11.0797 20.7397 11.4005 20.9249L12.404 21.5043C12.9106 21.7968 13.1501 22.3988 12.9829 22.9594L11.9013 26.5847C11.8321 26.8166 11.6011 26.956 11.3684 26.9164V26.9312C5.09916 26.3222 3.63159 23.6677 3.63159 15.6335C3.63159 7.59927 5.09916 4.94475 11.3684 4.33577V4.34386ZM11.0255 5.32527C10.4784 5.38976 9.97764 5.47194 9.51886 5.5739C8.11642 5.88558 7.16527 6.36939 6.49008 7.04458C5.81488 7.71978 5.33107 8.67093 5.01939 10.0734C4.70532 11.4866 4.57896 13.2984 4.57896 15.6335C4.57896 17.9686 4.70532 19.7804 5.01939 21.1936C5.33107 22.596 5.81488 23.5472 6.49008 24.2223C7.16527 24.8975 8.11642 25.3814 9.51886 25.693C9.99891 25.7997 10.5249 25.8848 11.1019 25.9505L12.0751 22.6885C12.1169 22.5484 12.057 22.3979 11.9303 22.3247L10.9269 21.7454C10.8467 21.6991 10.7502 21.6903 10.6629 21.7214L9.0795 22.2859C8.46716 22.5042 7.78911 22.2221 7.51235 21.6339L6.31672 19.0926C6.04795 18.5214 6.24223 17.8394 6.7717 17.4955L7.96535 16.7203C8.04677 16.6674 8.09935 16.58 8.10791 16.4833L8.22219 15.1922C8.23185 15.083 8.18419 14.9766 8.09628 14.9111L6.94224 14.0514C6.4284 13.6686 6.28256 12.9617 6.60293 12.4068L8.05074 9.89916C8.36008 9.36337 9.01198 9.13048 9.59079 9.34899L11.0437 9.89747C11.1326 9.93105 11.232 9.92277 11.3141 9.87493L12.0091 9.4702C12.1351 9.39684 12.1945 9.24679 12.1529 9.10709L11.0255 5.32527Z" fill="#EDEDED"/>
<path fill-rule="evenodd" clip-rule="evenodd" d="M19.2632 26.8427C19.0827 26.8289 18.9185 26.7117 18.8534 26.5303L17.5189 22.8126C17.3131 22.2393 17.5458 21.6008 18.0722 21.2943L18.7362 20.9076C19.0648 20.7162 19.4622 20.6831 19.818 20.8174L21.2709 21.3659C21.4156 21.4205 21.5785 21.3623 21.6559 21.2284L23.1037 18.7207C23.1838 18.582 23.1473 18.4052 23.0189 18.3095L21.8648 17.4498C21.5132 17.1879 21.3225 16.7623 21.3612 16.3255L21.4755 15.0344C21.5097 14.6475 21.72 14.2979 22.0457 14.0864L23.2394 13.3112C23.3717 13.2252 23.4203 13.0547 23.3531 12.9119L22.1575 10.3707C22.0883 10.2236 21.9188 10.1531 21.7657 10.2076L20.1823 10.7721C19.8333 10.8965 19.4473 10.8615 19.1265 10.6763L18.1534 10.1144C17.6248 9.80926 17.39 9.16986 17.5955 8.59519L18.975 4.73714C19.0249 4.59759 19.1336 4.49593 19.2632 4.45002V4.3868C25.1332 5.08468 26.5263 7.80565 26.5263 15.6335C26.5263 23.4613 25.1332 26.1823 19.2632 26.8801V26.8427ZM19.6254 25.8769L18.4106 22.4925C18.3591 22.3492 18.4173 22.1896 18.5489 22.113L19.2129 21.7263C19.2951 21.6784 19.3944 21.6702 19.4834 21.7037L20.9363 22.2522C21.5151 22.4707 22.167 22.2378 22.4763 21.702L23.9241 19.1944C24.2445 18.6395 24.0987 17.9326 23.5848 17.5498L22.4308 16.6901C22.3429 16.6246 22.2952 16.5182 22.3049 16.409L22.4191 15.1179C22.4277 15.0212 22.4803 14.9338 22.5617 14.8809L23.7554 14.1057C24.2848 13.7618 24.4791 13.0798 24.2103 12.5086L23.0147 9.96734C22.7379 9.3791 22.0599 9.09698 21.4476 9.31529L19.8641 9.87979C19.7769 9.91089 19.6804 9.90213 19.6002 9.85582L18.627 9.29397C18.4949 9.21768 18.4362 9.05783 18.4876 8.91416L19.7415 5.40737C20.0573 5.45568 20.3562 5.51103 20.6391 5.5739C22.0415 5.88558 22.9927 6.36939 23.6678 7.04458C24.343 7.71978 24.8269 8.67093 25.1385 10.0734C25.4526 11.4866 25.579 13.2984 25.579 15.6335C25.579 17.9686 25.4526 19.7804 25.1385 21.1936C24.8269 22.596 24.343 23.5472 23.6678 24.2223C22.9927 24.8975 22.0415 25.3814 20.6391 25.693C20.3217 25.7636 19.9843 25.8246 19.6254 25.8769Z" fill="#EDEDED"/>
</svg>
