<svg width="20" height="20" viewBox="0 0 20 20" fill="none" xmlns="http://www.w3.org/2000/svg">
<path d="M18.8413 8.0422L17.3827 7.81535C17.2314 7.27151 17.0154 6.7494 16.738 6.25954L17.6095 5.0674C17.8221 4.77936 17.7897 4.38669 17.5375 4.13468L16.0933 2.69054C15.8412 2.43837 15.4487 2.40958 15.1606 2.61849L13.9685 3.49001C13.4788 3.21628 12.9565 3.0003 12.4127 2.84897L12.1858 1.39035C12.1246 1.02664 11.8257 0.770996 11.4693 0.770996H9.42719C9.07071 0.770996 8.77168 1.02663 8.71411 1.37962L8.48364 2.84187C7.9398 2.99667 7.41768 3.20919 6.93141 3.48291L5.73928 2.61502C5.45123 2.4061 5.05857 2.43489 4.80656 2.68707L3.36241 4.13121C3.11024 4.38338 3.07784 4.77588 3.29036 5.06393L4.16188 6.25606C3.88816 6.74577 3.67218 7.26808 3.52084 7.81188L2.06223 8.03873C1.69852 8.09631 1.44287 8.3952 1.44287 8.75169V10.7938C1.44287 11.1503 1.69851 11.4493 2.0515 11.5069L3.51374 11.7373C3.66508 12.2812 3.88107 12.7998 4.15478 13.2896L3.28326 14.4817C3.07435 14.7697 3.10314 15.1624 3.35531 15.4144L4.79946 16.8586C5.05163 17.1107 5.44413 17.1395 5.73218 16.9306L6.9279 16.0591C7.4176 16.3328 7.93629 16.5488 8.48013 16.7001L8.7106 18.1624C8.76455 18.5154 9.06707 18.771 9.42368 18.771H11.4658C11.8222 18.771 12.1213 18.5154 12.1788 18.1624L12.4057 16.7038C12.9495 16.549 13.4717 16.3364 13.9615 16.0627L15.1536 16.9342C15.4417 17.1431 15.8344 17.1144 16.0864 16.8622L17.5305 15.418C17.7827 15.1659 17.8151 14.7734 17.6026 14.4853L16.731 13.2932C17.0048 12.8035 17.2207 12.2812 17.3757 11.741L18.8343 11.5105C19.1873 11.4565 19.4429 11.1575 19.4429 10.7974V8.75532C19.4499 8.39523 19.1942 8.09634 18.8412 8.04224L18.8413 8.0422ZM18.7298 10.7974L17.0371 11.0639C16.893 11.0854 16.7779 11.1935 16.7418 11.334C16.5834 11.9678 16.3349 12.5728 15.9999 13.1275C15.9243 13.2535 15.9315 13.4084 16.0179 13.5272L17.0262 14.9101L15.5821 16.3543L14.1992 15.3459C14.0804 15.2595 13.9254 15.2559 13.7994 15.328C13.2448 15.6629 12.6397 15.9151 12.0023 16.0699C11.8618 16.1059 11.7537 16.2212 11.7322 16.3651L11.4693 18.0578H9.42723L9.16075 16.3651C9.13919 16.221 9.03112 16.1059 8.89064 16.0699C8.25319 15.9115 7.65181 15.6629 7.09713 15.328C7.03955 15.2919 6.97474 15.2775 6.90992 15.2775C6.83426 15.2775 6.76221 15.299 6.69739 15.3459L5.31445 16.3543L3.8703 14.9101L4.87869 13.5272C4.96506 13.4084 4.97229 13.2535 4.89662 13.1275C4.5617 12.5728 4.30953 11.9677 4.15472 11.3303C4.11869 11.1899 4.00338 11.0818 3.85944 11.0602L2.16313 10.7974V8.75527L3.85581 8.48878C3.99991 8.46723 4.11507 8.35915 4.15109 8.21868C4.30589 7.58122 4.55806 6.97622 4.893 6.42154C4.96866 6.29915 4.96143 6.14058 4.87506 6.02182L3.86667 4.63887L5.31082 3.19473L6.69377 4.20311C6.81254 4.28948 6.96749 4.29672 7.09349 4.22105C7.64817 3.88613 8.25321 3.63395 8.887 3.47914C9.02747 3.44312 9.13193 3.32781 9.1571 3.18387L9.42359 1.49118H11.4657L11.7322 3.18387C11.7537 3.32796 11.8618 3.44312 12.0023 3.47914C12.6397 3.63756 13.2447 3.88612 13.7994 4.22105C13.9218 4.29671 14.0804 4.28948 14.1991 4.20311L15.5821 3.19473L17.0262 4.63887L16.0178 6.02182C15.9315 6.14059 15.9242 6.29555 15.9999 6.42154C16.3348 6.97622 16.587 7.58126 16.7418 8.21868C16.7778 8.35915 16.8931 8.46723 17.0371 8.48878L18.7298 8.75527L18.7298 10.7974Z" fill="currentColor"/>
<path d="M10.4464 4.44785C7.50762 4.44785 5.11988 6.83918 5.11988 9.77436C5.11988 12.0865 6.60365 14.0529 8.66368 14.7875C8.68162 14.7984 8.70332 14.802 8.72126 14.8091C9.26148 14.9963 9.84132 15.1008 10.4464 15.1008C11.0514 15.1008 11.6276 14.9963 12.1715 14.8091C12.193 14.8019 12.2111 14.7982 12.229 14.7875C14.2926 14.0529 15.7728 12.0865 15.7728 9.77436C15.7728 6.83559 13.3851 4.44785 10.4463 4.44785H10.4464ZM10.4464 10.7359C10.1583 10.7359 9.92064 10.5019 9.92064 10.2102C9.92064 9.92215 10.1547 9.68445 10.4464 9.68445C10.738 9.68445 10.9721 9.91853 10.9721 10.2102C10.9721 10.4982 10.7344 10.7359 10.4464 10.7359ZM12.4271 13.9267V11.9027L13.4319 10.898C13.5003 10.8295 13.5363 10.7395 13.5363 10.6423V10.0697C14.0478 9.9149 14.4187 9.44313 14.4187 8.88482C14.4187 8.19689 13.8605 7.63874 13.1726 7.63874C12.4847 7.63874 11.9265 8.19689 11.9265 8.88482C11.9265 9.4466 12.3011 9.91474 12.8125 10.0697V10.4911L11.8078 11.4959C11.7393 11.5643 11.7033 11.6543 11.7033 11.7515V14.197C11.4116 14.2799 11.1126 14.3338 10.7994 14.359V11.3949C11.3108 11.2401 11.6854 10.7684 11.6854 10.21C11.6854 9.52212 11.1272 8.96397 10.4393 8.96397C9.75136 8.96397 9.19321 9.52212 9.19321 10.21C9.19321 10.7718 9.56777 11.24 10.0756 11.3949V14.3625C9.76582 14.3373 9.46331 14.2832 9.17526 14.2004L9.17511 11.755C9.17511 11.6578 9.13547 11.5678 9.07066 11.4994L8.0659 10.4946V10.0732C8.57733 9.91837 8.95189 9.4466 8.95189 8.88829C8.95189 8.20037 8.39373 7.64221 7.70581 7.64221C7.01789 7.64221 6.45973 8.20037 6.45973 8.88829C6.45973 9.45007 6.83429 9.91821 7.34209 10.0732V10.6458C7.34209 10.743 7.38173 10.833 7.44654 10.9014L8.4513 11.9062V13.9302C6.9027 13.1883 5.8259 11.6073 5.8259 9.77787C5.8259 7.23883 7.89315 5.17139 10.4324 5.17139C12.9711 5.17154 15.0528 7.23516 15.0528 9.7744C15.0528 11.6039 13.9794 13.185 12.4272 13.9267H12.4271ZM13.1762 9.414C12.8882 9.414 12.6505 9.17991 12.6505 8.88825C12.6505 8.59659 12.8846 8.36251 13.1762 8.36251C13.4643 8.36251 13.702 8.59659 13.702 8.88825C13.7021 9.17991 13.4644 9.414 13.1762 9.414ZM7.71661 9.414C7.42857 9.414 7.19087 9.17991 7.19087 8.88825C7.19087 8.59659 7.42495 8.36251 7.71661 8.36251C8.00465 8.36251 8.24235 8.59659 8.24235 8.88825C8.24235 9.17991 8.00465 9.414 7.71661 9.414Z" fill="currentColor"/>
</svg>
