<svg width="20" height="20" viewBox="0 0 20 20" fill="none" xmlns="http://www.w3.org/2000/svg">
<path d="M8.09556 1C7.2274 0.999999 6.34513 1.15618 5.64906 1.67502C3.47299 3.29705 2.00023 6.41439 2.00023 9.99372C2.00023 13.5729 3.4729 16.6902 5.64884 18.3123C6.34494 18.8312 7.22727 18.9874 8.0955 18.9874L10.0608 18.9874C7.51267 17.7044 5.68152 14.1623 5.68152 9.99372C5.68152 5.825 7.51277 2.28295 10.061 1L8.09556 1Z" fill="currentColor"/>
<path d="M7.24756 10.0063C7.24756 14.9734 9.86532 19 13.0945 19C16.3236 19 18.9414 14.9734 18.9414 10.0063C18.9414 5.0393 16.3237 1.01269 13.0945 1.01269C9.86532 1.01269 7.24756 5.03929 7.24756 10.0063Z" fill="currentColor"/>
</svg>
