<svg width="20" height="20" viewBox="0 0 20 20" fill="none" xmlns="http://www.w3.org/2000/svg">
<path fill-rule="evenodd" clip-rule="evenodd" d="M9.72454 2.71424C10.3942 2.71424 10.5894 2.7197 10.7639 2.7616C10.9388 2.80364 11.106 2.87281 11.2594 2.9668C11.4122 3.0605 11.5541 3.19452 12.0276 3.66822L14.7604 6.40098C15.234 6.87453 15.3681 7.01644 15.4618 7.1694C15.5558 7.3228 15.625 7.48997 15.667 7.66489C15.7089 7.83923 15.7144 8.0344 15.7144 8.70408V14.0285C15.7144 14.7627 15.7137 15.2618 15.6821 15.6475C15.6514 16.0233 15.5957 16.2156 15.5274 16.3497C15.3631 16.6722 15.1008 16.9344 14.7782 17.0989C14.6442 17.1672 14.452 17.2228 14.0762 17.2536C13.6904 17.2851 13.1913 17.2858 12.457 17.2858H6.97136C6.2371 17.2858 5.73802 17.2851 5.3523 17.2536C4.9765 17.2228 4.78434 17.1672 4.65033 17.0989C4.32775 16.9344 4.06558 16.6723 3.90112 16.3497C3.83281 16.2156 3.77713 16.0235 3.74643 15.6475C3.71486 15.2618 3.71428 14.7627 3.71428 14.0285V5.97136C3.71428 5.2371 3.715 4.73802 3.74643 4.3523C3.77714 3.9765 3.83281 3.78434 3.90112 3.65033C4.06542 3.32775 4.32772 3.06543 4.65033 2.90111C4.78435 2.83281 4.9765 2.77713 5.3523 2.74643C5.73816 2.71486 6.23725 2.71428 6.97136 2.71428L9.72454 2.71424ZM11.164 1.09474C10.7673 0.999455 10.3562 0.999745 9.81193 1.00003H6.93613C6.2462 1.00003 5.67666 1.00003 5.21273 1.03791C4.73088 1.07723 4.28804 1.16175 3.87205 1.37369C3.22691 1.70244 2.7024 2.22694 2.37366 2.87208C2.16172 3.28807 2.0772 3.73106 2.03788 4.21277C2 4.67669 2 5.24609 2 5.93601V14.064C2 14.7541 2 15.3235 2.03788 15.7873C2.0772 16.2691 2.16172 16.712 2.37366 17.1279C2.70241 17.7731 3.22691 18.2976 3.87205 18.6263C4.28804 18.8383 4.73103 18.9228 5.21273 18.9621C5.67666 19 6.24606 19 6.93598 19H12.4925C13.1826 19 13.752 19 14.2158 18.9621C14.6976 18.9228 15.1405 18.8383 15.5565 18.6263C16.2016 18.2976 16.7261 17.7731 17.0547 17.1279C17.2666 16.712 17.3512 16.2691 17.3905 15.7873C17.4284 15.3233 17.4284 14.7539 17.4284 14.064V8.61657C17.4286 8.0723 17.4289 7.66102 17.3337 7.26439C17.2497 6.91455 17.1111 6.58005 16.9231 6.27339C16.7099 5.92555 16.419 5.63497 16.034 5.25024L15.9722 5.18854L13.1777 2.3941C12.793 2.00911 12.5024 1.7181 12.1546 1.505C11.8478 1.31701 11.5133 1.17854 11.1635 1.09444L11.164 1.09474ZM6.28591 10.0001C5.81251 10.0001 5.42881 10.3838 5.42881 10.8572C5.42881 11.3306 5.81251 11.7143 6.28591 11.7143H11.4288C11.9022 11.7143 12.2859 11.3306 12.2859 10.8572C12.2859 10.3838 11.9022 10.0001 11.4288 10.0001H6.28591ZM6.28591 13.4286C5.81251 13.4286 5.42881 13.8123 5.42881 14.2857C5.42881 14.7591 5.81251 15.1428 6.28591 15.1428H13.1433C13.6167 15.1428 14.0004 14.7591 14.0004 14.2857C14.0004 13.8123 13.6167 13.4286 13.1433 13.4286H6.28591Z" fill="currentColor"/>
</svg>
