<svg width="20" height="20" viewBox="0 0 20 20" fill="none" xmlns="http://www.w3.org/2000/svg">
<path d="M16.5031 1.00019C16.0297 1.00019 15.5824 1.18543 15.2474 1.52236L6.2326 10.5355C6.08469 10.5486 5.93509 10.5692 5.78157 10.6029C4.9094 10.8013 4.0055 11.3328 3.23636 12.1019C1.91316 13.4251 1.69606 17.2318 2.37541 18.463C2.61496 18.899 2.91807 19 3.14639 19C3.21375 19 3.27368 18.9906 3.3242 18.9794C3.8183 18.8689 3.98854 18.4965 4.15329 18.1353C4.40028 17.5963 4.70719 16.9225 6.23809 16.449C7.39654 16.0896 8.38461 14.9967 8.69728 13.7316C8.75903 13.4827 8.79088 13.2375 8.7965 12.9999L17.7609 4.03554C18.0958 3.70058 18.2811 3.25333 18.2811 2.77787C18.2811 2.30255 18.0958 1.85714 17.7609 1.52218C17.4259 1.18538 16.9787 1 16.5032 1L16.5031 1.00019ZM8.15267 13.5973C7.93936 14.46 7.36287 15.2273 6.64242 15.6559C6.66304 15.4725 6.63302 15.2797 6.53955 15.0982C6.31684 14.6641 5.84898 14.4694 5.40356 14.6229C5.3849 14.6285 5.3661 14.6379 5.34926 14.6472C5.27445 14.6921 5.19391 14.7052 5.11715 14.6809C5.03295 14.6566 4.95619 14.5911 4.90567 14.4993C4.60059 13.2436 4.22816 13.0302 3.65178 13.077C3.47776 13.092 3.40283 13.0976 3.29436 12.9516C3.39723 12.7775 3.50963 12.6222 3.63313 12.4987C4.32748 11.8043 5.13399 11.3252 5.90511 11.1512C6.11098 11.1045 6.30941 11.082 6.49646 11.082C6.63118 11.082 6.76029 11.0951 6.88392 11.1195C6.32064 11.3647 5.75535 11.8007 5.51216 12.0029C5.39232 12.1021 5.37548 12.278 5.47287 12.3978C5.57208 12.5176 5.74793 12.5345 5.86775 12.4353C6.62189 11.8158 7.52214 11.3666 7.68689 11.5314C7.88154 11.726 7.31066 12.5982 6.6894 13.2194C6.58091 13.3299 6.58091 13.5077 6.6894 13.6162C6.74553 13.6723 6.81668 13.6985 6.88782 13.6985C6.9608 13.6985 7.03194 13.6723 7.08625 13.6162C7.10309 13.6011 7.4942 13.2082 7.82174 12.7403C7.94719 12.5607 8.04628 12.3941 8.12121 12.237C8.25789 12.6413 8.27473 13.1072 8.15306 13.5975L8.15267 13.5973ZM8.72157 12.2816C8.61491 11.8437 8.39964 11.4507 8.08332 11.1344C7.78764 10.8387 7.41521 10.6515 6.99225 10.5693L8.47824 9.08331C8.49325 9.11516 8.51192 9.14688 8.53816 9.17312L10.1102 10.7433C10.1364 10.7695 10.1663 10.79 10.2 10.8032L8.72157 12.2816Z" fill="currentColor"/>
</svg>
