<svg width="20" height="20" viewBox="0 0 20 20" fill="none" xmlns="http://www.w3.org/2000/svg">
<path d="M4 9.07159C4.8724 10.9163 7.28099 12.2419 10.1157 12.2419C12.9504 12.2419 15.3589 10.9163 16.2314 9.0717V6.89303C15.3589 8.58394 12.9504 9.79906 10.1157 9.79906C7.28099 9.79906 4.8724 8.58387 4 6.89293V9.07159Z" fill="currentColor"/>
<path d="M10.1157 15.6007C7.28099 15.6007 4.8724 14.2751 4 12.4304V10.2518C4.8724 11.9427 7.28099 13.1579 10.1157 13.1579C12.9504 13.1579 15.3589 11.9428 16.2314 10.2519V12.4306C15.3589 14.2752 12.9504 15.6007 10.1157 15.6007Z" fill="currentColor"/>
<path d="M10.1243 19C7.28962 19 4.88103 17.6743 4.00863 15.8297V13.651C4.88103 15.342 7.28962 16.5571 10.1243 16.5571C12.959 16.5571 15.3676 15.342 16.24 13.6511V15.8298C15.3676 17.6744 12.959 19 10.1243 19Z" fill="currentColor"/>
<path d="M10.1243 8.75986C13.5019 8.75986 16.24 7.02276 16.24 4.87994C16.24 2.7371 13.5019 1 10.1243 1C6.74671 1 4.00863 2.7371 4.00863 4.87994C4.00863 7.02276 6.74671 8.75986 10.1243 8.75986Z" fill="currentColor"/>
</svg>
