<svg width="20" height="20" viewBox="0 0 20 20" fill="none" xmlns="http://www.w3.org/2000/svg">
<path fill-rule="evenodd" clip-rule="evenodd" d="M18.9671 4.73335V4.55144C18.9671 3.69461 18.2921 3 17.4594 3H2.95756C2.12485 3 1.44981 3.6946 1.44981 4.55144V6.10289H1.46007C1.45329 6.16255 1.44981 6.22325 1.44981 6.28479V6.53054H1.4521V6.91841H1.44981V7.22143H5.15365C6.12691 7.22143 6.91589 8.03035 6.91589 9.02822V11.4132C6.91589 12.4111 6.12691 13.22 5.15365 13.22H1.44981V14.5712H1.4521V14.959H1.44981V15.1286C1.44981 15.1575 1.45058 15.1862 1.4521 15.2147V15.2604H1.45518C1.52019 16.0555 2.168 16.68 2.95756 16.68H17.4921C18.2816 16.68 18.9294 16.0555 18.9945 15.2604H18.9998V4.73335H18.9671ZM17.4594 3.77572H2.95756C2.54121 3.77572 2.20369 4.12302 2.20369 4.55144V5.52C2.42546 5.388 2.68293 5.31245 2.95756 5.31245H18.2133V4.55144C18.2133 4.12303 17.8757 3.77572 17.4594 3.77572ZM2.16997 8.04823V8.0399H4.98302C5.63035 8.0399 6.15512 8.59046 6.15512 9.26961V11.1142C6.15512 11.7933 5.63035 12.3439 4.98302 12.3439H2.05488V12.3599H1.81898C1.36667 12.3599 1 11.9738 1 11.4976V8.91057C1 8.43431 1.36667 8.04823 1.81898 8.04823H2.16997ZM1.81898 8.78738H2.16997V8.80046C2.21638 8.79186 2.26415 8.78738 2.3129 8.78738H4.528C4.91824 8.78738 5.24474 9.07478 5.32699 9.45954V10.9486C5.24474 11.3334 4.91824 11.6208 4.528 11.6208H2.3129C2.26415 11.6208 2.21638 11.6163 2.16997 11.6077V11.6208H1.81898C1.75436 11.6208 1.70198 11.5656 1.70198 11.4976V8.91057C1.70198 8.84253 1.75436 8.78738 1.81898 8.78738ZM4.04191 10.7584C4.36499 10.7584 4.62689 10.4827 4.62689 10.1425C4.62689 9.80229 4.36499 9.52652 4.04191 9.52652C3.71883 9.52652 3.41912 9.80229 3.41912 10.1425C3.41912 10.4827 3.71883 10.7584 4.04191 10.7584Z" fill="currentColor"/>
</svg>
