<svg width="194" height="276" viewBox="0 0 194 276" fill="none" xmlns="http://www.w3.org/2000/svg">
<rect width="194" height="276" rx="15" fill="black"/>
<path d="M15 2H179C186.18 2 192 7.8203 192 15V261C192 268.18 186.18 274 179 274H15C7.82029 274 2 268.18 2 261V15C2 7.8203 7.8203 2 15 2Z" fill="#0E0E0E" stroke="#85FE9D" stroke-width="4"/>
<path d="M149 85.5C149 114.495 125.495 138 96.5 138C67.5051 138 44 114.495 44 85.5C44 56.5051 67.5051 33 96.5 33C125.495 33 149 56.5051 149 85.5Z" fill="black"/>
<mask id="mask0_447_7814" style="mask-type:alpha" maskUnits="userSpaceOnUse" x="44" y="33" width="105" height="105">
<circle cx="96.5" cy="85.5" r="52.5" fill="#D9D9D9"/>
</mask>
<g mask="url(#mask0_447_7814)">
<rect x="-1.9375" y="13.3125" width="98.4375" height="146.016" fill="#0E0E0E"/>
<rect x="96.5" y="13.3125" width="98.4375" height="146.016" fill="#85FE9D"/>
<circle cx="96.5003" cy="85.3902" r="20.6807" fill="#0E0E0E"/>
<path d="M96.4997 106.071C93.7839 106.071 91.0947 105.536 88.5856 104.497C86.0765 103.457 83.7966 101.934 81.8763 100.014C79.9559 98.0933 78.4325 95.8135 77.3932 93.3044C76.3539 90.7953 75.819 88.106 75.819 85.3902C75.819 82.6744 76.3539 79.9851 77.3932 77.476C78.4325 74.9669 79.9559 72.6871 81.8763 70.7667C83.7966 68.8463 86.0765 67.323 88.5856 66.2837C91.0947 65.2444 93.7839 64.7095 96.4997 64.7095L96.4997 85.3902L96.4997 106.071Z" fill="#85FE9D"/>
<path d="M96.4999 181.456C106.497 181.456 116.084 177.485 123.152 170.416C130.221 163.347 134.192 153.76 134.192 143.763C134.192 133.767 130.221 124.18 123.152 117.111C116.084 110.042 106.497 106.071 96.4999 106.071L96.4999 143.763L96.4999 181.456Z" fill="#0E0E0E"/>
<path d="M96.4999 106.071C91.5501 106.071 86.6487 107.046 82.0757 108.94C77.5027 110.834 73.3475 113.611 69.8474 117.111C66.3474 120.611 63.571 124.766 61.6768 129.339C59.7826 133.912 58.8076 138.814 58.8076 143.763C58.8076 148.713 59.7826 153.615 61.6768 158.188C63.571 162.761 66.3474 166.916 69.8474 170.416C73.3475 173.916 77.5027 176.692 82.0757 178.587C86.6487 180.481 91.5501 181.456 96.4999 181.456L96.4999 143.763L96.4999 106.071Z" fill="#85FE9D"/>
</g>
<path d="M96.5 33C103.394 33 110.221 34.3579 116.591 36.9963C122.96 39.6347 128.748 43.5018 133.623 48.3769C138.498 53.252 142.365 59.0395 145.004 65.4091C147.642 71.7787 149 78.6056 149 85.5C149 92.3944 147.642 99.2213 145.004 105.591C142.365 111.96 138.498 117.748 133.623 122.623C128.748 127.498 122.96 131.365 116.591 134.004C110.221 136.642 103.394 138 96.5 138L96.5 85.5L96.5 33Z" fill="black" fill-opacity="0.5"/>
<path d="M147 85.5C147 113.39 124.39 136 96.5 136C68.6096 136 46 113.39 46 85.5C46 57.6096 68.6096 35 96.5 35C124.39 35 147 57.6096 147 85.5Z" stroke="#85FE9D" stroke-width="4"/>
<rect x="81" y="181.172" width="79" height="10" rx="5" fill="#85FE9D"/>
<rect x="34" y="212.172" width="126" height="10" rx="5" fill="#85FE9D"/>
<path fill-rule="evenodd" clip-rule="evenodd" d="M55.0384 185.484L48.8648 191.658L35.4141 178.207C34.6331 177.426 34.6331 176.16 35.4141 175.379L38.937 171.856C39.7181 171.075 40.9844 171.075 41.7655 171.856L50.1348 180.225C49.7151 179.15 49.9396 177.88 50.8084 177.012L66.2343 161.586C67.0154 160.805 68.2817 160.805 69.0627 161.586L72.5857 165.109C73.3667 165.89 73.3667 167.156 72.5857 167.937L55.2161 185.307L55.0384 185.484L55.0384 185.484Z" fill="#85FE9D"/>
</svg>
