<svg width="194" height="276" viewBox="0 0 194 276" fill="none" xmlns="http://www.w3.org/2000/svg">
<path d="M15 2H179C186.18 2 192 7.8203 192 15V261C192 268.18 186.18 274 179 274H15C7.82029 274 2 268.18 2 261V15C2 7.8203 7.8203 2 15 2Z" stroke="#FF4D00" stroke-width="4"/>
<mask id="mask0_103_26" style="mask-type:alpha" maskUnits="userSpaceOnUse" x="44" y="33" width="105" height="105">
<circle cx="96.5" cy="85.5" r="52.5" fill="#D9D9D9"/>
</mask>
<g mask="url(#mask0_103_26)">
<rect x="96.5" y="13.3125" width="98.4375" height="146.016" fill="#FF4D00"/>
<path d="M96.4999 106.071C93.7841 106.071 91.0949 105.536 88.5858 104.497C86.0767 103.457 83.7968 101.934 81.8764 100.014C79.9561 98.0933 78.4327 95.8135 77.3934 93.3044C76.3541 90.7953 75.8192 88.106 75.8192 85.3902C75.8192 82.6744 76.3541 79.9851 77.3934 77.476C78.4327 74.9669 79.9561 72.6871 81.8764 70.7667C83.7968 68.8463 86.0767 67.323 88.5858 66.2837C91.0949 65.2444 93.7841 64.7095 96.4999 64.7095L96.4999 85.3902L96.4999 106.071Z" fill="#FF4D00"/>
<path d="M96.4999 106.071C91.5501 106.071 86.6487 107.046 82.0757 108.94C77.5027 110.835 73.3475 113.611 69.8474 117.111C66.3474 120.611 63.571 124.766 61.6768 129.339C59.7826 133.912 58.8076 138.814 58.8076 143.764C58.8076 148.713 59.7826 153.615 61.6768 158.188C63.571 162.761 66.3474 166.916 69.8474 170.416C73.3475 173.916 77.5027 176.693 82.0757 178.587C86.6487 180.481 91.5501 181.456 96.4999 181.456L96.4999 143.764L96.4999 106.071Z" fill="#FF4D00"/>
</g>
<path d="M96.5 33C103.394 33 110.221 34.3579 116.591 36.9963C122.96 39.6347 128.748 43.5018 133.623 48.3769C138.498 53.252 142.365 59.0395 145.004 65.4091C147.642 71.7787 149 78.6056 149 85.5C149 92.3944 147.642 99.2213 145.004 105.591C142.365 111.96 138.498 117.748 133.623 122.623C128.748 127.498 122.96 131.365 116.591 134.004C110.221 136.642 103.394 138 96.5 138L96.5 85.5L96.5 33Z" fill="#FF4D00" fill-opacity="0.5"/>
<path d="M147 85.5C147 113.39 124.39 136 96.5 136C68.6096 136 46 113.39 46 85.5C46 57.6096 68.6096 35 96.5 35C124.39 35 147 57.6096 147 85.5Z" stroke="#FF4D00" stroke-width="4"/>
<rect x="81" y="181.172" width="79" height="10" rx="5" fill="#FF4D00"/>
<rect x="34" y="212.172" width="126" height="10" rx="5" fill="#FF4D00"/>
<path fill-rule="evenodd" clip-rule="evenodd" d="M55.0382 185.484L48.8646 191.658L35.4139 178.207C34.6329 177.426 34.6329 176.16 35.4139 175.379L38.9368 171.856C39.7179 171.075 40.9842 171.075 41.7653 171.856L50.1346 180.225C49.7149 179.15 49.9394 177.881 50.8082 177.012L66.2341 161.586C67.0152 160.805 68.2815 160.805 69.0625 161.586L72.5855 165.109C73.3665 165.89 73.3665 167.156 72.5855 167.937L55.2159 185.307L55.0382 185.484L55.0382 185.484Z" fill="#FF4D00"/>
</svg>
