<svg width="141" height="200" viewBox="0 0 141 200" fill="none" xmlns="http://www.w3.org/2000/svg">
<path d="M15 2H125.58C132.759 2 138.58 7.8203 138.58 15V185C138.58 192.18 132.759 198 125.58 198H15C7.8203 198 2 192.18 2 185V15C2 7.8203 7.8203 2 15 2Z" stroke="currentColor" stroke-width="4"/>
<mask id="mask0_103_26" style="mask-type:alpha" maskUnits="userSpaceOnUse" x="31" y="23" width="77" height="77">
<circle cx="69.9278" cy="61.9566" r="38.0435" fill="#D9D9D9"/>
</mask>
<g mask="url(#mask0_103_26)">
<rect x="69.9277" y="9.64697" width="71.3315" height="105.808" fill="currentColor"/>
<path d="M69.9275 76.8632C67.9595 76.8632 66.0108 76.4756 64.1926 75.7224C62.3744 74.9693 60.7224 73.8655 59.3308 72.4739C57.9392 71.0823 56.8354 69.4302 56.0822 67.612C55.3291 65.7939 54.9415 63.8451 54.9415 61.8771C54.9415 59.9091 55.3291 57.9604 56.0822 56.1422C56.8354 54.324 57.9392 52.672 59.3308 51.2804C60.7224 49.8888 62.3744 48.785 64.1926 48.0318C66.0108 47.2787 67.9595 46.8911 69.9275 46.8911L69.9275 61.8771L69.9275 76.8632Z" fill="currentColor"/>
<path d="M69.9275 76.8633C66.3407 76.8633 62.789 77.5698 59.4752 78.9424C56.1614 80.315 53.1504 82.3269 50.6141 84.8632C48.0779 87.3994 46.066 90.4104 44.6934 93.7242C43.3207 97.038 42.6143 100.59 42.6143 104.177C42.6143 107.763 43.3207 111.315 44.6934 114.629C46.066 117.943 48.0779 120.954 50.6141 123.49C53.1504 126.026 56.1614 128.038 59.4752 129.411C62.789 130.783 66.3407 131.49 69.9275 131.49L69.9275 104.177L69.9275 76.8633Z" fill="currentColor"/>
</g>
<path d="M105.971 61.9566C105.971 81.8628 89.834 98 69.9278 98C50.0215 98 33.8843 81.8628 33.8843 61.9566C33.8843 42.0503 50.0215 25.9131 69.9278 25.9131C89.834 25.9131 105.971 42.0503 105.971 61.9566Z" stroke="currentColor" stroke-width="4"/>
<rect x="58.6958" y="131.284" width="57.2464" height="7.24638" rx="3.62319" fill="currentColor"/>
<rect x="24.6377" y="153.748" width="91.3043" height="7.24638" rx="3.62319" fill="currentColor"/>
<path fill-rule="evenodd" clip-rule="evenodd" d="M39.8827 134.409L35.409 138.882L26.0516 129.525C25.2706 128.744 25.2706 127.477 26.0516 126.696L27.8256 124.922C28.6067 124.141 29.873 124.141 30.654 124.922L36.8009 131.069C36.2862 129.96 36.4865 128.6 37.4017 127.685L47.6063 117.48C48.3874 116.699 49.6537 116.699 50.4348 117.48L52.2088 119.254C52.9898 120.035 52.9898 121.302 52.2088 122.083L39.8828 134.409L39.8827 134.409Z" fill="currentColor"/>
</svg>
