<svg width="203" height="201" viewBox="0 0 203 201" fill="none" xmlns="http://www.w3.org/2000/svg">
<g opacity="0.7">
<circle cx="173.111" cy="37.2339" r="11.323" stroke="currentColor" stroke-width="1.5"/>
<mask id="path-2-inside-1_113_398" fill="currentColor">
<path fill-rule="evenodd" clip-rule="evenodd" d="M143.646 35.1088C144.068 19.6264 157.09 7.20166 173.093 7.20166C189.096 7.20166 202.118 19.6264 202.54 35.1088H202.551V201H143.636V35.9764C143.636 35.9455 143.636 35.9147 143.636 35.8838C143.636 35.8529 143.636 35.8221 143.636 35.7912V35.1088H143.646Z"/>
</mask>
<path d="M143.646 35.1088V36.6088H145.106L145.146 35.1496L143.646 35.1088ZM202.54 35.1088L201.04 35.1496L201.08 36.6088H202.54V35.1088ZM202.551 35.1088H204.051V33.6088H202.551V35.1088ZM202.551 201V202.5H204.051V201H202.551ZM143.636 201H142.136V202.5H143.636V201ZM143.636 35.9764L145.136 35.9764L145.136 35.9715L143.636 35.9764ZM143.636 35.7912L145.136 35.7961V35.7912H143.636ZM143.636 35.1088V33.6088H142.136V35.1088H143.636ZM145.146 35.1496C145.544 20.5132 157.869 8.70166 173.093 8.70166V5.70166C156.312 5.70166 142.592 18.7395 142.147 35.0679L145.146 35.1496ZM173.093 8.70166C188.317 8.70166 200.642 20.5132 201.04 35.1496L204.039 35.0679C203.594 18.7395 189.874 5.70166 173.093 5.70166V8.70166ZM202.54 36.6088H202.551V33.6088H202.54V36.6088ZM201.051 35.1088V201H204.051V35.1088H201.051ZM202.551 199.5H143.636V202.5H202.551V199.5ZM145.136 201V35.9764H142.136V201H145.136ZM145.136 35.9715C145.136 35.9423 145.136 35.9131 145.136 35.8838H142.136C142.136 35.9163 142.136 35.9488 142.136 35.9813L145.136 35.9715ZM145.136 35.8838C145.136 35.8546 145.136 35.8253 145.136 35.7961L142.136 35.7863C142.136 35.8188 142.136 35.8513 142.136 35.8838H145.136ZM145.136 35.7912V35.1088H142.136V35.7912H145.136ZM143.636 36.6088H143.646V33.6088H143.636V36.6088Z" fill="currentColor" mask="url(#path-2-inside-1_113_398)"/>
<path d="M150.464 7.7937L5.00012 7.7937C2.79098 7.7937 1.00012 9.58457 1.00012 11.7937L1.00012 58.1443C1.00012 60.3535 2.79099 62.1443 5.00013 62.1443L136.877 62.1443" stroke="currentColor" stroke-width="1.5" stroke-linecap="round"/>
<rect x="28.6763" y="19.6167" width="87.3198" height="28.4399" rx="1.5" fill="currentColor" stroke="currentColor"/>
<path d="M28.1763 3.26461V2C28.1763 1.44771 28.624 1 29.1763 1H54.3516C54.9039 1 55.3516 1.44772 55.3516 2V3.26461" stroke="currentColor" stroke-width="1.5"/>
<path d="M91.585 3.26461V2C91.585 1.44771 92.0327 1 92.585 1H115.496C116.048 1 116.496 1.44772 116.496 2V3.26461" stroke="currentColor" stroke-width="1.5"/>
<mask id="path-8-inside-2_113_398" fill="currentColor">
<path fill-rule="evenodd" clip-rule="evenodd" d="M160.114 24.2362C160.504 23.8456 160.504 23.2125 160.114 22.8219C159.723 22.4314 159.09 22.4314 158.7 22.8219C155.849 25.6723 153.908 29.304 153.122 33.2576C152.335 37.2112 152.739 41.3093 154.281 45.0335C155.824 48.7577 158.436 51.9409 161.788 54.1804C164.862 56.2345 168.432 57.4101 172.112 57.5908L172.112 132.347L174.112 132.347L174.112 57.5908C177.792 57.4099 181.361 56.2343 184.435 54.1804C187.787 51.9409 190.399 48.7577 191.942 45.0335C193.484 41.3093 193.888 37.2112 193.101 33.2576C192.315 29.304 190.374 25.6723 187.523 22.8219C187.133 22.4314 186.5 22.4314 186.109 22.8219C185.719 23.2125 185.719 23.8456 186.109 24.2362C188.68 26.8069 190.431 30.0821 191.14 33.6478C191.849 37.2134 191.485 40.9094 190.094 44.2681C188.703 47.6269 186.347 50.4977 183.324 52.5175C180.579 54.3515 177.396 55.4091 174.112 55.5881V55.3505H172.112V55.5881C168.827 55.4093 165.644 54.3517 162.899 52.5175C159.876 50.4977 157.52 47.6269 156.129 44.2681C154.738 40.9093 154.374 37.2134 155.083 33.6478C155.792 30.0821 157.543 26.8069 160.114 24.2362ZM173.111 141.671C174.508 141.671 175.641 140.538 175.641 139.141C175.641 137.745 174.508 136.612 173.111 136.612C171.715 136.612 170.582 137.745 170.582 139.141C170.582 140.538 171.715 141.671 173.111 141.671ZM173.111 143.671C175.613 143.671 177.641 141.643 177.641 139.141C177.641 136.64 175.613 134.612 173.111 134.612C170.61 134.612 168.582 136.64 168.582 139.141C168.582 141.643 170.61 143.671 173.111 143.671ZM172.113 166.317V145.935H174.113V166.317H172.113ZM173.979 178.404C173.594 179.071 172.632 179.071 172.247 178.404L166.134 167.817C165.749 167.15 166.23 166.317 167 166.317H179.226C179.996 166.317 180.477 167.15 180.092 167.817L173.979 178.404Z"/>
</mask>
<path fill-rule="evenodd" clip-rule="evenodd" d="M160.114 24.2362C160.504 23.8456 160.504 23.2125 160.114 22.8219C159.723 22.4314 159.09 22.4314 158.7 22.8219C155.849 25.6723 153.908 29.304 153.122 33.2576C152.335 37.2112 152.739 41.3093 154.281 45.0335C155.824 48.7577 158.436 51.9409 161.788 54.1804C164.862 56.2345 168.432 57.4101 172.112 57.5908L172.112 132.347L174.112 132.347L174.112 57.5908C177.792 57.4099 181.361 56.2343 184.435 54.1804C187.787 51.9409 190.399 48.7577 191.942 45.0335C193.484 41.3093 193.888 37.2112 193.101 33.2576C192.315 29.304 190.374 25.6723 187.523 22.8219C187.133 22.4314 186.5 22.4314 186.109 22.8219C185.719 23.2125 185.719 23.8456 186.109 24.2362C188.68 26.8069 190.431 30.0821 191.14 33.6478C191.849 37.2134 191.485 40.9094 190.094 44.2681C188.703 47.6269 186.347 50.4977 183.324 52.5175C180.579 54.3515 177.396 55.4091 174.112 55.5881V55.3505H172.112V55.5881C168.827 55.4093 165.644 54.3517 162.899 52.5175C159.876 50.4977 157.52 47.6269 156.129 44.2681C154.738 40.9093 154.374 37.2134 155.083 33.6478C155.792 30.0821 157.543 26.8069 160.114 24.2362ZM173.111 141.671C174.508 141.671 175.641 140.538 175.641 139.141C175.641 137.745 174.508 136.612 173.111 136.612C171.715 136.612 170.582 137.745 170.582 139.141C170.582 140.538 171.715 141.671 173.111 141.671ZM173.111 143.671C175.613 143.671 177.641 141.643 177.641 139.141C177.641 136.64 175.613 134.612 173.111 134.612C170.61 134.612 168.582 136.64 168.582 139.141C168.582 141.643 170.61 143.671 173.111 143.671ZM172.113 166.317V145.935H174.113V166.317H172.113ZM173.979 178.404C173.594 179.071 172.632 179.071 172.247 178.404L166.134 167.817C165.749 167.15 166.23 166.317 167 166.317H179.226C179.996 166.317 180.477 167.15 180.092 167.817L173.979 178.404Z" fill="currentColor"/>
<path d="M160.114 22.8219L158.7 24.2362L158.7 24.2362L160.114 22.8219ZM160.114 24.2362L161.528 25.6504L161.528 25.6504L160.114 24.2362ZM158.7 22.8219L160.114 24.2362L160.114 24.2362L158.7 22.8219ZM153.122 33.2576L155.083 33.6478L155.083 33.6478L153.122 33.2576ZM154.281 45.0335L152.434 45.7989L152.434 45.7989L154.281 45.0335ZM161.788 54.1804L162.899 52.5175L162.899 52.5175L161.788 54.1804ZM172.112 57.5908L174.112 57.5908L174.112 55.6866L172.21 55.5932L172.112 57.5908ZM172.112 132.347L170.112 132.347L170.112 134.347L172.112 134.347L172.112 132.347ZM174.112 132.347L174.112 134.347L176.112 134.347L176.112 132.347L174.112 132.347ZM174.112 57.5908L174.014 55.5932L172.112 55.6866L172.112 57.5908L174.112 57.5908ZM184.435 54.1804L185.546 55.8434L185.546 55.8434L184.435 54.1804ZM191.942 45.0335L193.789 45.7989L193.789 45.7989L191.942 45.0335ZM193.101 33.2576L195.063 32.8674L195.063 32.8674L193.101 33.2576ZM187.523 22.8219L188.938 21.4077L188.938 21.4077L187.523 22.8219ZM186.109 22.8219L184.695 21.4077L184.695 21.4077L186.109 22.8219ZM186.109 24.2362L184.695 25.6504L184.695 25.6504L186.109 24.2362ZM191.14 33.6478L193.101 33.2576L193.101 33.2576L191.14 33.6478ZM190.094 44.2681L188.246 43.5028L188.246 43.5028L190.094 44.2681ZM183.324 52.5175L184.435 54.1804L184.435 54.1804L183.324 52.5175ZM174.112 55.5881H172.112V57.7001L174.221 57.5851L174.112 55.5881ZM174.112 55.3505H176.112V53.3505H174.112V55.3505ZM172.112 55.3505V53.3505H170.112V55.3505H172.112ZM172.112 55.5881L172.003 57.5852L174.112 57.7V55.5881H172.112ZM162.899 52.5175L161.788 54.1804L161.788 54.1804L162.899 52.5175ZM156.129 44.2681L157.977 43.5028L157.977 43.5028L156.129 44.2681ZM155.083 33.6478L153.122 33.2576L153.122 33.2576L155.083 33.6478ZM172.113 145.935V143.935H170.113V145.935H172.113ZM172.113 166.317H170.113V168.317H172.113V166.317ZM174.113 145.935H176.113V143.935H174.113V145.935ZM174.113 166.317V168.317H176.113V166.317H174.113ZM172.247 178.404L173.979 177.404L173.979 177.404L172.247 178.404ZM173.979 178.404L175.711 179.404L175.711 179.404L173.979 178.404ZM166.134 167.817L167.866 166.817L167.866 166.817L166.134 167.817ZM180.092 167.817L178.36 166.817L178.36 166.817L180.092 167.817ZM158.7 24.2362C158.309 23.8456 158.309 23.2125 158.7 22.8219L161.528 25.6504C162.7 24.4788 162.7 22.5793 161.528 21.4077L158.7 24.2362ZM160.114 24.2362C159.723 24.6267 159.09 24.6267 158.7 24.2362L161.528 21.4077C160.356 20.2362 158.457 20.2362 157.285 21.4077L160.114 24.2362ZM155.083 33.6478C155.792 30.0821 157.543 26.8069 160.114 24.2362L157.285 21.4077C154.155 24.5378 152.024 28.5258 151.16 32.8674L155.083 33.6478ZM156.129 44.2681C154.738 40.9093 154.374 37.2134 155.083 33.6478L151.16 32.8674C150.296 37.209 150.74 41.7092 152.434 45.7989L156.129 44.2681ZM162.899 52.5175C159.876 50.4977 157.52 47.6269 156.129 44.2681L152.434 45.7989C154.128 49.8885 156.996 53.3841 160.677 55.8434L162.899 52.5175ZM172.21 55.5932C168.891 55.4303 165.672 54.37 162.899 52.5175L160.677 55.8434C164.053 58.099 167.972 59.39 172.014 59.5884L172.21 55.5932ZM174.112 132.347L174.112 57.5908L170.112 57.5908L170.112 132.347L174.112 132.347ZM174.112 130.347L172.112 130.347L172.112 134.347L174.112 134.347L174.112 130.347ZM172.112 57.5908L172.112 132.347L176.112 132.347L176.112 57.5908L172.112 57.5908ZM183.324 52.5175C180.551 54.3698 177.333 55.4301 174.014 55.5932L174.21 59.5883C178.251 59.3898 182.17 58.0988 185.546 55.8434L183.324 52.5175ZM190.094 44.2681C188.703 47.6269 186.347 50.4977 183.324 52.5175L185.546 55.8434C189.227 53.3841 192.095 49.8885 193.789 45.7989L190.094 44.2681ZM191.14 33.6478C191.849 37.2134 191.485 40.9094 190.094 44.2681L193.789 45.7989C195.483 41.7092 195.927 37.209 195.063 32.8674L191.14 33.6478ZM186.109 24.2362C188.68 26.8069 190.431 30.0821 191.14 33.6478L195.063 32.8674C194.199 28.5258 192.068 24.5378 188.938 21.4077L186.109 24.2362ZM187.523 24.2362C187.133 24.6267 186.5 24.6267 186.109 24.2362L188.938 21.4077C187.766 20.2362 185.867 20.2362 184.695 21.4077L187.523 24.2362ZM187.523 22.822C187.914 23.2125 187.914 23.8456 187.523 24.2362L184.695 21.4077C183.523 22.5793 183.523 24.4788 184.695 25.6504L187.523 22.822ZM193.101 33.2576C192.315 29.304 190.374 25.6724 187.523 22.8219L184.695 25.6504C186.986 27.9414 188.546 30.8603 189.178 34.038L193.101 33.2576ZM191.942 45.0335C193.484 41.3093 193.888 37.2112 193.101 33.2576L189.178 34.038C189.81 37.2157 189.486 40.5094 188.246 43.5028L191.942 45.0335ZM184.435 54.1804C187.787 51.9409 190.399 48.7577 191.942 45.0335L188.246 43.5028C187.006 46.4961 184.906 49.0545 182.213 50.8545L184.435 54.1804ZM174.221 57.5851C177.862 57.3867 181.391 56.214 184.435 54.1804L182.213 50.8545C179.766 52.489 176.93 53.4315 174.003 53.591L174.221 57.5851ZM172.112 55.3505V55.5881H176.112V55.3505H172.112ZM172.112 57.3505H174.112V53.3505H172.112V57.3505ZM174.112 55.5881V55.3505H170.112V55.5881H174.112ZM161.788 54.1804C164.832 56.2142 168.361 57.3869 172.003 57.5852L172.221 53.5911C169.294 53.4317 166.457 52.4892 164.01 50.8545L161.788 54.1804ZM154.281 45.0335C155.824 48.7577 158.436 51.9409 161.788 54.1804L164.01 50.8545C161.316 49.0545 159.217 46.4961 157.977 43.5028L154.281 45.0335ZM153.122 33.2576C152.335 37.2112 152.739 41.3093 154.281 45.0335L157.977 43.5028C156.737 40.5094 156.413 37.2157 157.045 34.038L153.122 33.2576ZM158.7 22.8219C155.849 25.6723 153.908 29.304 153.122 33.2576L157.045 34.038C157.677 30.8603 159.237 27.9414 161.528 25.6504L158.7 22.8219ZM173.641 139.141C173.641 139.434 173.404 139.671 173.111 139.671V143.671C175.613 143.671 177.641 141.643 177.641 139.141H173.641ZM173.111 138.612C173.404 138.612 173.641 138.849 173.641 139.141H177.641C177.641 136.64 175.613 134.612 173.111 134.612V138.612ZM172.582 139.141C172.582 138.849 172.819 138.612 173.111 138.612V134.612C170.61 134.612 168.582 136.64 168.582 139.141H172.582ZM173.111 139.671C172.819 139.671 172.582 139.434 172.582 139.141H168.582C168.582 141.643 170.61 143.671 173.111 143.671V139.671ZM175.641 139.141C175.641 140.538 174.508 141.671 173.111 141.671V145.671C176.717 145.671 179.641 142.747 179.641 139.141H175.641ZM173.111 136.612C174.508 136.612 175.641 137.745 175.641 139.141H179.641C179.641 135.535 176.717 132.612 173.111 132.612V136.612ZM170.582 139.141C170.582 137.745 171.715 136.612 173.111 136.612V132.612C169.505 132.612 166.582 135.535 166.582 139.141H170.582ZM173.111 141.671C171.715 141.671 170.582 140.538 170.582 139.141H166.582C166.582 142.747 169.505 145.671 173.111 145.671V141.671ZM170.113 145.935V166.317H174.113V145.935H170.113ZM174.113 143.935H172.113V147.935H174.113V143.935ZM176.113 166.317V145.935H172.113V166.317H176.113ZM172.113 168.317H174.113V164.317H172.113V168.317ZM170.515 179.404C171.67 181.404 174.556 181.404 175.711 179.404L172.247 177.404C172.632 176.738 173.594 176.738 173.979 177.404L170.515 179.404ZM164.402 168.817L170.515 179.404L173.979 177.404L167.866 166.817L164.402 168.817ZM167 164.317C164.691 164.317 163.247 166.817 164.402 168.817L167.866 166.817C168.251 167.483 167.77 168.317 167 168.317V164.317ZM179.226 164.317H167V168.317H179.226V164.317ZM181.824 168.817C182.979 166.817 181.535 164.317 179.226 164.317V168.317C178.456 168.317 177.975 167.483 178.36 166.817L181.824 168.817ZM175.711 179.404L181.824 168.817L178.36 166.817L172.247 177.404L175.711 179.404Z" fill="currentColor" mask="url(#path-8-inside-2_113_398)"/>
</g>
</svg>
