<svg width="228" height="200" viewBox="0 0 228 200" fill="none" xmlns="http://www.w3.org/2000/svg">
<g opacity="0.7">
<mask id="path-1-inside-1_113_329" fill="currentColor">
<rect x="17.2798" y="10.3679" width="17.28" height="5.18399" rx="2"/>
</mask>
<rect x="17.2798" y="10.3679" width="17.28" height="5.18399" rx="2" stroke="currentColor" stroke-width="5.18399" mask="url(#path-1-inside-1_113_329)"/>
<mask id="path-2-inside-2_113_329" fill="currentColor">
<rect x="10.3677" y="10.3679" width="5.18399" height="5.18399" rx="2"/>
</mask>
<rect x="10.3677" y="10.3679" width="5.18399" height="5.18399" rx="2" stroke="currentColor" stroke-width="5.18399" mask="url(#path-2-inside-2_113_329)"/>
<mask id="path-3-inside-3_113_329" fill="currentColor">
<rect width="39.7439" height="5.18399" rx="2" transform="matrix(1 0 0 -1 17.2798 24.1919)"/>
</mask>
<rect width="39.7439" height="5.18399" rx="2" transform="matrix(1 0 0 -1 17.2798 24.1919)" stroke="currentColor" stroke-width="5.18399" mask="url(#path-3-inside-3_113_329)"/>
<mask id="path-4-inside-4_113_329" fill="currentColor">
<rect width="5.18399" height="5.18399" rx="2" transform="matrix(1 0 0 -1 10.3677 24.1919)"/>
</mask>
<rect width="5.18399" height="5.18399" rx="2" transform="matrix(1 0 0 -1 10.3677 24.1919)" stroke="currentColor" stroke-width="5.18399" mask="url(#path-4-inside-4_113_329)"/>
<mask id="path-5-inside-5_113_329" fill="currentColor">
<rect width="20.736" height="5.18399" rx="2" transform="matrix(1 0 0 -1 17.2798 32.832)"/>
</mask>
<rect width="20.736" height="5.18399" rx="2" transform="matrix(1 0 0 -1 17.2798 32.832)" stroke="currentColor" stroke-width="5.18399" mask="url(#path-5-inside-5_113_329)"/>
<mask id="path-6-inside-6_113_329" fill="currentColor">
<rect width="5.18399" height="5.18399" rx="2" transform="matrix(1 0 0 -1 10.3677 32.832)"/>
</mask>
<rect width="5.18399" height="5.18399" rx="2" transform="matrix(1 0 0 -1 10.3677 32.832)" stroke="currentColor" stroke-width="5.18399" mask="url(#path-6-inside-6_113_329)"/>
<mask id="path-7-inside-7_113_329" fill="currentColor">
<rect width="29.376" height="5.18399" rx="2" transform="matrix(1 0 0 -1 17.2798 41.4722)"/>
</mask>
<rect width="29.376" height="5.18399" rx="2" transform="matrix(1 0 0 -1 17.2798 41.4722)" stroke="currentColor" stroke-width="5.18399" mask="url(#path-7-inside-7_113_329)"/>
<mask id="path-8-inside-8_113_329" fill="currentColor">
<rect width="5.18399" height="5.18399" rx="2" transform="matrix(1 0 0 -1 10.3677 41.4722)"/>
</mask>
<rect width="5.18399" height="5.18399" rx="2" transform="matrix(1 0 0 -1 10.3677 41.4722)" stroke="currentColor" stroke-width="5.18399" mask="url(#path-8-inside-8_113_329)"/>
<rect x="1.5" y="1.5" width="66.1199" height="50.5679" rx="2.5" stroke="currentColor" stroke-width="3"/>
<mask id="path-10-inside-9_113_329" fill="currentColor">
<rect x="97.4204" y="10.3679" width="17.28" height="5.18399" rx="2"/>
</mask>
<rect x="97.4204" y="10.3679" width="17.28" height="5.18399" rx="2" stroke="currentColor" stroke-width="5.18399" mask="url(#path-10-inside-9_113_329)"/>
<mask id="path-11-inside-10_113_329" fill="currentColor">
<rect x="90.5083" y="10.3679" width="5.18399" height="5.18399" rx="2"/>
</mask>
<rect x="90.5083" y="10.3679" width="5.18399" height="5.18399" rx="2" stroke="currentColor" stroke-width="5.18399" mask="url(#path-11-inside-10_113_329)"/>
<mask id="path-12-inside-11_113_329" fill="currentColor">
<rect width="39.7439" height="5.18399" rx="2" transform="matrix(1 0 0 -1 97.4204 24.1919)"/>
</mask>
<rect width="39.7439" height="5.18399" rx="2" transform="matrix(1 0 0 -1 97.4204 24.1919)" stroke="currentColor" stroke-width="5.18399" mask="url(#path-12-inside-11_113_329)"/>
<mask id="path-13-inside-12_113_329" fill="currentColor">
<rect width="5.18399" height="5.18399" rx="2" transform="matrix(1 0 0 -1 90.5083 24.1919)"/>
</mask>
<rect width="5.18399" height="5.18399" rx="2" transform="matrix(1 0 0 -1 90.5083 24.1919)" stroke="currentColor" stroke-width="5.18399" mask="url(#path-13-inside-12_113_329)"/>
<mask id="path-14-inside-13_113_329" fill="currentColor">
<rect width="20.736" height="5.18399" rx="2" transform="matrix(1 0 0 -1 97.4204 32.832)"/>
</mask>
<rect width="20.736" height="5.18399" rx="2" transform="matrix(1 0 0 -1 97.4204 32.832)" stroke="currentColor" stroke-width="5.18399" mask="url(#path-14-inside-13_113_329)"/>
<mask id="path-15-inside-14_113_329" fill="currentColor">
<rect width="5.18399" height="5.18399" rx="2" transform="matrix(1 0 0 -1 90.5083 32.832)"/>
</mask>
<rect width="5.18399" height="5.18399" rx="2" transform="matrix(1 0 0 -1 90.5083 32.832)" stroke="currentColor" stroke-width="5.18399" mask="url(#path-15-inside-14_113_329)"/>
<mask id="path-16-inside-15_113_329" fill="currentColor">
<rect width="29.376" height="5.18399" rx="2" transform="matrix(1 0 0 -1 97.4204 41.4722)"/>
</mask>
<rect width="29.376" height="5.18399" rx="2" transform="matrix(1 0 0 -1 97.4204 41.4722)" stroke="currentColor" stroke-width="5.18399" mask="url(#path-16-inside-15_113_329)"/>
<mask id="path-17-inside-16_113_329" fill="currentColor">
<rect width="5.18399" height="5.18399" rx="2" transform="matrix(1 0 0 -1 90.5083 41.4722)"/>
</mask>
<rect width="5.18399" height="5.18399" rx="2" transform="matrix(1 0 0 -1 90.5083 41.4722)" stroke="currentColor" stroke-width="5.18399" mask="url(#path-17-inside-16_113_329)"/>
<rect x="81.6406" y="1.5" width="66.1199" height="50.5679" rx="2.5" stroke="currentColor" stroke-width="3"/>
<mask id="path-19-inside-17_113_329" fill="currentColor">
<rect x="175.653" y="10.3679" width="17.28" height="5.18399" rx="2"/>
</mask>
<rect x="175.653" y="10.3679" width="17.28" height="5.18399" rx="2" stroke="currentColor" stroke-width="5.18399" mask="url(#path-19-inside-17_113_329)"/>
<mask id="path-20-inside-18_113_329" fill="currentColor">
<rect x="168.741" y="10.3679" width="5.18399" height="5.18399" rx="2"/>
</mask>
<rect x="168.741" y="10.3679" width="5.18399" height="5.18399" rx="2" stroke="currentColor" stroke-width="5.18399" mask="url(#path-20-inside-18_113_329)"/>
<mask id="path-21-inside-19_113_329" fill="currentColor">
<rect width="39.7439" height="5.18399" rx="2" transform="matrix(1 0 0 -1 175.653 24.1919)"/>
</mask>
<rect width="39.7439" height="5.18399" rx="2" transform="matrix(1 0 0 -1 175.653 24.1919)" stroke="currentColor" stroke-width="5.18399" mask="url(#path-21-inside-19_113_329)"/>
<mask id="path-22-inside-20_113_329" fill="currentColor">
<rect width="5.18399" height="5.18399" rx="2" transform="matrix(1 0 0 -1 168.741 24.1919)"/>
</mask>
<rect width="5.18399" height="5.18399" rx="2" transform="matrix(1 0 0 -1 168.741 24.1919)" stroke="currentColor" stroke-width="5.18399" mask="url(#path-22-inside-20_113_329)"/>
<mask id="path-23-inside-21_113_329" fill="currentColor">
<rect width="20.736" height="5.18399" rx="2" transform="matrix(1 0 0 -1 175.653 32.832)"/>
</mask>
<rect width="20.736" height="5.18399" rx="2" transform="matrix(1 0 0 -1 175.653 32.832)" stroke="currentColor" stroke-width="5.18399" mask="url(#path-23-inside-21_113_329)"/>
<mask id="path-24-inside-22_113_329" fill="currentColor">
<rect width="5.18399" height="5.18399" rx="2" transform="matrix(1 0 0 -1 168.741 32.832)"/>
</mask>
<rect width="5.18399" height="5.18399" rx="2" transform="matrix(1 0 0 -1 168.741 32.832)" stroke="currentColor" stroke-width="5.18399" mask="url(#path-24-inside-22_113_329)"/>
<mask id="path-25-inside-23_113_329" fill="currentColor">
<rect width="29.376" height="5.18399" rx="2" transform="matrix(1 0 0 -1 175.653 41.4722)"/>
</mask>
<rect width="29.376" height="5.18399" rx="2" transform="matrix(1 0 0 -1 175.653 41.4722)" stroke="currentColor" stroke-width="5.18399" mask="url(#path-25-inside-23_113_329)"/>
<mask id="path-26-inside-24_113_329" fill="currentColor">
<rect width="5.18399" height="5.18399" rx="2" transform="matrix(1 0 0 -1 168.741 41.4722)"/>
</mask>
<rect width="5.18399" height="5.18399" rx="2" transform="matrix(1 0 0 -1 168.741 41.4722)" stroke="currentColor" stroke-width="5.18399" mask="url(#path-26-inside-24_113_329)"/>
<rect x="159.873" y="1.5" width="66.1199" height="50.5679" rx="2.5" stroke="currentColor" stroke-width="3"/>
<mask id="path-28-inside-25_113_329" fill="currentColor">
<rect x="17.2798" y="75.2437" width="17.28" height="5.18399" rx="2"/>
</mask>
<rect x="17.2798" y="75.2437" width="17.28" height="5.18399" rx="2" stroke="currentColor" stroke-width="5.18399" mask="url(#path-28-inside-25_113_329)"/>
<mask id="path-29-inside-26_113_329" fill="currentColor">
<rect x="10.3677" y="75.2437" width="5.18399" height="5.18399" rx="2"/>
</mask>
<rect x="10.3677" y="75.2437" width="5.18399" height="5.18399" rx="2" stroke="currentColor" stroke-width="5.18399" mask="url(#path-29-inside-26_113_329)"/>
<mask id="path-30-inside-27_113_329" fill="currentColor">
<rect width="39.7439" height="5.18399" rx="2" transform="matrix(1 0 0 -1 17.2798 89.0676)"/>
</mask>
<rect width="39.7439" height="5.18399" rx="2" transform="matrix(1 0 0 -1 17.2798 89.0676)" stroke="currentColor" stroke-width="5.18399" mask="url(#path-30-inside-27_113_329)"/>
<mask id="path-31-inside-28_113_329" fill="currentColor">
<rect width="5.18399" height="5.18399" rx="2" transform="matrix(1 0 0 -1 10.3677 89.0676)"/>
</mask>
<rect width="5.18399" height="5.18399" rx="2" transform="matrix(1 0 0 -1 10.3677 89.0676)" stroke="currentColor" stroke-width="5.18399" mask="url(#path-31-inside-28_113_329)"/>
<mask id="path-32-inside-29_113_329" fill="currentColor">
<rect width="20.736" height="5.18399" rx="2" transform="matrix(1 0 0 -1 17.2798 97.7075)"/>
</mask>
<rect width="20.736" height="5.18399" rx="2" transform="matrix(1 0 0 -1 17.2798 97.7075)" stroke="currentColor" stroke-width="5.18399" mask="url(#path-32-inside-29_113_329)"/>
<mask id="path-33-inside-30_113_329" fill="currentColor">
<rect width="5.18399" height="5.18399" rx="2" transform="matrix(1 0 0 -1 10.3677 97.7075)"/>
</mask>
<rect width="5.18399" height="5.18399" rx="2" transform="matrix(1 0 0 -1 10.3677 97.7075)" stroke="currentColor" stroke-width="5.18399" mask="url(#path-33-inside-30_113_329)"/>
<mask id="path-34-inside-31_113_329" fill="currentColor">
<rect width="29.376" height="5.18399" rx="2" transform="matrix(1 0 0 -1 17.2798 106.348)"/>
</mask>
<rect width="29.376" height="5.18399" rx="2" transform="matrix(1 0 0 -1 17.2798 106.348)" stroke="currentColor" stroke-width="5.18399" mask="url(#path-34-inside-31_113_329)"/>
<mask id="path-35-inside-32_113_329" fill="currentColor">
<rect width="5.18399" height="5.18399" rx="2" transform="matrix(1 0 0 -1 10.3677 106.348)"/>
</mask>
<rect width="5.18399" height="5.18399" rx="2" transform="matrix(1 0 0 -1 10.3677 106.348)" stroke="currentColor" stroke-width="5.18399" mask="url(#path-35-inside-32_113_329)"/>
<rect x="1.5" y="66.3757" width="66.1199" height="50.5679" rx="2.5" stroke="currentColor" stroke-width="3"/>
<mask id="path-37-inside-33_113_329" fill="currentColor">
<rect x="97.4204" y="75.2437" width="17.28" height="5.18399" rx="2"/>
</mask>
<rect x="97.4204" y="75.2437" width="17.28" height="5.18399" rx="2" stroke="currentColor" stroke-width="5.18399" mask="url(#path-37-inside-33_113_329)"/>
<mask id="path-38-inside-34_113_329" fill="currentColor">
<rect x="90.5083" y="75.2437" width="5.18399" height="5.18399" rx="2"/>
</mask>
<rect x="90.5083" y="75.2437" width="5.18399" height="5.18399" rx="2" stroke="currentColor" stroke-width="5.18399" mask="url(#path-38-inside-34_113_329)"/>
<mask id="path-39-inside-35_113_329" fill="currentColor">
<rect width="39.7439" height="5.18399" rx="2" transform="matrix(1 0 0 -1 97.4204 89.0676)"/>
</mask>
<rect width="39.7439" height="5.18399" rx="2" transform="matrix(1 0 0 -1 97.4204 89.0676)" stroke="currentColor" stroke-width="5.18399" mask="url(#path-39-inside-35_113_329)"/>
<mask id="path-40-inside-36_113_329" fill="currentColor">
<rect width="5.18399" height="5.18399" rx="2" transform="matrix(1 0 0 -1 90.5083 89.0676)"/>
</mask>
<rect width="5.18399" height="5.18399" rx="2" transform="matrix(1 0 0 -1 90.5083 89.0676)" stroke="currentColor" stroke-width="5.18399" mask="url(#path-40-inside-36_113_329)"/>
<mask id="path-41-inside-37_113_329" fill="currentColor">
<rect width="20.736" height="5.18399" rx="2" transform="matrix(1 0 0 -1 97.4204 97.7075)"/>
</mask>
<rect width="20.736" height="5.18399" rx="2" transform="matrix(1 0 0 -1 97.4204 97.7075)" stroke="currentColor" stroke-width="5.18399" mask="url(#path-41-inside-37_113_329)"/>
<mask id="path-42-inside-38_113_329" fill="currentColor">
<rect width="5.18399" height="5.18399" rx="2" transform="matrix(1 0 0 -1 90.5083 97.7075)"/>
</mask>
<rect width="5.18399" height="5.18399" rx="2" transform="matrix(1 0 0 -1 90.5083 97.7075)" stroke="currentColor" stroke-width="5.18399" mask="url(#path-42-inside-38_113_329)"/>
<mask id="path-43-inside-39_113_329" fill="currentColor">
<rect width="29.376" height="5.18399" rx="2" transform="matrix(1 0 0 -1 97.4204 106.348)"/>
</mask>
<rect width="29.376" height="5.18399" rx="2" transform="matrix(1 0 0 -1 97.4204 106.348)" stroke="currentColor" stroke-width="5.18399" mask="url(#path-43-inside-39_113_329)"/>
<mask id="path-44-inside-40_113_329" fill="currentColor">
<rect width="5.18399" height="5.18399" rx="2" transform="matrix(1 0 0 -1 90.5083 106.348)"/>
</mask>
<rect width="5.18399" height="5.18399" rx="2" transform="matrix(1 0 0 -1 90.5083 106.348)" stroke="currentColor" stroke-width="5.18399" mask="url(#path-44-inside-40_113_329)"/>
<rect x="81.6406" y="66.3757" width="66.1199" height="50.5679" rx="2.5" stroke="currentColor" stroke-width="3"/>
<mask id="path-46-inside-41_113_329" fill="currentColor">
<rect x="175.653" y="75.2437" width="17.28" height="5.18399" rx="2"/>
</mask>
<rect x="175.653" y="75.2437" width="17.28" height="5.18399" rx="2" stroke="currentColor" stroke-width="5.18399" mask="url(#path-46-inside-41_113_329)"/>
<mask id="path-47-inside-42_113_329" fill="currentColor">
<rect x="168.741" y="75.2437" width="5.18399" height="5.18399" rx="2"/>
</mask>
<rect x="168.741" y="75.2437" width="5.18399" height="5.18399" rx="2" stroke="currentColor" stroke-width="5.18399" mask="url(#path-47-inside-42_113_329)"/>
<mask id="path-48-inside-43_113_329" fill="currentColor">
<rect width="39.7439" height="5.18399" rx="2" transform="matrix(1 0 0 -1 175.653 89.0676)"/>
</mask>
<rect width="39.7439" height="5.18399" rx="2" transform="matrix(1 0 0 -1 175.653 89.0676)" stroke="currentColor" stroke-width="5.18399" mask="url(#path-48-inside-43_113_329)"/>
<mask id="path-49-inside-44_113_329" fill="currentColor">
<rect width="5.18399" height="5.18399" rx="2" transform="matrix(1 0 0 -1 168.741 89.0676)"/>
</mask>
<rect width="5.18399" height="5.18399" rx="2" transform="matrix(1 0 0 -1 168.741 89.0676)" stroke="currentColor" stroke-width="5.18399" mask="url(#path-49-inside-44_113_329)"/>
<mask id="path-50-inside-45_113_329" fill="currentColor">
<rect width="20.736" height="5.18399" rx="2" transform="matrix(1 0 0 -1 175.653 97.7075)"/>
</mask>
<rect width="20.736" height="5.18399" rx="2" transform="matrix(1 0 0 -1 175.653 97.7075)" stroke="currentColor" stroke-width="5.18399" mask="url(#path-50-inside-45_113_329)"/>
<mask id="path-51-inside-46_113_329" fill="currentColor">
<rect width="5.18399" height="5.18399" rx="2" transform="matrix(1 0 0 -1 168.741 97.7075)"/>
</mask>
<rect width="5.18399" height="5.18399" rx="2" transform="matrix(1 0 0 -1 168.741 97.7075)" stroke="currentColor" stroke-width="5.18399" mask="url(#path-51-inside-46_113_329)"/>
<mask id="path-52-inside-47_113_329" fill="currentColor">
<rect width="29.376" height="5.18399" rx="2" transform="matrix(1 0 0 -1 175.653 106.348)"/>
</mask>
<rect width="29.376" height="5.18399" rx="2" transform="matrix(1 0 0 -1 175.653 106.348)" stroke="currentColor" stroke-width="5.18399" mask="url(#path-52-inside-47_113_329)"/>
<mask id="path-53-inside-48_113_329" fill="currentColor">
<rect width="5.18399" height="5.18399" rx="2" transform="matrix(1 0 0 -1 168.741 106.348)"/>
</mask>
<rect width="5.18399" height="5.18399" rx="2" transform="matrix(1 0 0 -1 168.741 106.348)" stroke="currentColor" stroke-width="5.18399" mask="url(#path-53-inside-48_113_329)"/>
<rect x="159.873" y="66.3757" width="66.1199" height="50.5679" rx="2.5" stroke="currentColor" stroke-width="3"/>
<mask id="path-55-inside-49_113_329" fill="currentColor">
<path fill-rule="evenodd" clip-rule="evenodd" d="M115.048 57.0237C115.048 56.4714 114.6 56.0237 114.048 56.0237C113.496 56.0237 113.048 56.4714 113.048 57.0237V59.3046C113.048 59.8569 113.496 60.3046 114.048 60.3046C114.6 60.3046 115.048 59.8569 115.048 59.3046V57.0237ZM30.9331 146V118.61H32.9331V146C32.9331 147.657 34.2762 149 35.9331 149H112.907H186.99V151H112.907H35.9331C33.1717 151 30.9331 148.762 30.9331 146ZM194.881 118.61V144.094H192.881V118.61H194.881ZM192.881 187.038V157.21H194.881V187.038L200.051 187.038C200.82 187.038 201.301 187.871 200.917 188.538L194.747 199.224C194.362 199.891 193.4 199.891 193.015 199.224L186.846 188.538C186.461 187.871 186.942 187.038 187.712 187.038L192.881 187.038ZM113.048 148.262V118.61H115.048V148.262H113.048ZM193.881 56.0237C194.433 56.0237 194.881 56.4714 194.881 57.0237V59.3046C194.881 59.8569 194.433 60.3046 193.881 60.3046C193.329 60.3046 192.881 59.8569 192.881 59.3046V57.0237C192.881 56.4714 193.329 56.0237 193.881 56.0237ZM32.9331 57.0237C32.9331 56.4714 32.4854 56.0237 31.9331 56.0237C31.3808 56.0237 30.9331 56.4714 30.9331 57.0237V59.3046C30.9331 59.8569 31.3808 60.3046 31.9331 60.3046C32.4854 60.3046 32.9331 59.8569 32.9331 59.3046V57.0237ZM193.881 153.105C195.296 153.105 196.443 151.958 196.443 150.543C196.443 149.128 195.296 147.981 193.881 147.981C192.466 147.981 191.319 149.128 191.319 150.543C191.319 151.958 192.466 153.105 193.881 153.105ZM193.881 155.105C196.401 155.105 198.443 153.062 198.443 150.543C198.443 148.023 196.401 145.981 193.881 145.981C191.362 145.981 189.319 148.023 189.319 150.543C189.319 153.062 191.362 155.105 193.881 155.105Z"/>
</mask>
<path d="M30.9331 118.61V115.61H27.9331V118.61H30.9331ZM32.9331 118.61H35.9331V115.61H32.9331V118.61ZM186.99 149H189.99V146H186.99V149ZM186.99 151V154H189.99V151H186.99ZM194.881 144.094V147.094H197.881V144.094H194.881ZM194.881 118.61H197.881V115.61H194.881V118.61ZM192.881 144.094H189.881V147.094H192.881V144.094ZM192.881 118.61V115.61H189.881V118.61H192.881ZM192.881 157.21V154.21H189.881V157.21H192.881ZM192.881 187.038L192.881 190.038L195.881 190.038V187.038H192.881ZM194.881 157.21H197.881V154.21H194.881V157.21ZM194.881 187.038H191.881V190.038L194.881 190.038L194.881 187.038ZM200.051 187.038L200.051 184.038L200.051 184.038L200.051 187.038ZM200.917 188.538L203.515 190.038L203.515 190.038L200.917 188.538ZM194.747 199.224L192.149 197.724L192.149 197.724L194.747 199.224ZM193.015 199.224L195.613 197.724L195.613 197.724L193.015 199.224ZM186.846 188.538L184.248 190.038L184.248 190.038L186.846 188.538ZM187.712 187.038L187.712 184.038H187.712V187.038ZM113.048 118.61V115.61H110.048V118.61H113.048ZM113.048 148.262H110.048V151.262H113.048V148.262ZM115.048 118.61H118.048V115.61H115.048V118.61ZM115.048 148.262V151.262H118.048V148.262H115.048ZM32.9331 57.0237L29.9331 57.0237V57.0237H32.9331ZM32.9331 59.3046L35.9331 59.3046V59.3046H32.9331ZM114.048 59.0237C112.943 59.0237 112.048 58.1283 112.048 57.0237H118.048C118.048 54.8145 116.257 53.0237 114.048 53.0237V59.0237ZM116.048 57.0237C116.048 58.1283 115.153 59.0237 114.048 59.0237V53.0237C111.839 53.0237 110.048 54.8145 110.048 57.0237H116.048ZM116.048 59.3046V57.0237H110.048V59.3046H116.048ZM114.048 57.3046C115.153 57.3046 116.048 58.2001 116.048 59.3046H110.048C110.048 61.5138 111.839 63.3046 114.048 63.3046V57.3046ZM112.048 59.3046C112.048 58.2001 112.943 57.3046 114.048 57.3046V63.3046C116.257 63.3046 118.048 61.5138 118.048 59.3046H112.048ZM112.048 57.0237V59.3046H118.048V57.0237H112.048ZM27.9331 118.61V146H33.9331V118.61H27.9331ZM32.9331 115.61H30.9331V121.61H32.9331V115.61ZM35.9331 146V118.61H29.9331V146H35.9331ZM35.9331 146H29.9331C29.9331 149.314 32.6194 152 35.9331 152V146ZM112.907 146H35.9331V152H112.907V146ZM186.99 146H112.907V152H186.99V146ZM189.99 151V149H183.99V151H189.99ZM112.907 154H186.99V148H112.907V154ZM35.9331 154H112.907V148H35.9331V154ZM27.9331 146C27.9331 150.418 31.5148 154 35.9331 154V148C34.8285 148 33.9331 147.105 33.9331 146H27.9331ZM197.881 144.094V118.61H191.881V144.094H197.881ZM192.881 147.094H194.881V141.094H192.881V147.094ZM189.881 118.61V144.094H195.881V118.61H189.881ZM194.881 115.61H192.881V121.61H194.881V115.61ZM189.881 157.21V187.038H195.881V157.21H189.881ZM194.881 154.21H192.881V160.21H194.881V154.21ZM197.881 187.038V157.21H191.881V187.038H197.881ZM194.881 190.038L200.051 190.038L200.051 184.038L194.881 184.038L194.881 190.038ZM200.051 190.038C198.511 190.038 197.549 188.371 198.318 187.038L203.515 190.038C205.054 187.371 203.13 184.038 200.051 184.038V190.038ZM198.319 187.038L192.149 197.724L197.345 200.724L203.515 190.038L198.319 187.038ZM192.149 197.724C192.919 196.391 194.843 196.391 195.613 197.724L190.417 200.724C191.957 203.391 195.806 203.391 197.345 200.724L192.149 197.724ZM195.613 197.724L189.444 187.038L184.248 190.038L190.417 200.724L195.613 197.724ZM189.444 187.038C190.214 188.372 189.251 190.038 187.712 190.038V184.038C184.633 184.038 182.708 187.371 184.248 190.038L189.444 187.038ZM187.712 190.038L192.881 190.038L192.881 184.038L187.712 184.038L187.712 190.038ZM110.048 118.61V148.262H116.048V118.61H110.048ZM115.048 115.61H113.048V121.61H115.048V115.61ZM118.048 148.262V118.61H112.048V148.262H118.048ZM113.048 151.262H115.048V145.262H113.048V151.262ZM197.881 57.0237C197.881 54.8146 196.09 53.0237 193.881 53.0237V59.0237C192.776 59.0237 191.881 58.1282 191.881 57.0237H197.881ZM197.881 59.3046V57.0237H191.881V59.3046H197.881ZM193.881 63.3046C196.09 63.3046 197.881 61.5138 197.881 59.3046H191.881C191.881 58.2001 192.776 57.3046 193.881 57.3046V63.3046ZM189.881 59.3046C189.881 61.5138 191.672 63.3046 193.881 63.3046V57.3046C194.986 57.3046 195.881 58.2001 195.881 59.3046H189.881ZM189.881 57.0237V59.3046H195.881V57.0237H189.881ZM193.881 53.0237C191.672 53.0237 189.881 54.8146 189.881 57.0237H195.881C195.881 58.1282 194.986 59.0237 193.881 59.0237V53.0237ZM31.9331 59.0237C30.8285 59.0237 29.9331 58.1283 29.9331 57.0237L35.9331 57.0237C35.9331 54.8145 34.1422 53.0237 31.9331 53.0237V59.0237ZM33.9331 57.0237C33.9331 58.1283 33.0377 59.0237 31.9331 59.0237V53.0237C29.724 53.0237 27.9331 54.8145 27.9331 57.0237H33.9331ZM33.9331 59.3046V57.0237H27.9331V59.3046H33.9331ZM31.9331 57.3046C33.0377 57.3046 33.9331 58.2001 33.9331 59.3046H27.9331C27.9331 61.5138 29.724 63.3046 31.9331 63.3046V57.3046ZM29.9331 59.3046C29.9331 58.2001 30.8285 57.3046 31.9331 57.3046V63.3046C34.1422 63.3046 35.9331 61.5138 35.9331 59.3046L29.9331 59.3046ZM29.9331 57.0237V59.3046H35.9331V57.0237H29.9331ZM193.443 150.543C193.443 150.301 193.639 150.105 193.881 150.105V156.105C196.953 156.105 199.443 153.614 199.443 150.543H193.443ZM193.881 150.981C193.639 150.981 193.443 150.785 193.443 150.543H199.443C199.443 147.471 196.953 144.981 193.881 144.981V150.981ZM194.319 150.543C194.319 150.785 194.123 150.981 193.881 150.981V144.981C190.81 144.981 188.319 147.471 188.319 150.543H194.319ZM193.881 150.105C194.123 150.105 194.319 150.301 194.319 150.543H188.319C188.319 153.614 190.81 156.105 193.881 156.105V150.105ZM195.443 150.543C195.443 151.405 194.744 152.105 193.881 152.105V158.105C198.058 158.105 201.443 154.719 201.443 150.543H195.443ZM193.881 148.981C194.744 148.981 195.443 149.68 195.443 150.543H201.443C201.443 146.366 198.058 142.981 193.881 142.981V148.981ZM192.319 150.543C192.319 149.68 193.019 148.981 193.881 148.981V142.981C189.705 142.981 186.319 146.366 186.319 150.543H192.319ZM193.881 152.105C193.019 152.105 192.319 151.405 192.319 150.543H186.319C186.319 154.719 189.705 158.105 193.881 158.105V152.105Z" fill="currentColor" mask="url(#path-55-inside-49_113_329)"/>
</g>
</svg>
