<svg width="288" height="330" viewBox="0 0 288 330" fill="none" xmlns="http://www.w3.org/2000/svg">
<path d="M109.005 19.9846C109.47 16.3343 112.366 13.4724 116.021 13.0494L218.884 1.14699C223.97 0.558497 228.292 4.83256 227.76 9.9247L197.785 297.023C197.155 303.055 191.762 307.44 185.729 306.824L85.1111 296.564C78.9594 295.937 74.5333 290.364 75.3153 284.23L109.005 19.9846Z" fill="#161616"/>
<path fill-rule="evenodd" clip-rule="evenodd" d="M134.156 17.3703L134.042 18.6271C133.759 21.7345 136.361 24.3387 139.468 24.0598L190.276 19.5002C195.162 19.0616 199.168 15.4397 200.094 10.6215L200.266 9.72868L214.442 8.09009C218.895 7.57545 222.677 11.3194 222.208 15.7768L192.743 295.594C192.339 299.43 188.909 302.216 185.072 301.825L85.6147 291.694C81.6995 291.295 78.8824 287.748 79.3803 283.844L112.364 25.2475C112.771 22.0534 115.305 19.5492 118.504 19.1794L134.156 17.3703Z" fill="#0B0B0B"/>
<path d="M134.042 18.6271L135.038 18.7177V18.7177L134.042 18.6271ZM134.156 17.3703L135.152 17.4608L135.263 16.2356L134.041 16.3769L134.156 17.3703ZM139.468 24.0598L139.558 25.0558L139.468 24.0598ZM190.276 19.5002L190.186 18.5042L190.276 19.5002ZM200.094 10.6215L199.112 10.4327V10.4327L200.094 10.6215ZM200.266 9.72868L200.151 8.7353L199.423 8.81952L199.284 9.53983L200.266 9.72868ZM214.442 8.09009L214.327 7.09671L214.442 8.09009ZM222.208 15.7768L223.202 15.8816V15.8815L222.208 15.7768ZM192.743 295.594L193.738 295.699L192.743 295.594ZM185.072 301.825L185.174 300.83L185.072 301.825ZM85.6147 291.694L85.5133 292.689H85.5133L85.6147 291.694ZM79.3803 283.844L78.3883 283.718H78.3883L79.3803 283.844ZM112.364 25.2475L113.356 25.374L112.364 25.2475ZM118.504 19.1794L118.389 18.1861L118.504 19.1794ZM135.038 18.7177L135.152 17.4608L133.16 17.2797L133.046 18.5366L135.038 18.7177ZM139.379 23.0638C136.893 23.2869 134.812 21.2035 135.038 18.7177L133.046 18.5366C132.707 22.2654 135.828 25.3905 139.558 25.0558L139.379 23.0638ZM190.186 18.5042L139.379 23.0638L139.558 25.0558L190.365 20.4962L190.186 18.5042ZM199.112 10.4327C198.27 14.8128 194.629 18.1055 190.186 18.5042L190.365 20.4962C195.696 20.0177 200.066 16.0665 201.076 10.8104L199.112 10.4327ZM199.284 9.53983L199.112 10.4327L201.076 10.8104L201.248 9.91753L199.284 9.53983ZM214.327 7.09671L200.151 8.7353L200.381 10.7221L214.557 9.08348L214.327 7.09671ZM223.202 15.8815C223.738 10.7874 219.416 6.50854 214.327 7.09671L214.557 9.08348C218.373 8.64235 221.615 11.8515 221.213 15.6721L223.202 15.8815ZM193.738 295.699L223.202 15.8816L221.213 15.6721L191.749 295.49L193.738 295.699ZM184.971 302.82C189.356 303.267 193.276 300.082 193.738 295.699L191.749 295.49C191.402 298.777 188.462 301.165 185.174 300.83L184.971 302.82ZM85.5133 292.689L184.971 302.82L185.174 300.83L85.716 290.699L85.5133 292.689ZM78.3883 283.718C77.8193 288.179 81.0388 292.233 85.5133 292.689L85.716 290.699C82.3601 290.357 79.9455 287.317 80.3723 283.971L78.3883 283.718ZM111.372 25.121L78.3883 283.718L80.3723 283.971L113.356 25.374L111.372 25.121ZM118.389 18.1861C114.734 18.6086 111.838 21.4705 111.372 25.121L113.356 25.374C113.705 22.6362 115.877 20.4897 118.619 20.1728L118.389 18.1861ZM134.041 16.3769L118.389 18.1861L118.619 20.1728L134.271 18.3636L134.041 16.3769Z" fill="url(#paint0_linear_372_7856)"/>
<circle r="11.7354" transform="matrix(0.971399 -0.237453 0.0222167 0.999753 199.148 47.3785)" fill="#0F1112"/>
<path d="M199.362 75.1334L119.17 79.921C115.785 80.1231 113.032 82.7227 112.635 86.0907L106.762 136.013C106.261 140.272 109.672 143.976 113.958 143.827L194.131 141.035C197.597 140.914 200.452 138.274 200.843 134.829L206.734 82.9102C207.224 78.5912 203.701 74.8744 199.362 75.1334Z" fill="#192023" fill-opacity="0.29"/>
<path d="M154.848 41.8575L123.393 44.2251C120.539 44.4399 118.234 46.6407 117.888 49.4818L116.727 59.0019C116.421 61.5061 118.482 63.6642 120.998 63.4748L154.883 60.9243C157.737 60.7095 160.042 58.5087 160.388 55.6676L161.254 48.5669C161.712 44.8107 158.622 41.5735 154.848 41.8575Z" fill="#192023" fill-opacity="0.29"/>
<ellipse cx="147.533" cy="17.5586" rx="2.52367" ry="2.88419" transform="rotate(16.2827 147.533 17.5586)" fill="#2F2F2F"/>
<path d="M191.626 152.875L109.373 156.085C105.96 156.218 103.142 158.795 102.704 162.182L88.4341 272.562C87.9251 276.499 90.7889 280.071 94.7426 280.431L178.725 288.065C182.541 288.412 185.927 285.626 186.321 281.814L198.862 160.59C199.3 156.352 195.883 152.709 191.626 152.875Z" fill="#192023" fill-opacity="0.29"/>
<path fill-rule="evenodd" clip-rule="evenodd" d="M231.666 6.17664C231.223 5.36713 230.001 5.6125 229.905 6.53031L199.056 300.337C199.014 300.733 198.948 301.127 198.829 301.506C197.208 306.665 192.518 308.856 187.752 308.856C186.904 308.773 186.54 309.904 187.278 310.331L191.04 312.509C191.333 312.679 191.653 312.974 191.984 312.905C194.645 312.351 197.756 311.287 200.659 309.273C206.82 305 208.393 295.455 208.555 294.36C208.565 294.29 208.573 294.222 208.581 294.151L227.191 114.185C227.215 113.953 227 113.765 226.766 113.765L224.19 113.767C222.994 113.767 222.065 112.724 222.203 111.536L224.239 93.9811C224.356 92.9692 225.215 92.2071 226.234 92.2116L228.453 92.2212C228.937 92.2233 229.492 91.942 229.542 91.4604L230.363 83.5196C230.41 83.061 229.868 82.6995 229.407 82.6931L227.808 82.6706C226.603 82.6538 225.687 81.5838 225.855 80.391L228.043 64.9108C228.198 63.8081 229.225 63.045 230.33 63.1857C230.665 63.2284 231.02 63.2714 231.375 63.3111C231.873 63.3668 232.475 63.0904 232.527 62.5918L233.259 55.5128C233.272 55.3898 233.169 55.2862 233.045 55.2828L231.775 55.2474C230.613 55.2151 229.723 54.2028 229.841 53.0466L230.831 43.2658C230.938 42.2163 231.841 41.4299 232.895 41.4688L233.825 41.5031C234.254 41.519 234.732 41.2669 234.776 40.84L236.091 28.1281C236.877 20.5315 235.333 12.8757 231.666 6.17664ZM185.357 313.452C186.825 313.55 187.252 311.721 185.994 310.957L182.112 308.599C181.727 308.366 181.295 308.222 180.848 308.178L84.4032 298.698C83.252 298.585 82.8596 300.191 83.9334 300.621L86.8359 301.784C87.4954 302.049 88.1872 302.224 88.893 302.306L185.151 313.433C185.22 313.44 185.287 313.447 185.357 313.452Z" fill="#41479B"/>
<path fill-rule="evenodd" clip-rule="evenodd" d="M232.264 54.458C231.666 54.458 231.202 53.9372 231.27 53.3435L232.448 43.1324C232.506 42.6278 232.933 42.247 233.441 42.2469L233.987 42.2469C234.575 42.2468 235.037 42.7526 234.983 43.3386L234.042 53.5499C233.994 54.0644 233.563 54.4582 233.046 54.4581L232.264 54.458ZM232.905 64.9484C232.966 64.3589 232.503 63.8464 231.911 63.8463L230.609 63.8462C230.108 63.8462 229.684 64.2179 229.618 64.7153L227.515 80.6365C227.443 81.18 227.823 81.68 228.365 81.7574L230.111 82.0066C230.673 82.0868 231.189 81.6835 231.247 81.1187L232.905 64.9484ZM225.873 93.8817C225.933 93.3788 226.359 93.0002 226.866 93.0002L229.094 93.0003C229.687 93.0003 230.15 93.5132 230.089 94.103L228.246 111.951C228.192 112.48 227.732 112.874 227.201 112.847L224.7 112.72C224.122 112.691 223.689 112.178 223.758 111.603L225.873 93.8817Z" fill="#ABABAB"/>
<path d="M158.384 17.8378V15.0996L176.222 13.1437V16.2731L158.384 17.8378Z" fill="black"/>
<g filter="url(#filter0_d_372_7856)">
<path d="M153.09 294.172L113.176 290.225C112.459 290.154 111.912 289.55 111.912 288.83C111.912 288.001 112.627 287.354 113.451 287.435L153.366 291.383C154.083 291.454 154.629 292.057 154.629 292.777C154.629 293.606 153.914 294.254 153.09 294.172Z" fill="#E22165"/>
</g>
<path d="M17.245 313.296L61.0628 305.354C70.4931 303.645 80.1343 303.436 89.6298 304.735L183.305 317.554C197.371 319.479 210.216 309.317 211.579 295.185L218 228.606L221.132 283.02C221.512 289.627 225.693 295.413 231.847 297.849L244.287 302.774L228.796 307.468C239.906 310.441 261.843 316.387 266.35 316.387C270.478 316.387 241.572 322.689 216.001 328.438C211.411 329.47 206.696 329.817 202.005 329.456L93.1351 321.081L17.5008 317.261C15.1271 317.141 14.9064 313.72 17.245 313.296Z" fill="url(#paint1_linear_372_7856)" fill-opacity="0.35"/>
<path d="M58.0742 92.3588L74.3747 89.962C76.2099 89.6922 77.6725 91.1112 77.4582 92.9537L75.6417 108.576C75.562 109.26 75.7163 109.926 76.0789 110.462L89.3806 130.142" stroke="#00FFA3"/>
<path d="M54.1732 157.838L88.4042 156.419" stroke="#00FFA3"/>
<path d="M81.8745 211.371L56.0871 211.371C54.9209 211.371 53.7866 212.058 53.1851 213.129L44.3635 228.839C43.762 229.91 42.6277 230.597 41.4615 230.597L35.3959 230.597M153.412 45.1578L147.959 82.5237C147.744 83.9962 146.508 85.2128 145.039 85.3964L140.076 86.0168" stroke="#00FFA3"/>
<path d="M57.635 95.7285C54.8651 105.082 47.1268 108.037 43.3003 107.226C40.1368 106.555 38.2006 104.257 37.3119 101.305C36.4185 98.3369 36.5985 94.7354 37.6815 91.5927C39.3066 86.8773 41.8255 83.7778 44.6136 82.0761C47.4008 80.375 50.4888 80.0498 53.3044 80.9355C56.7545 82.0208 59.7776 87.3335 57.635 95.7285Z" fill="white" fill-opacity="0.1" stroke="#00FFA3"/>
<path d="M90.976 130.676C90.6012 131.894 89.451 132.264 88.851 132.137C87.8641 131.927 87.617 130.847 87.9157 130.027C88.36 128.809 89.3717 128.425 90.2368 128.686C90.7961 128.854 91.2594 129.593 90.976 130.676Z" fill="#00FFA3"/>
<path d="M140.782 86.3622C140.411 87.5805 139.301 87.959 138.724 87.8367C137.775 87.6356 137.546 86.5586 137.84 85.7386C138.278 84.5191 139.255 84.1277 140.086 84.3807C140.623 84.5442 141.064 85.2785 140.782 86.3622Z" fill="#00FFA3"/>
<path d="M88.2823 156.659C87.8487 157.879 86.6212 158.276 85.9907 158.164C84.9535 157.981 84.7254 156.912 85.0664 156.09C85.5735 154.867 86.655 154.46 87.5617 154.697C88.148 154.85 88.6152 155.574 88.2823 156.659Z" fill="#00FFA3"/>
<path d="M83.074 211.93C82.8146 213.181 81.6019 213.727 80.9296 213.698C79.8238 213.651 79.4196 212.633 79.6451 211.784C79.9804 210.521 81.0399 209.984 82.0187 210.1C82.6516 210.175 83.25 210.825 83.074 211.93Z" fill="#00FFA3"/>
<path d="M171.4 216.347C171.143 217.598 169.951 218.145 169.291 218.117C168.205 218.071 167.81 217.053 168.033 216.204C168.365 214.941 169.406 214.403 170.367 214.519C170.989 214.593 171.575 215.242 171.4 216.347Z" fill="#00FFA3"/>
<path d="M196.068 147.809C195.893 149.072 194.699 149.742 194.014 149.787C192.887 149.861 192.405 148.901 192.574 148.038C192.826 146.755 193.864 146.109 194.867 146.118C195.515 146.123 196.169 146.699 196.068 147.809Z" fill="#00FFA3"/>
<path d="M204.694 80.6472C204.835 82.2139 203.597 83.4985 202.792 83.8334C201.468 84.3843 200.626 83.4459 200.588 82.3554C200.532 80.7338 201.592 79.5426 202.791 79.1401C203.566 78.8798 204.506 79.2922 204.694 80.6472Z" fill="#00FFA3"/>
<path d="M169.84 31.2489C168.901 36.5248 166.056 40.2179 162.773 42.5407C159.474 44.8746 155.759 45.8065 153.139 45.5769C148.792 45.196 145.81 42.835 144.108 39.6889C142.398 36.5269 141.975 32.5566 142.804 28.9913C145.284 18.3266 153.585 14.1214 161.358 15.4373C166.223 16.2609 171.076 21.8528 169.84 31.2489Z" fill="white" fill-opacity="0.1" stroke="#00FFA3"/>
<path d="M274.132 138.208C275.212 146.736 272.554 154.077 268.488 159.656C264.414 165.247 258.942 169.046 254.451 170.477C239.635 175.199 229.137 164.858 228.146 153.008C226.665 135.302 239.035 123.962 249.334 120.722C260.338 117.259 272.247 123.332 274.132 138.208Z" fill="white" fill-opacity="0.1" stroke="#00FFA3"/>
<path d="M253.123 211.959C254.609 218.053 253.3 223.566 250.828 227.911C248.349 232.27 244.714 235.43 241.602 236.8C231.326 241.324 222.911 234.648 221.217 226.153C218.681 213.443 226.666 204.302 233.83 201.18C241.457 197.856 250.533 201.337 253.123 211.959Z" fill="white" fill-opacity="0.1" stroke="#00FFA3"/>
<path d="M220.347 217.923L170.09 216.196" stroke="#00FFA3"/>
<path d="M227.858 146.572L195.62 147.685" stroke="#00FFA3"/>
<path d="M244.758 66.3091L217.532 69.1978L203.918 80.8528" stroke="#00FFA3"/>
<path d="M53.7181 158.512C51.4945 168.112 44.0837 172.12 40.3405 171.889C37.24 171.697 35.2323 169.744 34.2084 166.974C33.1801 164.193 33.168 160.63 34.0639 157.385C35.4074 152.517 37.7092 149.107 40.3418 147.031C42.9713 144.958 45.9581 144.191 48.7382 144.644C52.1315 145.196 55.3791 149.942 53.7181 158.512Z" fill="white" fill-opacity="0.1" stroke="#00FFA3"/>
<path d="M35.6448 230.419C33.4309 240.484 24.8793 244.56 20.3634 244.187C16.6387 243.879 14.1786 241.703 12.8618 238.739C11.5378 235.758 11.3788 231.988 12.2972 228.585C13.6752 223.48 16.2399 219.936 19.2644 217.812C22.2907 215.686 25.8102 214.957 29.1443 215.533C33.2629 216.245 37.2376 221.44 35.6448 230.419Z" fill="white" fill-opacity="0.1" stroke="#00FFA3"/>
<path d="M276.068 56.7175C277.585 62.4138 276.371 67.6926 274.004 71.926C271.63 76.1716 268.11 79.3365 265.079 80.7796C255.064 85.547 246.788 79.5784 245.045 71.6412C242.43 59.7317 250.116 50.6963 257.1 47.4021C264.54 43.893 273.427 46.8041 276.068 56.7175Z" fill="white" fill-opacity="0.1" stroke="#00FFA3"/>
<path d="M228.999 211.517C229.899 211.087 230.825 210.942 231.69 211.095C232.979 211.322 233.857 211.951 234.514 213.116L234.679 213.409L234.883 214.087C235.096 214.793 235.139 215.028 235.166 215.643C235.204 216.477 235.121 217.309 234.924 218.075C233.75 222.639 233.453 224.722 233.713 226.561C233.804 227.202 234.1 228.04 234.405 228.521C234.894 229.291 235.639 229.877 236.595 230.242C237.162 230.459 238.234 230.693 238.881 230.743C239.635 230.8 240.753 230.659 242.09 230.337C242.24 230.301 242.36 230.286 242.356 230.304C242.348 230.345 242.071 230.568 241.59 230.923C240.833 231.479 239.323 232.308 238.597 232.566C238.514 232.595 238.324 232.664 238.175 232.718C238.026 232.773 237.746 232.866 237.553 232.925L237.201 233.033L236.827 233.01C235.071 232.9 233.417 232.256 232.401 231.286C231.755 230.669 231.418 230.102 231.13 229.148C230.86 228.254 230.732 227.303 230.719 226.088C230.714 225.662 230.737 224.768 230.757 224.578C230.761 224.535 230.771 224.394 230.779 224.264C230.873 222.722 231.309 220.175 231.776 218.442C231.939 217.838 232.008 217.416 232.013 216.996L232.018 216.648L231.864 216.141L231.71 215.633L231.543 215.431C230.767 214.488 229.498 214.685 228.591 215.889C227.88 216.831 227.473 218.219 227.204 220.607C226.972 222.669 226.988 224.555 227.252 226.446C227.269 226.566 227.354 226.983 227.442 227.373L227.6 228.082L227.825 228.643C228.089 229.305 228.252 229.614 228.697 230.295C229.327 231.259 229.99 231.9 230.886 232.412C231.312 232.656 231.855 232.878 232.792 233.19C232.991 233.257 232.958 233.26 232.549 233.216C231.974 233.153 231.712 233.093 231.237 232.915C228.332 231.826 226.222 229.455 225.148 226.073C224.974 225.525 224.93 225.337 224.758 224.434C224.392 222.514 224.417 220.264 224.826 218.279C224.984 217.517 225.274 216.501 225.613 215.529C226.092 214.152 227.129 212.744 228.235 211.969C228.603 211.711 228.65 211.683 228.999 211.517Z" fill="#00FFA3"/>
<path d="M233.927 206.055C234.554 205.763 235.313 205.476 235.877 205.316C236.372 205.176 237.796 205.4 238.824 205.781C240.37 206.353 241.4 207.264 241.944 208.541C242.193 209.126 242.415 210.108 242.498 210.99C242.635 212.435 242.529 214.482 242.22 216.398C242.188 216.597 242.147 216.849 242.129 216.96C242.011 217.688 241.721 219.005 241.491 219.866C241.092 221.356 241.227 222.39 241.908 223.054C242.157 223.296 242.628 223.473 242.973 223.454C243.458 223.427 243.854 223.241 244.275 222.843C244.65 222.489 244.837 222.222 245.155 221.587C245.633 220.634 246.031 218.611 246.16 216.486C246.334 213.621 246.063 211.221 245.372 209.512C244.899 208.342 243.986 207.075 243.133 206.406C242.532 205.934 241.948 205.634 240.942 205.279C240.57 205.147 240.303 205.039 240.348 205.037C240.493 205.033 241.184 205.128 241.498 205.196C241.665 205.232 241.922 205.31 242.07 205.37C243.972 206.137 245.329 207.213 246.566 208.934C246.891 209.386 247.31 210.148 247.652 210.906C247.909 211.475 248.414 213.146 248.523 213.785C248.781 215.299 248.836 216.384 248.738 218.03C248.718 218.365 248.549 219.546 248.458 219.993C248.339 220.573 248.134 221.355 247.985 221.796C247.931 221.958 247.829 222.266 247.76 222.481C247.431 223.5 246.938 224.394 246.268 225.187C245.293 226.34 244.166 227.02 242.907 227.214C242.147 227.331 241.437 227.246 240.688 226.95C240.027 226.688 239.513 226.284 239.072 225.68C238.723 225.202 238.594 224.929 238.376 224.2L238.187 223.568L238.145 223.193C238.102 222.814 238.077 222.3 238.088 222.03C238.101 221.724 238.107 221.647 238.157 221.234C238.206 220.819 238.27 220.521 238.553 219.379C239.537 215.408 239.772 213.656 239.567 211.831C239.525 211.459 239.165 210.298 239.006 210.021C238.382 208.936 237.408 208.216 236.104 207.875C234.654 207.495 233.735 207.456 232.331 207.715C231.963 207.783 231.281 207.927 231.084 207.979C230.8 208.053 230.809 208.042 231.469 207.533C232.134 207.02 233.101 206.438 233.927 206.055Z" fill="#00FFA3"/>
<path fill-rule="evenodd" clip-rule="evenodd" d="M48.5624 85.9997C48.1763 87.3787 47.8364 88.4991 47.807 88.4894C47.7777 88.4798 47.0495 87.971 46.1891 87.3588C45.3286 86.7466 44.5938 86.2425 44.5561 86.2386C44.5184 86.2347 43.9013 86.8361 43.9013 86.8361L43.2593 87.5585C43.2593 87.5585 44.1273 88.1588 45.0402 88.8033C45.953 89.4477 46.821 90.048 46.821 90.048C46.821 90.048 45.7066 90.7776 44.2788 91.6834C42.8511 92.5891 41.6783 93.3469 41.6725 93.3674C41.6646 93.3958 42.1874 94.4696 42.1874 94.4696C42.1874 94.4696 43.2434 93.832 44.5159 93.0243C45.7884 92.2167 46.8771 91.5286 46.9352 91.4952C47.0192 91.447 46.8574 92.0903 46.1477 94.6254L45.2545 97.8163L43.3254 97.987L41.3964 98.1577L41.195 98.8773L40.9935 99.5969L42.9225 99.4262L44.8516 99.2555L44.2664 101.346L43.6813 103.436L44.482 103.365L45.2827 103.294L45.8679 101.204L46.453 99.1138L48.382 98.9431L50.3111 98.7724L50.5125 98.0528L50.714 97.3332L48.7849 97.5039L46.8559 97.6746L47.7492 94.4837C48.4588 91.9486 48.5964 91.4369 48.657 91.4723C48.6989 91.4968 49.5644 92.0993 50.4378 92.717C50.4378 92.717 51.909 93.6706 51.9249 93.6557C52.0763 93.5142 53.1659 92.3781 53.1739 92.3497C53.1796 92.3292 52.3822 91.7458 51.402 91.0531C50.4217 90.3604 49.653 89.7686 49.6936 89.738C49.7344 89.7074 50.8552 88.9926 52.1845 88.1495C53.5138 87.3063 54.6574 86.5723 54.7259 86.5182C54.8304 86.4358 54.8067 86.3338 54.5789 85.886C54.4296 85.5924 54.2894 85.3538 54.2675 85.3557C54.2456 85.3577 53.1851 86.0229 51.911 86.8341C50.6368 87.6453 49.5646 88.3217 49.5282 88.3371C49.4917 88.3527 49.7778 87.237 50.1638 85.858L50.8657 83.3508L50.0649 83.4217L49.2642 83.4925L48.5624 85.9997Z" fill="#00FFA3"/>
<path fill-rule="evenodd" clip-rule="evenodd" d="M40.0477 151.362C40.2103 151.434 40.5564 151.686 40.8168 151.923C41.6207 152.654 42.2901 153.641 42.6364 154.604C42.8027 155.066 42.8194 155.089 42.9714 155.063C43.6947 154.939 44.6901 154.859 44.9881 154.902L45.3266 154.951L45.5072 154.711C45.6066 154.58 45.9908 154.147 46.3609 153.751C47.945 152.054 50.1383 150.463 50.9803 150.401C51.1647 150.387 51.2188 150.409 51.2666 150.518C51.4947 151.035 50.1628 153.882 48.3014 156.854L47.8653 157.551L47.789 157.402C47.7167 157.261 47.7281 157.228 48.0041 156.79C48.345 156.25 48.5587 155.808 48.7567 155.235C48.9658 154.63 48.9337 154.632 48.6138 155.246C48.2988 155.851 48.0736 156.206 47.7722 156.572L47.5733 156.814L47.3084 156.346C47.1628 156.088 46.9711 155.771 46.8825 155.641L46.7214 155.405L47.0433 154.731C47.2203 154.361 47.581 153.716 47.8448 153.298L48.3244 152.538L47.712 153.218C47.0197 153.987 46.6065 154.578 46.2882 155.254C46.078 155.701 46.0696 155.741 46.0569 156.356C46.0471 156.836 46.0658 157.035 46.1323 157.157L46.2207 157.32L46.2939 157.102C46.3696 156.877 46.4569 156.826 46.5736 156.939C46.6263 156.99 46.6341 156.942 46.6098 156.719L46.5788 156.434L46.7241 156.561C46.8041 156.632 47.0563 156.955 47.2847 157.279L47.7 157.87L47.6314 158.215C47.5936 158.404 47.4878 158.763 47.3962 159.011C47.2325 159.455 47.2314 159.466 47.3327 159.589C47.4754 159.763 47.4608 159.816 47.2664 159.83C47.0241 159.848 47.0107 159.923 47.1974 160.22C47.3708 160.495 47.5793 161.021 47.5761 161.176C47.575 161.228 47.4259 161.126 47.2155 160.929C46.6813 160.429 46.6991 160.425 46.6923 161.048C46.6879 161.442 46.6589 161.644 46.5815 161.817L46.4766 162.052L46.2941 161.882C46.1938 161.788 46.096 161.713 46.0768 161.714C46.0576 161.716 45.9375 161.888 45.8098 162.096C45.507 162.592 44.8913 163.212 44.577 163.339C44.3519 163.43 44.3276 163.46 44.2302 163.77C44.1121 164.146 43.5386 165.071 43.2307 165.381C43.0046 165.61 42.3962 165.927 42.1492 165.945C42.061 165.951 41.8643 165.901 41.712 165.833L41.4353 165.708L41.0762 165.88C40.8788 165.974 40.6471 166.056 40.5614 166.061C40.3139 166.078 39.955 165.906 39.7913 165.694C39.5262 165.349 39.3849 164.496 39.5054 163.968C39.5423 163.807 39.5273 163.784 39.3344 163.709C39.0313 163.59 38.8123 163.214 38.7388 162.686C38.7063 162.453 38.6672 162.263 38.6517 162.264C38.6363 162.265 38.4972 162.367 38.3426 162.49L38.0615 162.713L38.0654 162.521C38.0716 162.224 38.2326 161.76 38.427 161.48C38.5239 161.34 38.6034 161.213 38.6038 161.197C38.6056 161.108 38.405 161.223 37.9142 161.59C37.6129 161.816 37.3565 161.992 37.3445 161.981C37.3064 161.945 37.7589 161.388 38.1799 160.953L38.5864 160.533L38.4036 160.509C38.3031 160.496 38.2211 160.474 38.2214 160.46C38.2217 160.446 38.3094 160.345 38.4162 160.236C38.5937 160.054 38.6142 159.999 38.653 159.599C38.6765 159.358 38.7394 159.021 38.7929 158.85C38.8804 158.569 38.9499 158.482 39.4868 157.981C40.1914 157.324 40.73 156.869 40.7648 156.903C40.7785 156.916 40.7234 157.028 40.6425 157.152C40.4864 157.391 40.4929 157.415 40.6816 157.3C40.7928 157.231 40.7979 157.241 40.7723 157.467L40.7451 157.707L40.9033 157.535C41.1372 157.282 41.4622 156.696 41.5792 156.318C41.7166 155.873 41.7302 155.104 41.609 154.629C41.5166 154.268 41.004 153.069 40.963 153.118C40.9516 153.132 40.9964 153.439 41.0625 153.801C41.1484 154.271 41.1788 154.654 41.1692 155.145L41.1559 155.833L40.8518 156.123C40.6846 156.283 40.3345 156.635 40.0739 156.905C39.6524 157.342 39.5943 157.385 39.5464 157.293C39.4176 157.047 39.3126 156.486 39.2882 155.913L39.2618 155.296L39.1829 155.753C39.0835 156.328 39.0711 156.865 39.144 157.426C39.1985 157.846 39.1953 157.872 39.0662 158.062C38.8913 158.317 38.8704 158.274 38.7711 157.447C38.4859 155.071 38.7661 151.843 39.2973 151.385C39.4984 151.212 39.6914 151.206 40.0477 151.362ZM48.9031 154.639C48.9028 154.655 48.9153 154.667 48.9309 154.666C48.9466 154.665 48.9596 154.651 48.96 154.635C48.9603 154.619 48.9478 154.607 48.9321 154.608C48.9165 154.609 48.9034 154.623 48.9031 154.639ZM40.213 160.258C40.2086 160.471 40.2404 160.561 40.369 160.702C40.522 160.869 40.5546 160.877 40.9908 160.865C41.3592 160.855 41.4466 160.837 41.4282 160.776C41.4156 160.733 41.3664 160.567 41.3189 160.406L41.2325 160.114L40.8528 160.075C40.644 160.054 40.4159 160.027 40.3458 160.014C40.2277 159.994 40.2181 160.011 40.213 160.258ZM45.1071 159.743L44.6219 159.864L44.3462 160.24L44.0705 160.617L44.4382 160.607C44.888 160.595 45.2371 160.431 45.4563 160.13C45.6518 159.861 45.7588 159.591 45.662 159.61C45.6236 159.617 45.3739 159.677 45.1071 159.743ZM40.963 164.237C40.6708 164.604 40.7879 164.954 41.2438 165.077C41.4994 165.146 41.6246 165.132 41.9903 164.995C42.531 164.792 42.8336 164.328 42.617 164.034C42.5523 163.946 42.5098 163.945 42.1773 164.031C41.8449 164.117 41.578 164.127 41.2362 164.065C41.1507 164.049 41.0739 164.098 40.963 164.237Z" fill="#00FFA3"/>
<path fill-rule="evenodd" clip-rule="evenodd" d="M26.4678 220.006C26.1078 220.064 25.6126 220.175 25.3674 220.253C24.9869 220.374 24.8103 220.369 24.1639 220.219C23.2887 220.015 22.1784 220.077 21.2924 220.378C20.6405 220.6 19.9984 221.148 19.8988 221.567L19.831 221.852L20.7538 221.916C21.6913 221.982 21.9054 222.076 21.5831 222.284C21.3848 222.412 20.4787 223.234 20.15 223.585C19.9927 223.753 19.7966 223.823 19.3703 223.863C18.2733 223.966 17.235 224.558 16.5838 225.451C16.1484 226.048 15.9898 226.433 16.1396 226.53C16.196 226.567 16.6324 226.514 17.1093 226.413C17.5861 226.311 17.989 226.257 18.0045 226.291C18.0201 226.326 17.8426 226.728 17.6103 227.184C17.0645 228.256 16.445 230.113 16.2694 231.204C15.8 234.12 16.5472 236.747 18.2706 238.239C19.4312 239.244 21.3078 239.734 22.9297 239.456C23.4468 239.368 23.5762 238.901 23.1355 238.714C23.0201 238.665 22.7904 238.441 22.6249 238.217C22.2339 237.685 21.933 237.48 21.5031 237.45C21.1957 237.428 21.164 237.396 21.2368 237.177C21.2823 237.041 21.3321 236.704 21.3475 236.429C21.3727 235.981 21.4151 235.852 21.7652 235.161C21.9795 234.738 22.1483 234.351 22.1402 234.301C22.0646 233.833 20.5415 234.82 19.9601 235.714C19.8508 235.882 19.7144 236.092 19.6325 236.217L19.5978 236.271C19.4778 236.455 19.4436 236.43 19.2205 235.996C18.8634 235.301 18.8765 234.598 19.2659 233.576C19.5139 232.926 19.6701 232.647 20.0738 232.135C20.8231 231.184 22.2727 230.036 23.3686 229.525L23.8714 229.29L26.3011 228.485C29.5113 227.537 30.9224 226.466 31.9549 224.196C32.4741 223.054 32.4781 222.879 31.9992 222.205C31.0752 220.904 29.8526 220.202 28.1904 220.02C27.5015 219.944 26.8901 219.939 26.4678 220.006ZM31.4544 222.69C31.1406 222.164 30.0684 221.327 29.3532 221.049C26.9665 220.122 24.0619 220.876 21.4764 223.094C21.0842 223.431 20.7463 223.758 20.7252 223.821C20.6349 224.092 21.1116 223.926 21.7233 223.473C23.0033 222.526 24.1402 221.975 25.5284 221.631C25.7758 221.569 26.4664 221.556 27.1328 221.6C28.0965 221.663 28.4077 221.727 28.8976 221.965C29.5527 222.282 30.207 222.81 30.5967 223.336C30.808 223.622 30.8862 223.66 31.07 223.571C31.191 223.513 31.3703 223.363 31.4684 223.239C31.6257 223.04 31.624 222.975 31.4544 222.69ZM30.2342 223.722C29.9653 223.296 29.1302 222.663 28.5018 222.409C27.0296 221.813 25.4328 221.923 23.7415 222.737C23.1 223.046 21.8643 223.858 21.8163 224.002C21.7995 224.052 22.0084 224.142 22.2804 224.202C22.6905 224.292 22.8899 224.273 23.4466 224.091C24.7489 223.665 26.3825 223.652 28.3975 224.052C29.3724 224.245 29.8816 224.244 30.214 224.049C30.3541 223.966 30.3571 223.917 30.2342 223.722ZM17.4418 229.172C17.7474 228.475 18.2756 227.472 18.7577 226.674C18.8636 226.498 18.8662 226.435 18.7674 226.428C18.583 226.415 17.9522 227.639 17.4698 228.946L17.0895 229.977L17.4418 229.172ZM18.7364 228.669C19.0109 228.146 19.2865 227.642 19.3488 227.549C19.4179 227.445 19.4203 227.258 19.3551 227.07L19.248 226.76L18.9423 227.226C17.9208 228.783 17.1897 230.884 17.0364 232.704L16.9839 233.327L17.6107 231.473C18.1042 230.013 18.3436 229.417 18.7364 228.669Z" fill="#00FFA3"/>
<path d="M245.196 159.507C245.449 162.999 246.243 165.127 247.523 165.091C249.543 165.034 252.189 159.601 254.177 151.984C260.848 155.02 266.374 156.126 267.675 154.424C268.973 152.725 265.668 148.709 259.886 144.514C267.185 139.975 271.911 135.749 271.194 134.1C270.729 133.038 268.079 133.25 264.167 134.449C264.078 134.241 263.927 134.07 263.729 133.953C263.531 133.837 263.294 133.778 263.04 133.784C262.832 133.792 262.619 133.843 262.416 133.932C262.213 134.021 262.024 134.147 261.862 134.301C261.7 134.455 261.569 134.633 261.476 134.825C261.383 135.017 261.331 135.218 261.324 135.415C259.88 135.946 258.326 136.576 256.691 137.292C257.302 129.697 256.498 124.346 254.474 124.403C252.453 124.46 249.809 129.893 247.821 137.508C241.15 134.474 235.621 133.368 234.323 135.07C233.511 136.135 234.499 138.107 236.773 140.46C236.723 140.577 236.688 140.696 236.667 140.816C236.532 141.609 237.072 142.233 237.873 142.21C238.072 142.205 238.275 142.16 238.469 142.078C239.631 143.1 240.846 144.068 242.111 144.98C234.813 149.519 230.086 153.745 230.806 155.394C231.527 157.041 237.502 155.624 245.307 152.202C245.17 153.902 245.104 155.491 245.104 156.932C244.886 157.073 244.696 157.256 244.552 157.465C244.408 157.673 244.313 157.903 244.275 158.133C244.157 158.826 244.557 159.392 245.196 159.507ZM246.158 159.358C246.424 159.228 246.659 159.037 246.84 158.806C247.02 158.575 247.138 158.313 247.181 158.049C247.249 157.689 247.17 157.344 246.961 157.085C246.753 156.825 246.43 156.672 246.058 156.655C246.072 155.11 246.182 153.426 246.347 151.738C247.605 151.168 248.854 150.574 250.095 149.957C251.19 150.544 252.27 151.09 253.326 151.589C252.815 153.485 252.238 155.376 251.596 157.259C249.655 162.745 248.048 163.933 248.048 163.933C247.682 164.326 247.429 164.047 247.429 164.047C246.449 162.739 246.269 160.268 246.269 160.268C246.223 159.967 246.186 159.664 246.158 159.358ZM239.296 141.398C239.438 141.19 239.533 140.963 239.571 140.734C239.707 139.939 239.167 139.317 238.364 139.34C238.051 139.348 237.73 139.456 237.451 139.645C235.079 137.145 235.053 135.889 235.053 135.889L235.054 135.885C234.933 135.449 235.363 135.33 235.363 135.33C237.239 134.949 239.668 135.628 239.668 135.628C241.983 136.084 244.827 137.227 247.562 138.528C247.254 139.773 246.975 141.019 246.725 142.266C245.451 142.977 244.222 143.691 243.055 144.402C241.763 143.442 240.51 142.439 239.296 141.398ZM261.614 136.283C261.724 136.406 261.863 136.502 262.024 136.566C262.185 136.631 262.364 136.661 262.552 136.656C263.274 136.636 263.962 136.095 264.19 135.409C268.094 134.191 269.578 134.279 270.082 134.402C270.164 134.422 270.23 134.471 270.268 134.539C270.306 134.608 270.314 134.693 270.29 134.778C270.011 135.822 267.762 137.758 267.762 137.758C265.046 140.031 262.176 142.122 259.181 144.009C258.196 143.317 257.191 142.65 256.164 142.009C256.342 140.758 256.49 139.508 256.608 138.262C258.264 137.557 259.934 136.897 261.614 136.283ZM258.95 145.09C266.071 150.464 266.947 152.954 267.023 153.699C267.032 153.78 267.008 153.867 266.957 153.945C266.905 154.022 266.83 154.085 266.743 154.122C265.674 154.586 263.117 154.012 263.117 154.012C260.088 153.271 257.179 152.281 254.417 151.051C254.722 149.825 255.007 148.544 255.272 147.23C256.551 146.519 257.778 145.801 258.95 145.09ZM245.987 146.456C245.258 145.976 244.54 145.481 243.836 144.972C244.734 144.439 245.631 143.922 246.502 143.43C246.313 144.439 246.142 145.448 245.987 146.456ZM245.836 147.483C245.656 148.775 245.506 150.028 245.393 151.232C243.439 152.073 241.467 152.854 239.48 153.574C233.707 155.605 232.063 155.057 232.063 155.057C231.574 155.013 231.755 154.614 231.755 154.614C232.653 152.929 234.907 151.132 234.907 151.132C236.88 149.359 239.851 147.374 242.891 145.535C243.818 146.185 244.803 146.838 245.836 147.485L245.836 147.483ZM256.003 143.104C256.943 143.666 257.499 144.019 257.499 144.019C257.761 144.211 258.018 144.397 258.265 144.581C257.189 145.244 256.239 145.8 255.466 146.235C255.664 145.19 255.843 144.148 256.003 143.104ZM253.574 150.67C252.598 150.22 251.763 149.8 251.104 149.452C252.166 148.911 253.221 148.355 254.269 147.784C254.05 148.778 253.812 149.75 253.574 150.67ZM246.779 148.062C247.59 148.553 248.411 149.029 249.243 149.491C248.289 149.948 247.347 150.378 246.447 150.774C246.545 149.871 246.656 148.967 246.779 148.062ZM246.919 147.055C247.122 145.644 247.348 144.232 247.596 142.82C248.946 142.072 250.304 141.342 251.67 140.628C253.023 141.362 254.237 142.058 255.203 142.625C255.1 143.272 255.03 143.633 255.03 143.633C254.881 144.681 254.697 145.73 254.481 146.78C253.774 147.166 253.371 147.367 253.371 147.367C252.347 147.937 251.31 148.48 250.263 148.997C249.667 148.666 249.344 148.463 249.344 148.463C248.517 148.018 247.708 147.55 246.919 147.055ZM252.818 140.034C253.969 139.442 254.672 139.098 254.672 139.098C255.013 138.947 255.349 138.801 255.676 138.66C255.582 139.765 255.469 140.733 255.364 141.514C254.527 141.006 253.678 140.512 252.818 140.034ZM248.394 138.931C249.195 139.326 249.982 139.728 250.734 140.126C249.752 140.628 248.775 141.144 247.804 141.673C248.015 140.521 248.16 139.824 248.16 139.824L248.394 138.931ZM248.674 137.902C251.316 128.385 253.351 125.99 254.021 125.427C254.094 125.366 254.183 125.327 254.273 125.318C254.362 125.309 254.446 125.329 254.51 125.377C255.299 125.959 255.618 128.467 255.618 128.467C255.99 131.807 255.935 135.073 255.751 137.712C254.46 138.295 253.178 138.903 251.905 139.535C250.847 138.965 249.769 138.421 248.674 137.902ZM250.55 147.093C251.214 147.074 251.894 146.804 252.44 146.342C252.986 145.88 253.354 145.264 253.463 144.629C253.571 143.994 253.411 143.393 253.018 142.957C252.625 142.522 252.032 142.288 251.367 142.306C250.703 142.325 250.023 142.595 249.477 143.057C248.931 143.519 248.563 144.136 248.454 144.77C248.346 145.405 248.506 146.007 248.899 146.442C249.292 146.878 249.885 147.112 250.55 147.093Z" fill="#00FFA3"/>
<path fill-rule="evenodd" clip-rule="evenodd" d="M263.179 60.9385C264.774 61.6442 266.419 62.3729 267.578 63.5844C268.915 64.9823 269.329 66.7833 268.844 69.0869C268.406 71.1832 266.905 73.1426 264.611 74.6034C262.778 75.7821 260.459 76.5952 258.409 76.7843L258.265 76.7976C255.097 77.0484 252.389 75.8045 250.432 73.2054C250.373 73.1276 250.395 73.0017 250.484 72.9149L251.359 72.069C251.443 71.9893 251.562 71.983 251.618 72.0554L251.62 72.0587C253.344 74.3375 255.602 75.4152 258.334 75.2515C258.335 75.2514 258.336 75.2503 258.337 75.249C258.337 75.2477 258.338 75.2466 258.339 75.2464L258.596 75.2228C260.438 75.0529 263.29 73.6651 263.623 71.5968C264.144 68.4611 261.756 67.5287 258.988 66.4477L258.985 66.4468L258.953 66.4359L258.946 66.4321L258.93 66.426C255.804 65.2087 252.267 63.8312 253.105 58.7054C253.449 56.5948 254.819 54.56 256.96 52.9749C258.752 51.648 260.983 50.7507 262.922 50.5718L263.049 50.5601C263.152 50.546 263.25 50.537 263.339 50.5288C263.487 50.5151 263.622 50.5072 263.748 50.5095C266.673 50.4563 268.882 51.6493 270.691 54.2575L270.692 54.2593C270.748 54.3394 270.722 54.4645 270.631 54.5489L269.739 55.3687C269.653 55.4456 269.535 55.447 269.485 55.3716L269.483 55.3692C267.859 53.039 265.993 52.0173 263.428 52.0648C263.327 52.0695 263.222 52.0746 263.116 52.0844C262.224 52.1666 261.222 52.5172 260.431 53.0235C259.728 53.471 258.836 54.2633 258.578 55.4625C257.925 58.6066 260.356 59.687 263.167 60.935L263.179 60.9385ZM262.409 62.374C260.943 61.7303 259.427 61.0634 258.387 60.0345C257.197 58.8629 256.812 57.3678 257.217 55.4635C257.302 55.0413 257.442 54.6316 257.641 54.2309C257.667 54.1786 257.617 54.1393 257.568 54.1753L257.558 54.1828C255.85 55.4513 254.771 57.0167 254.521 58.5887C253.857 62.6788 256.703 63.7808 259.715 64.9458L259.751 64.9595C261.188 65.5177 262.669 66.0926 263.71 67.0435C264.912 68.1405 265.345 69.5895 265.038 71.4801C264.957 71.9557 265.483 72.3087 265.857 71.9283C266.597 71.1757 267.231 70.2317 267.465 69.0942C267.853 67.2468 267.527 65.8663 266.438 64.7498C265.457 63.7417 263.995 63.0851 262.45 62.3913L262.436 62.3853L262.409 62.374Z" fill="#00FFA3"/>
<path fill-rule="evenodd" clip-rule="evenodd" d="M160.368 20.1881L161.527 18.9713C162.683 17.7579 162.688 17.7543 163.466 17.6974L164.245 17.6403L162.714 19.2529L161.183 20.8655L161.621 21.4288C162.917 23.0994 162.517 25.9477 160.729 27.7755L160.071 28.4482L160.546 29.0284C162.019 30.8283 161.592 33.7859 159.585 35.6836C158.39 36.8135 157.989 36.9214 153.859 37.2239L150.222 37.4903L149.096 38.68L147.97 39.8698L147.114 39.9324L146.259 39.9951L151.99 33.9783L157.72 27.9613L158.427 27.835C160.404 27.4814 161.837 24.6116 160.949 22.7814C160.92 22.7214 160.893 22.6638 160.868 22.6092C160.746 22.3468 160.656 22.1543 160.505 22.103C160.09 21.9617 159.214 22.8959 155.918 26.4071C155.67 26.6721 155.407 26.9517 155.13 27.2466C152.367 30.1885 150.065 32.5984 150.016 32.6021C149.966 32.6057 151.631 24.5034 152.037 21.2486L160.368 20.1881ZM159.049 21.5416C159.046 21.5643 157.367 23.3416 155.318 25.4912L151.592 29.3996L153.153 22.4547C154.95 22.323 159.051 21.519 159.049 21.5416ZM158.307 35.2177C160.367 33.9985 160.937 31.0559 159.351 29.8258C159.004 29.5567 158.781 29.3653 158.52 29.3546C157.964 29.3318 157.234 30.1246 154.768 32.72L151.529 36.1292L154.518 35.9102C157.459 35.6948 157.52 35.6837 158.307 35.2177Z" fill="#00FFA3"/>
<path d="M98.6203 144.994C98.7379 144.992 98.7901 145.052 98.7676 145.163L98.2547 148.848L100.541 148.803C101.722 148.779 102.097 148.661 102.766 147.988L105.682 145.036C105.763 144.952 105.834 144.922 105.992 144.919L106.956 144.9C107.126 144.897 107.111 145.03 107.031 145.109L103.849 148.277C103.378 148.752 103.033 149.042 102.622 149.222C103.035 149.407 103.339 149.695 103.616 150.122L105.721 153.279C105.762 153.34 105.739 153.512 105.556 153.516L104.569 153.535C104.41 153.538 104.371 153.5 104.321 153.429L102.37 150.463C101.994 149.894 101.596 149.691 100.45 149.714L98.2547 149.858L97.5191 153.419C97.4966 153.531 97.4195 153.593 97.302 153.595L96.4205 153.613C96.3029 153.615 96.2507 153.555 96.2732 153.444L97.5217 145.188C97.5442 145.077 97.6213 145.014 97.7388 145.012L98.6203 144.994Z" fill="#00FFA3"/>
<path d="M118.941 144.663C120.88 144.625 121.47 145.473 121.138 147.109L121.009 147.749C120.712 149.213 119.931 150.066 118.377 150.252L120.297 152.997C120.347 153.068 120.293 153.219 120.134 153.222L119.106 153.242C118.965 153.245 118.908 153.207 118.87 153.136L117.046 150.378L111.804 150.482L111.248 153.226C111.226 153.337 111.149 153.4 111.031 153.402L110.15 153.419C110.032 153.422 109.98 153.362 110.002 153.25L111.638 145.174C111.688 144.929 111.842 144.804 112.101 144.799L118.941 144.663ZM111.998 149.524L117.757 149.41C118.98 149.386 119.539 148.848 119.751 147.802L119.856 147.284C120.068 146.238 119.723 145.718 118.5 145.742L112.882 145.853C112.776 145.855 112.733 145.895 112.714 145.99L111.998 149.524Z" fill="#00FFA3"/>
<path d="M126.243 144.519C126.331 144.517 126.397 144.538 126.428 144.615L129.615 149.459L134.785 144.45C134.853 144.377 134.923 144.348 135.011 144.346L136.075 144.325C136.181 144.323 136.199 144.405 136.116 144.496L130.035 150.304L129.516 152.865C129.494 152.976 129.417 153.038 129.299 153.041L128.418 153.058C128.3 153.06 128.248 153.001 128.27 152.889L128.789 150.329L125.039 144.715C124.991 144.633 125.05 144.543 125.15 144.541L126.243 144.519Z" fill="#00FFA3"/>
<path d="M147.67 144.096C149.609 144.057 150.198 144.905 149.867 146.541L149.714 147.293C149.383 148.929 148.438 149.807 146.505 149.845L140.522 149.964L139.977 152.658C139.954 152.769 139.877 152.832 139.76 152.834L138.878 152.851C138.761 152.854 138.708 152.794 138.731 152.682L140.367 144.606C140.416 144.361 140.57 144.236 140.829 144.231L147.67 144.096ZM140.732 148.928L146.491 148.815C147.714 148.79 148.273 148.253 148.485 147.206L148.584 146.716C148.796 145.67 148.451 145.15 147.229 145.174L141.611 145.285C141.505 145.287 141.459 145.338 141.442 145.422L140.732 148.928Z" fill="#00FFA3"/>
<path d="M164.7 143.759C164.829 143.756 164.869 143.817 164.847 143.928L164.692 144.69C164.67 144.802 164.604 144.864 164.475 144.867L160.026 144.955L158.541 152.291C158.518 152.402 158.441 152.465 158.312 152.467L157.442 152.484C157.313 152.487 157.272 152.427 157.295 152.315L158.781 144.979L154.332 145.067C154.203 145.07 154.162 145.009 154.185 144.898L154.339 144.136C154.362 144.024 154.427 143.962 154.556 143.959L164.7 143.759Z" fill="#00FFA3"/>
<path d="M170.365 143.647C170.483 143.645 170.535 143.705 170.513 143.816L168.836 152.093C168.814 152.204 168.737 152.267 168.619 152.269L167.738 152.286C167.62 152.289 167.568 152.229 167.59 152.117L169.267 143.841C169.29 143.729 169.367 143.667 169.484 143.664L170.365 143.647Z" fill="#00FFA3"/>
<path d="M184.799 143.362C184.929 143.359 184.981 143.419 184.958 143.53L184.804 144.293C184.781 144.404 184.704 144.467 184.575 144.469L178.792 144.584C177.035 144.618 176.327 145.198 175.987 146.873L175.598 148.794C175.259 150.469 175.743 151.025 177.495 150.99L183.277 150.876C183.407 150.873 183.459 150.933 183.436 151.045L183.282 151.807C183.259 151.919 183.182 151.981 183.053 151.984L177.229 152.099C174.655 152.15 173.847 151.284 174.326 148.919L174.756 146.798C175.235 144.432 176.402 143.528 178.976 143.477L184.799 143.362Z" fill="#00FFA3"/>
<path d="M103.945 157.312C103.978 157.312 103.997 157.332 104.001 157.374L104.24 159.954C104.238 159.976 104.249 159.987 104.272 159.987L104.297 159.987C104.317 159.987 104.333 159.976 104.344 159.953L105.671 157.585C105.732 157.476 105.796 157.402 105.864 157.363C105.932 157.325 106.011 157.305 106.101 157.305L106.594 157.303C106.703 157.303 106.782 157.324 106.829 157.365C106.88 157.406 106.912 157.478 106.926 157.581L107.232 159.944C107.234 159.967 107.244 159.978 107.264 159.978L107.294 159.978C107.314 159.978 107.33 159.966 107.341 159.944L108.696 157.359C108.708 157.334 108.722 157.318 108.736 157.311C108.755 157.301 108.773 157.297 108.789 157.297L109.462 157.294C109.488 157.294 109.501 157.305 109.499 157.328C109.501 157.35 109.493 157.376 109.477 157.405L107.887 160.292C107.809 160.437 107.736 160.534 107.668 160.586C107.601 160.634 107.519 160.658 107.423 160.658L106.841 160.66C106.744 160.661 106.674 160.635 106.629 160.584C106.587 160.533 106.556 160.437 106.538 160.297L106.257 158.019C106.259 157.997 106.248 157.986 106.225 157.986L106.205 157.986C106.182 157.986 106.166 157.997 106.158 158.019L104.865 160.302C104.784 160.443 104.71 160.539 104.642 160.59C104.578 160.642 104.497 160.668 104.401 160.668L103.834 160.67C103.777 160.67 103.728 160.665 103.687 160.656C103.65 160.646 103.617 160.629 103.589 160.603C103.563 160.575 103.541 160.536 103.525 160.488C103.513 160.441 103.503 160.38 103.496 160.306L103.214 157.424C103.211 157.392 103.213 157.367 103.221 157.348C103.232 157.325 103.252 157.314 103.278 157.314L103.945 157.312Z" fill="#00FFA3"/>
<path d="M121.586 157.256C121.712 157.256 121.813 157.281 121.888 157.332C121.964 157.38 122.027 157.476 122.079 157.619L123.092 160.499C123.102 160.531 123.099 160.558 123.084 160.581C123.073 160.6 123.048 160.609 123.008 160.61L122.376 160.612C122.319 160.612 122.286 160.591 122.275 160.55L122.058 159.931L119.718 159.939L119.238 160.559C119.206 160.601 119.163 160.622 119.11 160.622L118.463 160.624C118.419 160.624 118.395 160.614 118.389 160.595C118.388 160.573 118.399 160.546 118.422 160.514L120.69 157.624C120.804 157.48 120.907 157.383 120.997 157.335C121.088 157.284 121.186 157.258 121.293 157.257L121.586 157.256ZM120.154 159.381L121.867 159.376L121.384 157.972C121.376 157.949 121.36 157.938 121.337 157.938L121.307 157.938C121.284 157.938 121.263 157.95 121.245 157.972L120.154 159.381Z" fill="#00FFA3"/>
<path d="M134.653 157.215C134.726 157.215 134.755 157.25 134.739 157.321L134.318 159.236C134.29 159.364 134.276 159.471 134.277 159.557C134.282 159.641 134.304 159.708 134.342 159.759C134.382 159.806 134.44 159.841 134.518 159.864C134.6 159.883 134.706 159.892 134.836 159.891L136.852 159.885C136.925 159.885 136.954 159.92 136.938 159.99L136.835 160.461C136.819 160.531 136.775 160.566 136.702 160.567L134.656 160.573C134.404 160.574 134.194 160.552 134.028 160.508C133.862 160.464 133.734 160.392 133.643 160.293C133.556 160.191 133.503 160.06 133.485 159.9C133.472 159.737 133.49 159.541 133.541 159.31L133.978 157.323C133.993 157.253 134.039 157.217 134.115 157.217L134.653 157.215Z" fill="#00FFA3"/>
<path d="M148.554 157.172C148.627 157.172 148.656 157.207 148.64 157.277L148.219 159.192C148.191 159.32 148.177 159.427 148.178 159.514C148.183 159.597 148.205 159.664 148.243 159.715C148.283 159.763 148.341 159.798 148.419 159.82C148.501 159.839 148.607 159.848 148.736 159.848L150.753 159.841C150.826 159.841 150.855 159.876 150.839 159.947L150.736 160.417C150.72 160.488 150.676 160.523 150.603 160.523L148.557 160.53C148.304 160.53 148.095 160.509 147.929 160.464C147.763 160.42 147.635 160.349 147.544 160.25C147.457 160.148 147.404 160.017 147.386 159.857C147.372 159.694 147.391 159.497 147.441 159.267L147.878 157.279C147.894 157.209 147.94 157.174 148.016 157.174L148.554 157.172Z" fill="#00FFA3"/>
<path d="M165.425 157.119C165.502 157.119 165.532 157.154 165.517 157.224L165.416 157.68C165.401 157.751 165.355 157.786 165.279 157.786L163.103 157.793C162.973 157.793 162.863 157.805 162.772 157.828C162.685 157.847 162.609 157.882 162.545 157.934C162.484 157.982 162.435 158.049 162.396 158.136C162.357 158.219 162.325 158.323 162.297 158.448L162.287 158.496L165.1 158.487C165.173 158.487 165.201 158.522 165.186 158.592L165.102 158.971C165.087 159.042 165.043 159.077 164.97 159.077L162.157 159.086L162.139 159.168C162.111 159.293 162.098 159.398 162.099 159.485C162.101 159.568 162.121 159.635 162.159 159.686C162.202 159.734 162.262 159.769 162.34 159.791C162.422 159.81 162.528 159.819 162.657 159.819L164.833 159.812C164.909 159.811 164.94 159.847 164.924 159.917L164.824 160.373C164.809 160.443 164.763 160.479 164.686 160.479L162.496 160.486C162.243 160.487 162.034 160.465 161.868 160.421C161.702 160.376 161.574 160.305 161.483 160.206C161.396 160.104 161.343 159.973 161.325 159.813C161.311 159.65 161.33 159.453 161.38 159.223L161.562 158.397C161.613 158.167 161.68 157.972 161.765 157.812C161.854 157.651 161.964 157.522 162.095 157.422C162.23 157.319 162.391 157.245 162.577 157.2C162.763 157.151 162.982 157.127 163.235 157.126L165.425 157.119Z" fill="#00FFA3"/>
<path d="M179.881 157.074C179.958 157.073 179.988 157.108 179.972 157.179L179.869 157.649C179.853 157.723 179.807 157.76 179.73 157.76L178.167 157.765L177.602 160.333C177.587 160.403 177.542 160.439 177.469 160.439L176.927 160.441C176.854 160.441 176.825 160.406 176.84 160.335L177.405 157.767L175.842 157.772C175.766 157.772 175.736 157.736 175.752 157.662L175.855 157.192C175.871 157.121 175.917 157.086 175.993 157.086L179.881 157.074Z" fill="#00FFA3"/>
<path d="M208.342 52.2524L102.227 64.0867C95.4794 64.8393 90.0784 70.0309 89.0598 76.744L64.0591 241.503C63.0242 248.323 67.9384 254.609 74.8066 255.251L185.903 265.634C189.7 265.989 193.082 263.24 193.51 259.451L216.074 59.9961C216.579 55.5319 212.807 51.7544 208.342 52.2524Z" fill="url(#paint2_linear_372_7856)" fill-opacity="0.29" stroke="#00FFA3"/>
<path d="M197.772 62.7965L104.933 70.6642C99.3937 71.1337 94.902 75.3464 94.0788 80.8444L70.6333 237.427C69.8576 242.607 73.6529 247.353 78.8773 247.735L177.952 254.985C181.704 255.259 185.003 252.519 185.42 248.78L205.32 70.5483C205.809 66.1629 202.169 62.4239 197.772 62.7965Z" stroke="#00FFA3"/>
<defs>
<filter id="filter0_d_372_7856" x="111.912" y="287.428" width="42.7168" height="7.75064" filterUnits="userSpaceOnUse" color-interpolation-filters="sRGB">
<feFlood flood-opacity="0" result="BackgroundImageFix"/>
<feColorMatrix in="SourceAlpha" type="matrix" values="0 0 0 0 0 0 0 0 0 0 0 0 0 0 0 0 0 0 127 0" result="hardAlpha"/>
<feOffset dy="1"/>
<feComposite in2="hardAlpha" operator="out"/>
<feColorMatrix type="matrix" values="0 0 0 0 0 0 0 0 0 0 0 0 0 0 0 0 0 0 1 0"/>
<feBlend mode="normal" in2="BackgroundImageFix" result="effect1_dropShadow_372_7856"/>
<feBlend mode="normal" in="SourceGraphic" in2="effect1_dropShadow_372_7856" result="shape"/>
</filter>
<linearGradient id="paint0_linear_372_7856" x1="128.824" y1="298.978" x2="156.99" y2="-13.0761" gradientUnits="userSpaceOnUse">
<stop/>
<stop offset="1" stop-color="#0F0F0F"/>
</linearGradient>
<linearGradient id="paint1_linear_372_7856" x1="127.872" y1="283.997" x2="129.28" y2="385.861" gradientUnits="userSpaceOnUse">
<stop stop-color="#467ED1"/>
<stop offset="1" stop-color="#467ED1" stop-opacity="0"/>
</linearGradient>
<linearGradient id="paint2_linear_372_7856" x1="198.283" y1="144.694" x2="18.0272" y2="124.509" gradientUnits="userSpaceOnUse">
<stop stop-color="#3F7774"/>
<stop offset="1" stop-color="#192023" stop-opacity="0"/>
</linearGradient>
</defs>
</svg>
