<svg width="300" height="469" viewBox="0 0 300 469" fill="none" xmlns="http://www.w3.org/2000/svg">
<path d="M173.766 227.559C178.451 230.398 192.428 244.069 198.598 248.7C190.934 243.674 173.655 242.949 167.433 243.461C154.766 244.505 145.851 243.199 144.555 242.057C143.258 240.914 120.293 210.607 116.82 204.091C113.348 197.576 115.441 191.934 118.747 190.011C122.054 188.089 131.602 195.812 132.937 197.565C134.272 199.317 148.496 211.277 154.626 215.298L154.627 215.298C160.758 219.319 167.91 224.01 173.766 227.559Z" fill="#41479B"/>
<mask id="mask0_329_7944" style="mask-type:alpha" maskUnits="userSpaceOnUse" x="114" y="189" width="85" height="61">
<path d="M173.766 227.559C178.451 230.398 192.428 244.069 198.598 248.7C190.934 243.674 173.655 242.949 167.433 243.461C154.766 244.505 145.851 243.199 144.555 242.057C143.258 240.914 120.293 210.607 116.82 204.091C113.348 197.576 115.441 191.934 118.747 190.011C122.054 188.089 131.602 195.812 132.937 197.565C134.272 199.317 148.496 211.277 154.626 215.298L154.627 215.298C160.758 219.319 167.91 224.01 173.766 227.559Z" fill="#5A5197" stroke="black"/>
</mask>
<g mask="url(#mask0_329_7944)">
<path d="M171.41 229.469C160.33 221.723 151.846 212.438 148.989 208.765C156.189 212.22 172.16 220.641 178.439 226.68C184.719 232.718 194.585 243.535 198.733 248.189C192.862 242.259 169.846 237.444 159.072 235.778C160.636 234.003 172.372 234.101 173.101 232.379C173.685 231.001 172.217 229.865 171.41 229.469Z" fill="#00FFFF"/>
</g>
<path d="M246.407 327.59C246.406 322.81 237.306 300.727 235.89 299.559C234.707 307.481 239.527 321.788 239.527 340.381C239.527 352.94 242.505 383.33 245.587 389.716C248.668 396.103 247.602 404.586 247.142 407.055C246.683 409.524 242.996 421.103 242.028 423.239C241.253 424.948 241.003 431.07 240.974 433.917C244.171 434.889 252.737 433.62 261.43 420.765C263.056 415.416 263.304 411.497 262.258 400.467C261.213 389.438 250.789 376.941 245.893 366.892C240.997 356.843 246.408 333.566 246.407 327.59Z" fill="url(#paint0_linear_329_7944)" fill-opacity="0.6"/>
<path d="M153.497 246.321C150.065 246.038 136.955 241.759 129.781 238.967C130.756 247.34 132.932 264.474 133.834 266.026C134.962 267.966 142.601 272.176 146.015 275.814C148.746 278.725 153.474 286.906 155.496 290.633C149.597 287.43 137.394 280.481 135.782 278.304C134.17 276.126 133.336 275.833 133.121 275.958C134.209 280.805 137.965 290.579 141.144 294.22C148.911 303.114 200.195 319.148 220.15 332.635C218.125 336.841 214.243 340.391 214.128 346.086C213.926 356.153 225.673 357.814 230.231 390.203C230.719 393.675 232.041 421.034 234.101 423.586C234.91 416.05 236.503 400.041 236.4 396.293C236.298 392.546 230.617 355.1 227.789 336.845C228.528 334.397 229.659 327.712 228.269 320.56C226.532 311.621 224.178 300.877 224.832 295.306C225.387 290.579 222.763 273.149 195.823 249.881C180.241 244.698 157.788 246.675 153.497 246.321Z" fill="url(#paint1_linear_329_7944)"/>
<mask id="mask1_329_7944" style="mask-type:alpha" maskUnits="userSpaceOnUse" x="129" y="238" width="108" height="186">
<path d="M153.497 246.321C150.065 246.038 136.955 241.759 129.781 238.967C130.756 247.34 132.932 264.474 133.834 266.026C134.962 267.966 142.601 272.176 146.015 275.814C148.746 278.725 153.474 286.906 155.496 290.633C149.597 287.43 137.394 280.481 135.782 278.304C134.17 276.126 133.336 275.833 133.121 275.958C134.209 280.805 137.965 290.579 141.144 294.22C148.911 303.114 200.195 319.148 220.15 332.635C218.125 336.841 214.243 340.391 214.128 346.086C213.926 356.153 226.885 367.11 231.443 399.5C231.932 402.971 232.041 421.034 234.101 423.586C234.91 416.05 236.503 400.041 236.4 396.293C236.298 392.546 230.617 355.1 227.789 336.845C228.528 334.397 229.659 327.712 228.269 320.56C226.532 311.621 224.178 300.877 224.832 295.306C225.387 290.579 222.763 273.149 195.823 249.881C180.241 244.698 157.788 246.675 153.497 246.321Z" fill="url(#paint2_linear_329_7944)"/>
</mask>
<g mask="url(#mask1_329_7944)">
<path d="M138.36 244.794C138.943 243.416 145.189 244.139 148.239 244.673C144.883 242.472 133.568 238.784 128.33 237.215C132.258 246.352 127.412 271.347 124.498 282.702L134.58 272.514C137.331 268.319 137.631 246.515 138.36 244.794Z" fill="#41479B"/>
</g>
<path d="M164.895 272.596C162.053 269.451 155.573 257.29 152.688 251.602C152.211 257.761 153.853 267.931 155.462 275.512C156.617 280.951 157.755 285.058 158.083 285.394C158.869 286.2 192.13 292.742 202.15 294.175C210.165 295.322 212.907 303.924 216.9 307.704C216.139 305.306 212.24 298.006 209.381 294.773C203.065 287.631 181.573 286.571 179.142 282.934C176.711 279.298 168.448 276.527 164.895 272.596Z" fill="#41479B"/>
<path d="M60.4731 229.953C58.9776 226.524 53.9829 202.017 51.6725 190.191C36.8991 176.026 25.9766 180.797 24.1156 181.879C21.4632 183.422 22.0556 185.764 22.7394 186.472C24.3033 188.091 40.3436 206.576 41.7702 207.959C42.9115 209.065 54.7143 223.082 60.4731 229.953Z" fill="#00FFFF"/>
<mask id="mask2_329_7944" style="mask-type:alpha" maskUnits="userSpaceOnUse" x="22" y="180" width="39" height="50">
<path d="M60.4731 229.953C58.9776 226.524 53.9829 202.017 51.6725 190.191C36.8991 176.026 25.9766 180.797 24.1156 181.879C21.4632 183.422 22.0556 185.764 22.7394 186.472C23.4442 187.202 27.089 191.357 31.0113 195.828C35.7927 201.278 40.9865 207.199 41.7702 207.959C42.9115 209.065 54.7143 223.082 60.4731 229.953Z" fill="#D9D9D9"/>
<path d="M60.4731 229.953C58.9776 226.524 53.9829 202.017 51.6725 190.191C36.8991 176.026 25.9766 180.797 24.1156 181.879C21.4632 183.422 22.0556 185.764 22.7394 186.472C23.4442 187.202 27.089 191.357 31.0113 195.828C35.7927 201.278 40.9865 207.199 41.7702 207.959C42.9115 209.065 54.7143 223.082 60.4731 229.953Z" stroke="black"/>
</mask>
<g mask="url(#mask2_329_7944)">
<path d="M47.0163 194.086C50.7042 197.998 52.2091 195.825 53.5047 193.342L62.1381 237.204L17.4756 182.712C19.2549 180.813 24.052 177.529 28.8432 176.968C38.1586 175.877 47.6773 183.32 44.0985 182.373C40.5197 181.425 33.0387 179.719 29.8058 181.599C26.324 183.624 33.7177 183.65 39.5952 188.019C41.8809 189.718 44.9089 191.851 47.0163 194.086Z" fill="#41479B"/>
</g>
<path d="M41.7262 126.527C36.4914 123.526 32.7144 129.248 31.4802 132.485C31.9575 135.985 44.4885 158.608 45.254 160.996C45.8665 162.907 50.1568 176.93 52.2254 183.703L51.3056 137.643C50.0472 135.121 46.961 129.528 41.7262 126.527Z" fill="#41479B"/>
<mask id="mask3_329_7944" style="mask-type:alpha" maskUnits="userSpaceOnUse" x="30" y="125" width="23" height="59">
<path d="M41.7262 126.527C36.4914 123.526 32.7144 129.248 31.4802 132.485C31.9575 135.985 44.4885 158.608 45.254 160.996C45.8665 162.907 50.1568 176.93 52.2254 183.703L51.3056 137.643C50.0472 135.121 46.961 129.528 41.7262 126.527Z" fill="#D9D9D9" stroke="black"/>
</mask>
<g mask="url(#mask3_329_7944)">
<path d="M42.2608 129.367C40.3901 127.341 35.2911 127.796 32.9754 128.278C34.0455 126.646 36.8051 123.109 39.2831 122.015C41.7611 120.92 50.4259 129.522 54.4485 133.961L53.9754 145.05C50.85 140.667 44.1315 131.394 42.2608 129.367Z" fill="#00FFFF"/>
</g>
<path d="M68.0922 136.596C61.1114 124.59 52.8167 132.563 52.8167 132.563C52.8167 132.563 53.3071 183.307 53.7865 189.013C54.266 194.719 62.2979 231.313 64.6783 238.119C67.0586 244.925 63.1426 240.902 74.0695 251.558C82.811 260.083 96.4634 277.596 102.197 285.287C100.932 282.243 100.157 254.659 99.9279 241.247C96.4376 236.872 88.8548 227.085 86.4457 222.942C83.4343 217.763 81.5627 201.527 80.939 199.37C80.3154 197.212 74.2655 147.212 68.0922 136.596Z" fill="#41479B"/>
<mask id="mask4_329_7944" style="mask-type:alpha" maskUnits="userSpaceOnUse" x="52" y="129" width="51" height="157">
<path d="M68.0922 136.596C61.1114 124.59 52.8167 132.563 52.8167 132.563C52.8167 132.563 53.3071 183.307 53.7865 189.013C54.266 194.719 62.2979 231.313 64.6783 238.119C65.6253 240.827 65.5757 241.82 65.8607 242.706C66.2921 244.047 67.49 245.142 74.0695 251.558C82.811 260.083 96.4634 277.596 102.197 285.287C100.932 282.243 100.157 254.659 99.9279 241.247C96.4376 236.872 88.8547 227.085 86.4457 222.942C84.2227 219.119 82.6207 209.27 81.6835 203.507C81.3511 201.464 81.1023 199.934 80.939 199.37C80.8108 198.926 80.4528 196.457 79.9114 192.724C77.8211 178.307 72.9955 145.028 68.0922 136.596Z" fill="#AD90D1"/>
<path d="M68.0922 136.596C61.1114 124.59 52.8167 132.563 52.8167 132.563C52.8167 132.563 53.3071 183.307 53.7865 189.013C54.266 194.719 62.2979 231.313 64.6783 238.119C65.6253 240.827 65.5757 241.82 65.8607 242.706C66.2921 244.047 67.49 245.142 74.0695 251.558C82.811 260.083 96.4634 277.596 102.197 285.287C100.932 282.243 100.157 254.659 99.9279 241.247C96.4376 236.872 88.8547 227.085 86.4457 222.942C84.2227 219.119 82.6207 209.27 81.6835 203.507C81.3511 201.464 81.1023 199.934 80.939 199.37C80.8108 198.926 80.4528 196.457 79.9114 192.724C77.8211 178.307 72.9955 145.028 68.0922 136.596Z" stroke="black"/>
</mask>
<g mask="url(#mask4_329_7944)">
<path d="M64.0546 138.879C61.5716 133.291 57.3598 129.378 55.5643 128.12C60.077 127.308 67.4077 128.722 70.9743 134.856C75.4325 142.523 85.3373 201.219 86.8638 206.82C88.0851 211.301 96.6497 229.393 101.489 239.412C100.739 239.221 95.2857 235.037 92.7221 233.263C90.1584 231.489 93.3753 240.908 94.319 243.08C90.8549 239.318 85.7604 231.838 83.6462 228.567L79.7608 229.571C80.0446 228.778 80.8371 226.811 81.7364 225.283C82.8606 223.374 80.5054 212.187 77.3667 202.397C74.228 192.607 67.1584 145.864 64.0546 138.879Z" fill="#00FFFF"/>
</g>
<path d="M131.827 276.71C131.13 273.221 131.695 273.377 131.695 273.377C132.544 273.198 137.966 277.605 139.91 279.31C141.465 280.673 147.532 284.222 150.371 285.826C146.812 279.706 143.869 275.888 140.432 273.651C137.365 271.655 133.586 270.072 132.08 267.483C130.574 264.893 127.143 230.035 126.624 227.502C126.104 224.969 134.268 190.928 134.636 180.634C132.95 167.045 123.039 167.105 121.396 168.636C114.208 175.335 103.382 226.975 102.096 234.021C100.809 241.067 102.749 289.063 106.706 293.69C110.663 298.317 137.948 315.831 144.209 320.063C150.47 324.295 192.52 344.874 195.072 346.539C197.624 348.205 198.704 353.875 199.499 356.876C200.294 359.878 202.151 358.168 207.302 364.305C212.454 370.442 227.803 386.511 226.997 381.312C226.191 376.112 217.792 356.876 213.659 352.615C207.075 345.827 214.951 336.975 217.792 333.329C205.296 323.275 151.937 306.122 143.15 298.636C136.121 292.646 132.484 281.471 131.827 276.71Z" fill="url(#paint3_linear_329_7944)"/>
<mask id="mask5_329_7944" style="mask-type:alpha" maskUnits="userSpaceOnUse" x="101" y="167" width="117" height="212">
<path d="M131.791 276.322C131.094 272.834 131.658 272.989 131.658 272.989C132.507 272.811 137.929 277.218 139.873 278.922C141.429 280.286 147.495 283.835 150.334 285.439C146.775 279.319 143.832 275.501 140.395 273.264C139.591 272.74 138.737 272.245 137.888 271.752C135.502 270.368 133.154 269.005 132.043 267.095C130.996 265.294 129.017 247.875 127.734 236.588C127.173 231.65 126.745 227.885 126.587 227.114C126.36 226.006 127.794 218.867 129.511 210.324C131.718 199.341 134.392 186.037 134.599 180.247C132.913 166.658 123.003 166.718 121.36 168.249C114.171 174.948 103.346 226.588 102.059 233.634C100.772 240.68 102.712 288.676 106.669 293.303C109.887 297.065 128.531 309.35 138.751 316.084C141.099 317.631 143.002 318.885 144.172 319.676C148.101 322.332 166.128 331.426 179.639 338.244C187.657 342.289 194.085 345.532 195.036 346.152C197.248 347.596 198.355 352.052 199.128 355.168C199.246 355.645 199.357 356.09 199.463 356.489C199.84 357.914 200.457 358.277 201.551 358.922C202.763 359.636 204.56 360.694 207.266 363.918C209.397 366.457 211.699 370.074 213.608 373.074C216.312 377.323 218.228 380.334 217.755 377.287C217.534 375.859 217.465 374.346 217.388 372.677C217.186 368.268 216.934 362.764 213.696 354.825C210.125 346.069 214.914 336.588 217.755 332.941C211.133 327.613 193.034 320.292 176.175 313.471C161.222 307.422 147.244 301.767 143.113 298.248C136.084 292.259 132.448 281.084 131.791 276.322Z" fill="#D9D9D9"/>
<path d="M131.791 276.322C131.094 272.834 131.658 272.989 131.658 272.989C132.507 272.811 137.929 277.218 139.873 278.922C141.429 280.286 147.495 283.835 150.334 285.439C146.775 279.319 143.832 275.501 140.395 273.264C139.591 272.74 138.737 272.245 137.888 271.752C135.502 270.368 133.154 269.005 132.043 267.095C130.996 265.294 129.017 247.875 127.734 236.588C127.173 231.65 126.745 227.885 126.587 227.114C126.36 226.006 127.794 218.867 129.511 210.324C131.718 199.341 134.392 186.037 134.599 180.247C132.913 166.658 123.003 166.718 121.36 168.249C114.171 174.948 103.346 226.588 102.059 233.634C100.772 240.68 102.712 288.676 106.669 293.303C109.887 297.065 128.531 309.35 138.751 316.084C141.099 317.631 143.002 318.885 144.172 319.676C148.101 322.332 166.128 331.426 179.639 338.244C187.657 342.289 194.085 345.532 195.036 346.152C197.248 347.596 198.355 352.052 199.128 355.168C199.246 355.645 199.357 356.09 199.463 356.489C199.84 357.914 200.457 358.277 201.551 358.922C202.763 359.636 204.56 360.694 207.266 363.918C209.397 366.457 211.699 370.074 213.608 373.074C216.312 377.323 218.228 380.334 217.755 377.287C217.534 375.859 217.465 374.346 217.388 372.677C217.186 368.268 216.934 362.764 213.696 354.825C210.125 346.069 214.914 336.588 217.755 332.941C211.133 327.613 193.034 320.292 176.175 313.471C161.222 307.422 147.244 301.767 143.113 298.248C136.084 292.259 132.448 281.084 131.791 276.322Z" stroke="black"/>
</mask>
<g mask="url(#mask5_329_7944)">
<path d="M135.921 179.594C136.215 171.358 130.377 166.811 127.996 168.196C135.37 176.886 121.392 228.339 121.392 228.339C121.392 228.339 128.365 264.918 125.922 283.664C129.748 279.864 130.257 273.415 131.106 273.236C131.955 273.058 137.252 280.238 139.196 281.942C140.752 283.306 150.507 286.818 153.346 288.423C149.788 282.302 144.317 273.684 140.88 271.446C137.813 269.45 134.18 267.364 133.324 265.891C132.758 264.918 128.217 229.734 127.698 227.201C127.178 224.668 135.552 189.887 135.921 179.594Z" fill="#00FFFF"/>
</g>
<path d="M233.106 298.628C232.869 285.175 226.006 269.568 204.708 254.137C233.27 279.884 224.454 297.338 228.548 309.813C232.641 322.289 231.11 334.875 230.693 337.962C230.276 341.05 236.244 377.406 237.981 387.459C239.371 395.502 237.031 415.721 235.688 424.826C238.79 419.651 244.876 408.231 244.41 403.951C243.827 398.6 236.907 352.998 236.829 338.187C236.751 323.377 233.344 312.082 233.106 298.628Z" fill="url(#paint4_linear_329_7944)"/>
<path d="M93.3341 222.63C88.9534 219.297 86.0662 215.032 84.8032 213.21C84.8226 216.394 86.4492 220.242 87.0046 221.197C89.3243 225.187 96.2495 234.996 100.217 239.719L100.804 230.75L101.151 227.672C99.4649 226.522 97.7149 225.963 93.3341 222.63Z" fill="#41479B"/>
<path d="M261.548 353.986C260.435 349.096 252.688 337.508 248.953 332.326C246.443 337.679 245.797 356.656 246.354 362.821C246.799 367.753 256.439 381.902 261.204 388.36C261.748 384.583 262.438 376.049 260.85 372.128C258.865 367.226 262.939 360.098 261.548 353.986Z" fill="url(#paint5_linear_329_7944)" fill-opacity="0.6"/>
<path fill-rule="evenodd" clip-rule="evenodd" d="M24.2234 100.144C18.2787 124.395 19.4364 149.843 27.5584 173.454L26.6128 173.779C18.4284 149.987 17.2618 124.343 23.2522 99.9061C29.2426 75.4692 42.137 53.2718 60.397 35.9623C78.6569 18.6527 101.511 6.96211 126.233 2.28527C150.955 -2.39156 176.501 0.142863 199.822 9.58617C223.143 19.0295 243.254 34.9829 257.757 55.5429C272.26 76.1029 280.541 100.401 281.613 125.539C282.685 150.676 276.503 175.592 263.803 197.312C251.103 219.032 232.423 236.639 209.99 248.034L209.537 247.142C231.799 235.835 250.337 218.361 262.94 196.807C275.543 175.252 281.678 150.527 280.614 125.581C279.551 100.636 271.332 76.5225 256.94 56.1193C242.548 35.7161 222.589 19.8843 199.446 10.5131C176.303 1.14176 150.952 -1.37335 126.419 3.26785C101.886 7.90903 79.2056 19.5105 61.0849 36.688C42.9642 53.8655 30.1681 75.8937 24.2234 100.144ZM49.9883 121.599C51.223 109.096 54.7586 96.9776 60.3699 85.8393C60.0741 85.6822 59.7859 85.5128 59.5059 85.3317C53.8226 96.5954 50.2421 108.853 48.9931 121.5L49.9883 121.599ZM109.92 38.6508C95.6952 44.9667 83.1405 54.4493 73.1944 66.3371C72.9341 66.1281 72.6648 65.9301 72.3871 65.7436C82.4374 53.7164 95.1303 44.1234 109.514 37.7369C126.105 30.3701 144.352 27.533 162.397 29.5146C180.442 31.4962 197.639 38.2257 212.236 49.0175C226.833 59.8093 238.308 74.2777 245.493 90.9485C247.157 94.8099 248.577 98.7574 249.75 102.768C249.424 102.853 249.108 102.962 248.804 103.094C247.64 99.107 246.229 95.1827 244.575 91.3443C237.46 74.8358 226.096 60.5083 211.641 49.8216C197.186 39.1349 180.157 32.4709 162.288 30.5086C144.419 28.5463 126.349 31.3558 109.92 38.6508ZM251.596 115.491C251.935 115.48 252.267 115.443 252.591 115.382C253.54 121.319 253.967 127.338 253.863 133.369C253.533 133.333 253.2 133.308 252.864 133.293C252.964 127.324 252.538 121.368 251.596 115.491ZM247.79 163.357C248.109 163.452 248.432 163.537 248.759 163.612C245.238 174.341 239.956 184.461 233.088 193.541C229.397 198.422 225.291 202.943 220.828 207.061C220.625 206.796 220.409 206.541 220.182 206.297C224.589 202.227 228.644 197.759 232.291 192.938C239.08 183.962 244.303 173.961 247.79 163.357ZM202.761 219.235C202.931 219.523 203.113 219.803 203.308 220.073C199.298 222.435 195.119 224.53 190.796 226.337L190.41 225.414C194.677 223.631 198.802 221.564 202.761 219.235ZM79.2009 147.614C76.3777 135.257 76.8074 122.457 80.3421 110.436C80.0157 110.354 79.6985 110.248 79.3925 110.121C75.8008 122.315 75.3619 135.301 78.226 147.837C80.3211 157.008 84.1129 165.627 89.3372 173.284C89.5757 173.047 89.8265 172.822 90.0885 172.61C84.9727 165.084 81.2579 156.618 79.2009 147.614ZM121.312 63.8156C105.775 70.6581 93.0841 82.6562 85.3799 97.7742C85.09 97.612 84.7872 97.4701 84.4734 97.3506C92.2807 82.013 105.151 69.8405 120.908 62.9005C136.784 55.9084 154.6 54.6642 171.293 59.3817C187.987 64.0992 202.516 74.4838 212.384 88.7509C214.333 91.5686 216.076 94.503 217.607 97.5312C217.288 97.6384 216.975 97.7584 216.668 97.8908C215.169 94.9356 213.465 92.0713 211.562 89.3198C201.826 75.2438 187.491 64.9984 171.021 60.3441C154.551 55.6897 136.975 56.9173 121.312 63.8156ZM223.913 120.907C224.244 120.84 224.569 120.759 224.889 120.665C225.682 126.224 225.851 131.891 225.367 137.561C224.578 146.804 222.081 155.746 218.07 163.96C217.778 163.802 217.473 163.667 217.155 163.555C221.121 155.442 223.591 146.608 224.371 137.476C224.845 131.917 224.684 126.36 223.913 120.907ZM210.631 174.419C210.876 174.645 211.139 174.852 211.418 175.037C209.267 178.003 206.889 180.821 204.298 183.464C192.155 195.852 176.076 203.624 158.824 205.444L158.719 204.449C175.74 202.654 191.603 194.986 203.584 182.764C206.149 180.148 208.502 177.357 210.631 174.419ZM105.471 190.366C104.367 189.517 103.29 188.639 102.241 187.734C102.504 187.523 102.755 187.299 102.994 187.063C103.998 187.926 105.027 188.763 106.081 189.574L105.471 190.366ZM171.42 94.0144L161.532 88.3389L123.358 109.936L133.245 115.611L171.42 94.0144ZM121.338 109.93L122.35 109.358L161.536 87.1878L161.537 87.1887L172.431 93.4421L173.44 94.0207L172.428 94.593L133.242 116.762L122.346 110.509L121.338 109.93ZM133.676 136.185L133.18 136.465L132.686 136.182L126.562 132.667L123.282 134.523L161.323 156.354L171.245 150.74L139.822 132.707L133.676 136.185ZM133.184 135.314L126.566 131.516L122.274 133.944L121.262 134.516L122.271 135.095L161.319 157.505L172.253 151.319L173.265 150.746L172.257 150.168L139.826 131.557L133.184 135.314ZM167.134 78.4005C195.948 87.8586 211.638 118.884 202.18 147.698C193.229 174.966 164.963 190.481 137.534 184.05C137.566 183.716 137.593 183.38 137.615 183.042C164.589 189.445 192.426 174.206 201.23 147.386C210.516 119.097 195.111 88.6365 166.822 79.3506C138.533 70.0648 108.073 85.4697 98.7873 113.759C91.7556 135.18 98.8821 157.847 115.04 171.622C114.867 171.912 114.7 172.208 114.538 172.507C97.9769 158.49 90.6538 135.33 97.8371 113.447C107.295 84.6331 138.321 68.9424 167.134 78.4005ZM131.11 130.485L121.204 124.799L121.238 113.511L131.145 119.197L131.11 130.485ZM132.147 118.619L121.241 112.36L120.243 111.787L120.24 112.938L120.202 125.377L131.107 131.636L132.105 132.209L132.109 131.058L132.147 118.619ZM135.288 130.497L173.482 108.888L173.517 97.6014L135.323 119.209L135.288 130.497ZM174.48 109.472L174.519 97.0347L174.522 95.8838L173.52 96.4505L134.324 118.625L134.286 131.064L134.283 132.215L135.284 131.648L174.48 109.472ZM173.341 154.33L173.307 165.617L163.365 171.241L163.4 159.955L173.341 154.33ZM162.36 172.958L162.364 171.808L162.402 159.371L173.345 153.179L174.347 152.613L174.343 153.764L174.305 166.201L163.362 172.392L162.36 172.958ZM159.189 171.228L121.128 149.385L121.163 138.098L159.223 159.941L159.189 171.228ZM160.225 159.363L121.167 136.947L120.168 136.374L120.165 137.525L120.127 149.963L159.185 172.379L160.183 172.952L160.187 171.801L160.225 159.363Z" fill="#5894CB"/>
<circle cx="96.3472" cy="180.101" r="6.06119" transform="rotate(-72.0039 96.3472 180.101)" fill="#5894CB"/>
<circle cx="81.6087" cy="103.964" r="2.89386" transform="rotate(-72.0039 81.6087 103.964)" fill="#5894CB"/>
<circle cx="214.727" cy="169.382" r="2.89386" transform="rotate(-72.0039 214.727 169.382)" fill="#5894CB"/>
<circle cx="251.24" cy="109.289" r="2.89386" transform="rotate(-72.0039 251.24 109.289)" fill="#5894CB"/>
<circle cx="66.0051" cy="75.2813" r="7.89699" transform="rotate(-72.0039 66.0051 75.2813)" fill="#5894CB"/>
<circle cx="221.305" cy="109.023" r="8.2937" transform="rotate(-72.0039 221.305 109.023)" fill="#5894CB"/>
<circle cx="212.274" cy="213.905" r="7.09848" transform="rotate(-72.0039 212.274 213.905)" fill="#5894CB"/>
<circle cx="252.33" cy="149.174" r="11.8858" transform="rotate(-158.74 252.33 149.174)" fill="#5894CB"/>
<path fill-rule="evenodd" clip-rule="evenodd" d="M250.303 141.23C250.576 141.23 250.797 141.445 250.797 141.71L250.797 143.629L251.785 143.629L251.785 141.71C251.785 141.445 252.006 141.23 252.279 141.23C252.552 141.23 252.773 141.445 252.773 141.71L252.773 143.629L253.951 143.629C255.414 143.629 256.725 144.642 256.725 146.029C256.725 146.746 256.375 147.362 255.836 147.791C256.954 148.334 257.713 149.504 257.713 150.829C257.713 152.657 256.27 154.189 254.429 154.189L252.773 154.189L252.773 156.108C252.773 156.373 252.552 156.588 252.279 156.588C252.006 156.588 251.785 156.373 251.785 156.108L251.785 154.189L250.797 154.189L250.797 156.108C250.797 156.373 250.576 156.588 250.303 156.588C250.03 156.588 249.809 156.373 249.809 156.108L249.809 154.189L249.315 154.189C249.042 154.189 248.821 153.974 248.821 153.709C248.821 153.444 249.042 153.229 249.315 153.229L249.809 153.229L249.809 144.589L249.315 144.589C249.042 144.589 248.821 144.374 248.821 144.109C248.821 143.844 249.042 143.629 249.315 143.629L249.809 143.629L249.809 141.71C249.809 141.445 250.03 141.23 250.303 141.23ZM250.797 144.589L250.797 147.469L253.951 147.469C255.006 147.469 255.737 146.762 255.737 146.029C255.737 145.296 255.006 144.589 253.951 144.589L250.797 144.589ZM250.797 148.429L250.797 153.229L254.429 153.229C255.669 153.229 256.725 152.182 256.725 150.829C256.725 149.476 255.669 148.429 254.429 148.429L250.797 148.429Z" fill="#191919" stroke="#191919" stroke-width="0.5"/>
<path fill-rule="evenodd" clip-rule="evenodd" d="M212.04 209.94C212.116 209.94 212.186 209.984 212.225 210.057L214.03 213.419C214.061 213.478 214.07 213.55 214.053 213.616C214.035 213.683 213.994 213.738 213.939 213.769L212.135 214.765C212.075 214.798 212.006 214.798 211.946 214.765L210.141 213.769C210.087 213.738 210.045 213.683 210.028 213.616C210.011 213.55 210.019 213.478 210.051 213.419L211.856 210.057C211.895 209.984 211.965 209.94 212.04 209.94ZM212.04 210.658L210.544 213.444L212.04 214.27L213.536 213.444L212.04 210.658Z" fill="#191919" stroke="#191919" stroke-width="0.5"/>
<path fill-rule="evenodd" clip-rule="evenodd" d="M212.041 218.832C211.968 218.832 211.901 218.785 211.861 218.708L210.056 215.218C210.002 215.114 210.009 214.977 210.074 214.884C210.138 214.79 210.244 214.764 210.331 214.818L212.041 215.887L213.751 214.818C213.838 214.764 213.944 214.79 214.008 214.884C214.072 214.977 214.08 215.114 214.026 215.218L212.221 218.708C212.181 218.785 212.114 218.832 212.041 218.832ZM212.041 218.055L213.228 215.759L212.136 216.442C212.076 216.479 212.006 216.479 211.946 216.442L210.854 215.759L212.041 218.055Z" fill="#191919" stroke="#191919" stroke-width="0.5"/>
<path fill-rule="evenodd" clip-rule="evenodd" d="M65.3982 73.8493L65.3982 71.7435L62.7527 71.7435C62.5701 71.7435 62.422 71.5553 62.422 71.3231C62.422 71.091 62.5701 70.9028 62.7527 70.9028L68.7051 70.9028C68.8877 70.9028 69.0358 71.091 69.0358 71.3231C69.0358 71.5553 68.8877 71.7435 68.7051 71.7435L66.0596 71.7435L66.0596 73.8493C66.8578 73.869 67.5816 73.9597 68.1321 74.0996C68.4421 74.1784 68.7145 74.2771 68.9173 74.399C69.0179 74.4594 69.1191 74.536 69.1998 74.6362C69.281 74.7371 69.3665 74.8953 69.3665 75.1062C69.3665 75.3172 69.281 75.4754 69.1998 75.5763C69.1191 75.6765 69.0179 75.7531 68.9173 75.8135C68.7145 75.9354 68.4421 76.034 68.1321 76.1129C67.5816 76.2528 66.8578 76.3435 66.0596 76.3632L66.0596 80.9911C66.0596 81.2232 65.9115 81.4114 65.7289 81.4114C65.5463 81.4114 65.3982 81.2232 65.3982 80.9911L65.3982 76.3632C64.6 76.3435 63.8762 76.2528 63.3257 76.1129C63.0157 76.034 62.7433 75.9354 62.5405 75.8135C62.4399 75.7531 62.3387 75.6765 62.258 75.5763C62.1768 75.4754 62.0913 75.3172 62.0913 75.1062C62.0913 74.8953 62.1768 74.7371 62.258 74.6362C62.3387 74.536 62.4399 74.4594 62.5405 74.399C62.7433 74.2771 63.0157 74.1784 63.3257 74.0996C63.8762 73.9597 64.6 73.869 65.3982 73.8493ZM65.7289 75.5266C66.6271 75.5266 67.4311 75.4338 68.0024 75.2885C68.2272 75.2313 68.4055 75.1686 68.5357 75.1062C68.4055 75.0439 68.2272 74.9811 68.0024 74.924C67.5022 74.7968 66.8236 74.7098 66.0596 74.6901L66.0596 74.9475C66.0596 75.1796 65.9115 75.3679 65.7289 75.3679C65.5463 75.3679 65.3982 75.1796 65.3982 74.9475L65.3982 74.6901C64.6342 74.7098 63.9556 74.7968 63.4554 74.924C63.2306 74.9811 63.0523 75.0439 62.9221 75.1062C63.0523 75.1686 63.2306 75.2313 63.4554 75.2885C64.0267 75.4338 64.8307 75.5266 65.7289 75.5266Z" fill="#191919" stroke="#191919" stroke-width="0.5"/>
<path fill-rule="evenodd" clip-rule="evenodd" d="M218.434 105.662C218.252 105.662 218.104 105.81 218.104 105.993C218.104 106.176 218.252 106.324 218.434 106.324L219.426 106.324L219.426 112.276L218.434 112.276C218.252 112.276 218.104 112.424 218.104 112.607C218.104 112.79 218.252 112.938 218.434 112.938L221.78 112.938C223.771 112.938 225.379 111.305 225.379 109.3C225.379 107.295 223.771 105.662 221.78 105.662L218.434 105.662ZM220.088 106.324L220.088 112.276L221.78 112.276C223.399 112.276 224.717 110.947 224.717 109.3C224.717 107.653 223.399 106.324 221.78 106.324L220.088 106.324Z" fill="#191919" stroke="#191919" stroke-width="0.5"/>
<mask id="path-38-inside-1_329_7944" fill="white">
<path fill-rule="evenodd" clip-rule="evenodd" d="M93.7712 176.887C93.8141 176.831 93.8862 176.797 93.9634 176.797L99.0445 176.797C99.1297 176.797 99.2079 176.838 99.2481 176.904C99.2883 176.97 99.2839 177.049 99.2366 177.111L98.3128 178.324C98.27 178.38 98.1979 178.414 98.1206 178.414L93.0396 178.414C92.9544 178.414 92.8761 178.373 92.8359 178.307C92.7957 178.241 92.8001 178.162 92.8474 178.1L93.7712 176.887ZM94.087 177.201L93.4711 178.01L97.997 178.01L98.6129 177.201L94.087 177.201Z"/>
</mask>
<path fill-rule="evenodd" clip-rule="evenodd" d="M93.7712 176.887C93.8141 176.831 93.8862 176.797 93.9634 176.797L99.0445 176.797C99.1297 176.797 99.2079 176.838 99.2481 176.904C99.2883 176.97 99.2839 177.049 99.2366 177.111L98.3128 178.324C98.27 178.38 98.1979 178.414 98.1206 178.414L93.0396 178.414C92.9544 178.414 92.8761 178.373 92.8359 178.307C92.7957 178.241 92.8001 178.162 92.8474 178.1L93.7712 176.887ZM94.087 177.201L93.4711 178.01L97.997 178.01L98.6129 177.201L94.087 177.201Z" fill="#191919"/>
<path d="M93.7712 176.887L94.1689 177.19L94.1689 177.19L93.7712 176.887ZM99.2366 177.111L98.8389 176.808L98.8389 176.808L99.2366 177.111ZM98.3128 178.324L97.9151 178.021L97.915 178.021L98.3128 178.324ZM92.8474 178.1L93.2451 178.403L93.2451 178.403L92.8474 178.1ZM94.087 177.201L94.087 176.701L93.8394 176.701L93.6893 176.898L94.087 177.201ZM93.4711 178.01L93.0734 177.707L92.4616 178.51L93.4711 178.51L93.4711 178.01ZM97.997 178.01L97.997 178.51L98.2447 178.51L98.3948 178.313L97.997 178.01ZM98.6129 177.201L99.0106 177.504L99.6224 176.701L98.6129 176.701L98.6129 177.201ZM94.1689 177.19C94.1075 177.271 94.0256 177.297 93.9634 177.297L93.9634 176.297C93.7468 176.297 93.5206 176.391 93.3735 176.584L94.1689 177.19ZM93.9634 177.297L99.0445 177.297L99.0445 176.297L93.9634 176.297L93.9634 177.297ZM99.0445 177.297C98.9776 177.297 98.8831 177.265 98.8215 177.165L99.6746 176.643C99.5327 176.411 99.2817 176.297 99.0445 176.297L99.0445 177.297ZM98.8215 177.165C98.7525 177.052 98.7632 176.908 98.8389 176.808L99.6343 177.414C99.8046 177.191 99.8241 176.887 99.6746 176.643L98.8215 177.165ZM98.8389 176.808L97.9151 178.021L98.7105 178.627L99.6344 177.414L98.8389 176.808ZM97.915 178.021C97.9765 177.94 98.0585 177.914 98.1206 177.914L98.1206 178.914C98.3373 178.914 98.5635 178.82 98.7106 178.627L97.915 178.021ZM98.1206 177.914L93.0396 177.914L93.0396 178.914L98.1206 178.914L98.1206 177.914ZM93.0396 177.914C93.1064 177.914 93.2009 177.946 93.2625 178.046L92.4094 178.568C92.5514 178.8 92.8023 178.914 93.0396 178.914L93.0396 177.914ZM93.2625 178.046C93.3316 178.159 93.3208 178.303 93.2451 178.403L92.4497 177.797C92.2795 178.02 92.2598 178.324 92.4094 178.568L93.2625 178.046ZM93.2451 178.403L94.1689 177.19L93.3735 176.584L92.4497 177.797L93.2451 178.403ZM93.6893 176.898L93.0734 177.707L93.8688 178.313L94.4847 177.504L93.6893 176.898ZM93.4711 178.51L97.997 178.51L97.997 177.51L93.4711 177.51L93.4711 178.51ZM98.3948 178.313L99.0106 177.504L98.2152 176.898L97.5993 177.707L98.3948 178.313ZM98.6129 176.701L94.087 176.701L94.087 177.701L98.6129 177.701L98.6129 176.701Z" fill="#191919" mask="url(#path-38-inside-1_329_7944)"/>
<mask id="path-40-inside-2_329_7944" fill="white">
<path fill-rule="evenodd" clip-rule="evenodd" d="M93.7712 181.737C93.8141 181.681 93.8862 181.647 93.9634 181.647L99.0445 181.647C99.1297 181.647 99.2079 181.688 99.2481 181.754C99.2883 181.82 99.2839 181.899 99.2366 181.962L98.3128 183.174C98.27 183.23 98.1979 183.264 98.1206 183.264L93.0396 183.264C92.9544 183.264 92.8761 183.223 92.8359 183.157C92.7957 183.092 92.8001 183.012 92.8474 182.95L93.7712 181.737ZM94.087 182.051L93.4711 182.86L97.997 182.86L98.6129 182.051L94.087 182.051Z"/>
</mask>
<path fill-rule="evenodd" clip-rule="evenodd" d="M93.7712 181.737C93.8141 181.681 93.8862 181.647 93.9634 181.647L99.0445 181.647C99.1297 181.647 99.2079 181.688 99.2481 181.754C99.2883 181.82 99.2839 181.899 99.2366 181.962L98.3128 183.174C98.27 183.23 98.1979 183.264 98.1206 183.264L93.0396 183.264C92.9544 183.264 92.8761 183.223 92.8359 183.157C92.7957 183.092 92.8001 183.012 92.8474 182.95L93.7712 181.737ZM94.087 182.051L93.4711 182.86L97.997 182.86L98.6129 182.051L94.087 182.051Z" fill="#191919"/>
<path d="M93.7712 181.737L93.3736 181.434L93.3735 181.434L93.7712 181.737ZM99.2366 181.962L99.6344 182.265L99.6344 182.264L99.2366 181.962ZM98.3128 183.174L98.7105 183.477L98.7105 183.477L98.3128 183.174ZM92.8359 183.157L93.2625 182.896L93.2624 182.896L92.8359 183.157ZM92.8474 182.95L92.4497 182.647L92.4496 182.647L92.8474 182.95ZM94.087 182.051L94.087 181.551L93.8394 181.551L93.6893 181.748L94.087 182.051ZM93.4711 182.86L93.0734 182.557L92.4616 183.36L93.4711 183.36L93.4711 182.86ZM97.997 182.86L97.997 183.36L98.2447 183.36L98.3948 183.163L97.997 182.86ZM98.6129 182.051L99.0106 182.354L99.6224 181.551L98.6129 181.551L98.6129 182.051ZM94.1688 182.04C94.1075 182.121 94.0256 182.147 93.9634 182.147L93.9634 181.147C93.7467 181.147 93.5206 181.241 93.3736 181.434L94.1688 182.04ZM93.9634 182.147L99.0445 182.147L99.0445 181.147L93.9634 181.147L93.9634 182.147ZM99.0445 182.147C98.9776 182.147 98.8831 182.116 98.8215 182.015L99.6747 181.493C99.5327 181.261 99.2818 181.147 99.0445 181.147L99.0445 182.147ZM98.8215 182.015C98.7524 181.902 98.7632 181.758 98.8389 181.659L99.6344 182.264C99.8046 182.041 99.8241 181.738 99.6747 181.493L98.8215 182.015ZM98.8389 181.658L97.9151 182.871L98.7105 183.477L99.6344 182.265L98.8389 181.658ZM97.9151 182.871C97.9765 182.79 98.0584 182.764 98.1206 182.764L98.1206 183.764C98.3373 183.764 98.5635 183.67 98.7105 183.477L97.9151 182.871ZM98.1206 182.764L93.0396 182.764L93.0396 183.764L98.1206 183.764L98.1206 182.764ZM93.0396 182.764C93.1065 182.764 93.2009 182.796 93.2625 182.896L92.4094 183.418C92.5513 183.65 92.8023 183.764 93.0396 183.764L93.0396 182.764ZM93.2624 182.896C93.3317 183.009 93.3207 183.154 93.2452 183.253L92.4496 182.647C92.2795 182.87 92.2598 183.174 92.4094 183.418L93.2624 182.896ZM93.2451 183.253L94.1689 182.04L93.3735 181.434L92.4497 182.647L93.2451 183.253ZM93.6893 181.748L93.0734 182.557L93.8688 183.163L94.4847 182.354L93.6893 181.748ZM93.4711 183.36L97.997 183.36L97.997 182.36L93.4711 182.36L93.4711 183.36ZM98.3948 183.163L99.0106 182.354L98.2152 181.748L97.5993 182.557L98.3948 183.163ZM98.6129 181.551L94.087 181.551L94.087 182.551L98.6129 182.551L98.6129 181.551Z" fill="#191919" mask="url(#path-40-inside-2_329_7944)"/>
<mask id="path-42-inside-3_329_7944" fill="white">
<path fill-rule="evenodd" clip-rule="evenodd" d="M93.7712 180.749C93.8141 180.805 93.8862 180.839 93.9634 180.839L99.0445 180.839C99.1297 180.839 99.2079 180.798 99.2481 180.732C99.2883 180.666 99.2839 180.587 99.2366 180.525L98.3128 179.312C98.27 179.256 98.1979 179.222 98.1206 179.222L93.0396 179.222C92.9544 179.222 92.8761 179.263 92.8359 179.329C92.7957 179.395 92.8001 179.474 92.8474 179.536L93.7712 180.749ZM94.087 180.435L93.4711 179.626L97.997 179.626L98.6129 180.435L94.087 180.435Z"/>
</mask>
<path fill-rule="evenodd" clip-rule="evenodd" d="M93.7712 180.749C93.8141 180.805 93.8862 180.839 93.9634 180.839L99.0445 180.839C99.1297 180.839 99.2079 180.798 99.2481 180.732C99.2883 180.666 99.2839 180.587 99.2366 180.525L98.3128 179.312C98.27 179.256 98.1979 179.222 98.1206 179.222L93.0396 179.222C92.9544 179.222 92.8761 179.263 92.8359 179.329C92.7957 179.395 92.8001 179.474 92.8474 179.536L93.7712 180.749ZM94.087 180.435L93.4711 179.626L97.997 179.626L98.6129 180.435L94.087 180.435Z" fill="#191919"/>
<path d="M93.7712 180.749L93.3735 181.052L93.3736 181.052L93.7712 180.749ZM99.2366 180.525L99.6344 180.222L99.6344 180.222L99.2366 180.525ZM98.3128 179.312L98.7105 179.009L98.7105 179.009L98.3128 179.312ZM92.8474 179.536L92.4496 179.839L92.4497 179.839L92.8474 179.536ZM94.087 180.435L93.6893 180.738L93.8394 180.935L94.087 180.935L94.087 180.435ZM93.4711 179.626L93.4711 179.126L92.4616 179.126L93.0734 179.929L93.4711 179.626ZM97.997 179.626L98.3948 179.323L98.2447 179.126L97.997 179.126L97.997 179.626ZM98.6129 180.435L98.6129 180.935L99.6224 180.935L99.0106 180.132L98.6129 180.435ZM93.3736 181.052C93.5206 181.245 93.7467 181.339 93.9634 181.339L93.9634 180.339C94.0256 180.339 94.1075 180.365 94.1688 180.446L93.3736 181.052ZM93.9634 181.339L99.0445 181.339L99.0445 180.339L93.9634 180.339L93.9634 181.339ZM99.0445 181.339C99.2818 181.339 99.5327 181.225 99.6747 180.993L98.8215 180.471C98.8831 180.371 98.9776 180.339 99.0445 180.339L99.0445 181.339ZM99.6747 180.993C99.8241 180.749 99.8046 180.445 99.6344 180.222L98.8389 180.828C98.7632 180.728 98.7524 180.584 98.8215 180.471L99.6747 180.993ZM99.6344 180.222L98.7105 179.009L97.9151 179.615L98.8389 180.828L99.6344 180.222ZM98.7105 179.009C98.5635 178.816 98.3373 178.722 98.1206 178.722L98.1206 179.722C98.0584 179.722 97.9765 179.696 97.9151 179.615L98.7105 179.009ZM98.1206 178.722L93.0396 178.722L93.0396 179.722L98.1206 179.722L98.1206 178.722ZM93.0396 178.722C92.8023 178.722 92.5513 178.836 92.4094 179.068L93.2625 179.59C93.2009 179.691 93.1065 179.722 93.0396 179.722L93.0396 178.722ZM92.4094 179.068C92.2598 179.313 92.2795 179.616 92.4496 179.839L93.2452 179.233C93.3208 179.333 93.3316 179.477 93.2625 179.59L92.4094 179.068ZM92.4497 179.839L93.3735 181.052L94.1689 180.446L93.2451 179.233L92.4497 179.839ZM94.4847 180.132L93.8688 179.323L93.0734 179.929L93.6893 180.738L94.4847 180.132ZM93.4711 180.126L97.997 180.126L97.997 179.126L93.4711 179.126L93.4711 180.126ZM97.5993 179.929L98.2152 180.738L99.0106 180.132L98.3948 179.323L97.5993 179.929ZM98.6129 179.935L94.087 179.935L94.087 180.935L98.6129 180.935L98.6129 179.935Z" fill="#191919" mask="url(#path-42-inside-3_329_7944)"/>
<defs>
<linearGradient id="paint0_linear_329_7944" x1="216.812" y1="332.846" x2="268.318" y2="421.426" gradientUnits="userSpaceOnUse">
<stop stop-color="#9A8BCF"/>
<stop offset="1" stop-color="#9A8BCF" stop-opacity="0"/>
</linearGradient>
<linearGradient id="paint1_linear_329_7944" x1="147.089" y1="228.903" x2="253.673" y2="412.205" gradientUnits="userSpaceOnUse">
<stop offset="0.555281" stop-color="#00FFFF"/>
<stop offset="1" stop-color="#01FFFF" stop-opacity="0"/>
</linearGradient>
<linearGradient id="paint2_linear_329_7944" x1="147.089" y1="228.903" x2="235.889" y2="395.349" gradientUnits="userSpaceOnUse">
<stop stop-color="#F9DED7"/>
<stop offset="1" stop-color="#F9DED7" stop-opacity="0"/>
</linearGradient>
<linearGradient id="paint3_linear_329_7944" x1="91.7941" y1="185.809" x2="221.864" y2="409.504" gradientUnits="userSpaceOnUse">
<stop offset="0.660499" stop-color="#5546D1"/>
<stop offset="1" stop-color="#9A8BCF" stop-opacity="0"/>
</linearGradient>
<linearGradient id="paint4_linear_329_7944" x1="182.461" y1="267.072" x2="264.461" y2="408.096" gradientUnits="userSpaceOnUse">
<stop stop-color="#5546D1"/>
<stop offset="1" stop-color="#5A5197" stop-opacity="0"/>
</linearGradient>
<linearGradient id="paint5_linear_329_7944" x1="241.213" y1="336.826" x2="268.658" y2="384.026" gradientUnits="userSpaceOnUse">
<stop stop-color="#5A5197"/>
<stop offset="1" stop-color="#5A5197" stop-opacity="0"/>
</linearGradient>
</defs>
</svg>
