<svg width="213" height="200" viewBox="0 0 213 200" fill="none" xmlns="http://www.w3.org/2000/svg">
<path fill-rule="evenodd" clip-rule="evenodd" d="M11.697 11.5681C11.697 5.17919 16.8762 0 23.2651 0H175.927C182.316 0 187.495 5.17919 187.495 11.5681V15.9495C193.396 16.4759 198.022 21.4334 198.022 27.4713V74.8191C198.022 75.8839 197.159 76.7471 196.094 76.7471C195.029 76.7471 194.166 75.8839 194.166 74.8191V44.3442H127.826C126.738 44.3442 125.699 44.8046 124.968 45.6116L79.5135 95.7939C78.0516 97.4079 75.9754 98.3285 73.7977 98.3285H40.803V124.635C43.0642 124.811 45.2976 125.401 47.4142 126.394C51.2613 128.2 54.5495 131.257 56.863 135.18C59.1765 139.103 60.4113 143.716 60.4113 148.434C60.4113 149.232 59.7639 149.88 58.9653 149.88C58.1667 149.88 57.5193 149.232 57.5193 148.434C57.5193 144.213 56.4132 140.111 54.3719 136.649C52.3318 133.19 49.4675 130.553 46.1855 129.012C42.9105 127.475 39.3326 127.081 35.8855 127.858C32.4333 128.636 29.2065 130.569 26.6379 133.479C24.066 136.393 22.2815 140.147 21.5559 144.28C20.8303 148.413 21.205 152.694 22.6218 156.57C24.0383 160.445 26.417 163.7 29.4057 165.963C32.3886 168.221 35.8515 169.397 39.3571 169.397C40.1557 169.397 40.8031 170.044 40.8031 170.843C40.8031 171.642 40.1557 172.289 39.3571 172.289C35.193 172.289 31.1224 170.89 27.66 168.269C24.1977 165.648 21.4991 161.922 19.9056 157.563C18.312 153.204 17.8951 148.407 18.7075 143.78C19.5199 139.152 21.5251 134.902 24.4695 131.565C27.4141 128.229 31.1656 125.957 35.2496 125.037C36.1316 124.838 37.0205 124.704 37.911 124.635L37.911 98.3285H3.85602V188.432C3.85602 192.691 7.30882 196.144 11.5681 196.144H186.454C190.713 196.144 194.166 192.691 194.166 188.432V143.735C194.166 142.67 195.029 141.807 196.094 141.807C197.159 141.807 198.022 142.67 198.022 143.735V188.432C198.022 194.821 192.843 200 186.454 200H11.5681C5.1792 200 0 194.821 0 188.432V27.4713C0 21.0825 5.1792 15.9033 11.5681 15.9033H11.697V11.5681ZM3.85602 94.4725H58.9087L94.0707 59.3105C94.7034 58.6777 95.5616 58.3223 96.4565 58.3223H108.252L122.111 43.0229C123.573 41.4089 125.649 40.4882 127.826 40.4882H194.166V27.4713C194.166 23.2121 190.713 19.7593 186.454 19.7593H11.5681C7.30882 19.7593 3.85602 23.2121 3.85602 27.4713V94.4725ZM183.639 11.5681V15.9033H15.5531V11.5681C15.5531 7.30881 19.0059 3.85602 23.2651 3.85602H175.927C180.187 3.85602 183.639 7.30882 183.639 11.5681ZM36.4001 159.758C36.4001 160.823 37.2633 161.686 38.3281 161.686H40.3865C41.4513 161.686 42.3145 160.823 42.3145 159.758V151.784H49.1261C50.1909 151.784 51.0541 150.921 51.0541 149.856V147.01C51.0541 145.946 50.1909 145.082 49.1261 145.082H42.3145V137.108C42.3145 136.043 41.4513 135.18 40.3865 135.18H38.3281C37.2633 135.18 36.4001 136.043 36.4001 137.108V145.082H29.5886C28.5237 145.082 27.6605 145.946 27.6605 147.01V149.856C27.6605 150.921 28.5237 151.784 29.5886 151.784H36.4001V159.758ZM204.757 82.6512H153.728C143.08 82.6512 134.448 91.2832 134.448 101.931V116.623C134.448 127.271 143.08 135.903 153.728 135.903H204.757C206.887 135.903 208.613 134.176 208.613 132.047V86.5072C208.613 84.3776 206.887 82.6512 204.757 82.6512ZM153.728 78.7952C140.95 78.7952 130.592 89.1536 130.592 101.931V116.623C130.592 129.4 140.95 139.759 153.728 139.759H204.757C209.016 139.759 212.469 136.306 212.469 132.047V86.5072C212.469 82.248 209.016 78.7952 204.757 78.7952H153.728ZM73.7977 94.4725H62.9986L96.1157 61.3554C96.206 61.2651 96.3287 61.2143 96.4565 61.2143H105.633L76.6556 93.2052C75.9246 94.0122 74.8866 94.4725 73.7977 94.4725ZM157.495 120.963C162.674 120.963 167.469 116.081 167.469 109.277C167.469 102.473 162.674 97.5909 157.495 97.5909C152.315 97.5909 147.52 102.473 147.52 109.277C147.52 116.081 152.315 120.963 157.495 120.963ZM157.495 123.855C164.6 123.855 170.361 117.329 170.361 109.277C170.361 101.226 164.6 94.6989 157.495 94.6989C150.389 94.6989 144.628 101.226 144.628 109.277C144.628 117.329 150.389 123.855 157.495 123.855Z" fill="currentColor"/>
</svg>
