<svg width="270" height="200" viewBox="0 0 270 200" fill="none" xmlns="http://www.w3.org/2000/svg">
<path d="M42.9014 169.449C41.4962 169.449 40.3571 170.593 40.3571 172.004C40.3571 173.415 41.4962 174.559 42.9014 174.559H57.3464C58.7516 174.559 59.8907 173.415 59.8907 172.004C59.8907 170.593 58.7516 169.449 57.3464 169.449H42.9014Z" fill="currentColor"/>
<path d="M74.199 169.449C72.7938 169.449 71.6547 170.593 71.6547 172.004C71.6547 173.415 72.7938 174.559 74.199 174.559H88.644C90.0492 174.559 91.1883 173.415 91.1883 172.004C91.1883 170.593 90.0492 169.449 88.644 169.449H74.199Z" fill="currentColor"/>
<path d="M105.497 169.449C104.091 169.449 102.952 170.593 102.952 172.004C102.952 173.415 104.091 174.559 105.497 174.559H119.942C121.347 174.559 122.486 173.415 122.486 172.004C122.486 170.593 121.347 169.449 119.942 169.449H105.497Z" fill="currentColor"/>
<path d="M136.794 169.449C135.389 169.449 134.25 170.593 134.25 172.004C134.25 173.415 135.389 174.559 136.794 174.559H151.239C152.644 174.559 153.784 173.415 153.784 172.004C153.784 170.593 152.644 169.449 151.239 169.449H136.794Z" fill="currentColor"/>
<path d="M168.092 169.449C166.687 169.449 165.547 170.593 165.547 172.004C165.547 173.415 166.687 174.559 168.092 174.559H182.537C183.942 174.559 185.081 173.415 185.081 172.004C185.081 170.593 183.942 169.449 182.537 169.449H168.092Z" fill="currentColor"/>
<path d="M199.389 169.449C197.984 169.449 196.845 170.593 196.845 172.004C196.845 173.415 197.984 174.559 199.389 174.559H213.834C215.24 174.559 216.379 173.415 216.379 172.004C216.379 170.593 215.24 169.449 213.834 169.449H199.389Z" fill="currentColor"/>
<path d="M230.687 169.449C229.282 169.449 228.143 170.593 228.143 172.004C228.143 173.415 229.282 174.559 230.687 174.559H245.132C246.537 174.559 247.676 173.415 247.676 172.004C247.676 170.593 246.537 169.449 245.132 169.449H230.687Z" fill="currentColor"/>
<path d="M40.4042 54.4519C40.4042 53.041 41.5433 51.8973 42.9485 51.8973H57.4218C58.827 51.8973 59.9661 53.041 59.9661 54.4519C59.9661 55.8627 58.827 57.0064 57.4218 57.0064H42.9485C41.5433 57.0064 40.4042 55.8627 40.4042 54.4519Z" fill="currentColor"/>
<path d="M71.763 54.4519C71.763 53.041 72.9021 51.8973 74.3073 51.8973H88.7806C90.1858 51.8973 91.3249 53.041 91.3249 54.4519C91.3249 55.8627 90.1858 57.0064 88.7806 57.0064H74.3073C72.9021 57.0064 71.763 55.8627 71.763 54.4519Z" fill="currentColor"/>
<path d="M103.122 54.4519C103.122 53.041 104.261 51.8973 105.666 51.8973H120.139C121.545 51.8973 122.684 53.041 122.684 54.4519C122.684 55.8627 121.545 57.0064 120.139 57.0064H105.666C104.261 57.0064 103.122 55.8627 103.122 54.4519Z" fill="currentColor"/>
<path d="M134.481 54.4519C134.481 53.041 135.62 51.8973 137.025 51.8973H151.498C152.903 51.8973 154.043 53.041 154.043 54.4519C154.043 55.8627 152.903 57.0064 151.498 57.0064H137.025C135.62 57.0064 134.481 55.8627 134.481 54.4519Z" fill="currentColor"/>
<path d="M165.84 54.4519C165.84 53.041 166.979 51.8973 168.384 51.8973H182.857C184.262 51.8973 185.401 53.041 185.401 54.4519C185.401 55.8627 184.262 57.0064 182.857 57.0064H168.384C166.979 57.0064 165.84 55.8627 165.84 54.4519Z" fill="currentColor"/>
<path d="M197.198 54.4519C197.198 53.041 198.337 51.8973 199.743 51.8973H214.216C215.621 51.8973 216.76 53.041 216.76 54.4519C216.76 55.8627 215.621 57.0064 214.216 57.0064H199.743C198.337 57.0064 197.198 55.8627 197.198 54.4519Z" fill="currentColor"/>
<path d="M228.557 54.4519C228.557 53.041 229.696 51.8973 231.101 51.8973H245.575C246.98 51.8973 248.119 53.041 248.119 54.4519C248.119 55.8627 246.98 57.0064 245.575 57.0064H231.101C229.696 57.0064 228.557 55.8627 228.557 54.4519Z" fill="currentColor"/>
<path d="M48.9471 113.41C54.1457 113.41 58.3599 109.179 58.3599 103.959C58.3599 98.7394 54.1457 94.5081 48.9471 94.5081C43.7486 94.5081 39.5343 98.7394 39.5343 103.959C39.5343 109.179 43.7486 113.41 48.9471 113.41Z" fill="currentColor"/>
<path fill-rule="evenodd" clip-rule="evenodd" d="M269.697 25.3406L269.206 20.4367C269.206 9.14983 260.093 0 248.852 0H39.1801C27.9386 0 18.8256 9.1498 18.8256 20.4367L18.8263 77.7365L7.63293 77.7366C3.41738 77.7366 0 81.1678 0 85.4003V123.719C0 127.952 3.41738 131.383 7.63293 131.383H18.8263V187.227C18.8263 194.281 24.522 200 31.5479 200H256.975C264.001 200 269.697 194.281 269.697 187.227V25.3406ZM248.852 5.10918H39.1801C30.749 5.10918 23.9142 11.9715 23.9142 20.4367V27.8948C26.0405 26.291 28.6836 25.3406 31.5479 25.3406H264.118V20.4367C264.118 11.9715 257.283 5.10918 248.852 5.10918ZM264.118 30.4498L264.608 45.3638V51.8973H262.46C261.055 51.8973 259.916 53.041 259.916 54.4519C259.916 55.8627 261.055 57.0064 262.46 57.0064H264.608V169.449H261.985C260.579 169.449 259.44 170.593 259.44 172.004C259.44 173.415 260.579 174.559 261.985 174.559H264.608V187.227C264.608 191.46 261.191 194.891 256.975 194.891H31.5479C27.3323 194.891 23.9149 191.46 23.9149 187.227V174.559H26.0488C27.454 174.559 28.5931 173.415 28.5931 172.004C28.5931 170.593 27.454 169.449 26.0488 169.449H23.9149V131.383H49.614C64.3685 131.383 76.3293 119.374 76.3293 104.56C76.3293 102.708 76.1423 100.9 75.7864 99.1539C74.1402 91.0763 68.8778 84.3214 61.7716 80.6686C58.1248 78.794 53.9924 77.7365 49.614 77.7365H23.9149V57.0064H26.063C27.4682 57.0064 28.6073 55.8627 28.6073 54.4519C28.6073 53.041 27.4682 51.8973 26.063 51.8973H23.9149V38.1136C23.9149 33.881 27.3323 30.4498 31.5479 30.4498H264.118ZM49.614 82.8458C51.107 82.8458 52.5647 82.9976 53.9725 83.2868C62.535 85.046 69.2542 91.8859 70.8693 100.532C71.1131 101.837 71.2406 103.184 71.2406 104.56C71.2406 116.552 61.558 126.274 49.614 126.274L7.63293 126.274C6.22775 126.274 5.08862 125.13 5.08862 123.719V85.4003C5.08862 83.9895 6.22775 82.8458 7.63293 82.8458H49.614Z" fill="currentColor"/>
</svg>
