<svg width="491" height="100" viewBox="0 0 491 100" fill="none" xmlns="http://www.w3.org/2000/svg">
<path d="M190.698 82.9265L168.023 16.7296H146.726L124.049 82.9265H135.775L142.069 63.9387H172.678L178.972 82.9265H190.698ZM157.418 18.1233L169.487 54.3566H145.26L157.418 18.1233Z" fill="black"/>
<path d="M205.046 35.9797H194.354V82.9264H205.132V56.6214C205.132 48.4353 209.183 45.6478 217.548 45.6478H220.478V34.9344C211.512 34.9344 206.856 40.333 205.046 47.39V35.9797Z" fill="black"/>
<path d="M245.381 83.9717C256.504 83.9717 265.385 77.8741 267.712 66.7262H256.848C255.124 72.8239 251.503 76.3083 245.381 76.3083C237.62 76.3083 233.051 69.8621 233.051 59.4089C233.051 49.1322 237.534 42.5978 245.381 42.5978C251.589 42.5978 255.124 46.9534 256.33 52.3542H267.282C265.299 41.901 257.281 34.9344 245.381 34.9344C231.412 34.9344 222.102 44.7767 222.102 59.4089C222.102 74.0434 231.326 83.9717 245.381 83.9717Z" fill="black"/>
<path d="M299.153 34.9344C291.135 34.9344 286.565 39.8126 284.411 45.5596V16.7296H273.719V82.9265H284.497V55.6644C284.497 46.6932 288.29 42.6861 294.326 42.6861C300.448 42.6861 304.155 46.605 304.155 55.4902V55.6644V82.9265H314.932V53.5737V53.3995C314.932 42.9463 309.847 34.9344 299.153 34.9344Z" fill="black"/>
<path d="M374.361 81.7951L366.6 35.9797H347.458L339.698 81.7951L330.043 35.9797H319.954L329.955 82.9264H349.441L357.029 37.0251L364.618 82.9264H384.104L394.105 35.9797H384.018L374.361 81.7951Z" fill="black"/>
<path d="M418.714 34.9344C407.333 34.9344 399.4 40.7696 398.28 50.0033H409.143C409.747 46.0822 412.936 42.5978 418.714 42.5978C425.18 42.5978 428.285 47.0416 428.285 52.5284V52.7026V53.3113L415.955 54.619C407.161 55.4901 396.727 57.841 396.727 68.7286C396.727 77.6138 403.797 83.9717 412.592 83.9717C421.473 83.9717 425.44 79.7905 428.371 73.6068V82.9264H439.063V53.137V52.9628C439.063 43.383 433.027 34.9344 418.714 34.9344ZM416.732 77.0912C411.816 77.0912 407.677 74.0434 407.677 68.7286C407.677 62.6331 414.059 61.762 419.92 61.0651L428.285 60.194V62.9816C428.285 70.8193 424.404 77.0912 416.732 77.0912Z" fill="black"/>
<path d="M466.724 76.3083L452.583 35.9797H441.72L456.637 77.8741H466.208L459.396 100H470.517L490.435 35.9797H479.14L466.724 76.3083Z" fill="black"/>
<path d="M0 50.0165C0 22.3927 22.2154 0 49.6196 0C77.0237 0 99.2391 22.3927 99.2391 50.0165V99.1906C99.2124 71.8072 77.0071 49.6196 49.6196 49.6196C22.2154 49.6196 0 71.8359 0 99.2391V50.0165Z" fill="black"/>
</svg>
